<svg width="25" height="25" viewBox="0 0 25 25" version="1.1" xmlns="http://www.w3.org/2000/svg" xmlns:xlink="http://www.w3.org/1999/xlink">
<title>Rooms Icon</title>
<desc>Created using Figma</desc>
<g id="Canvas" transform="translate(2341 8806)">
<g id="Rooms Icon">
<use xlink:href="#path0_fill" transform="translate(-2340.5 -8805.22)" fill="#8C8C8C"/>
</g>
</g>
<defs>
<path id="path0_fill" fill-rule="evenodd" d="M 22.481 0C 23.3196 0 24 0.680664 24 1.51855L 24 8.96777C 24 9.80664 23.3196 10.4873 22.481 10.4873L 10.4521 10.4873L 10.4521 22.4814C 10.4521 23.3193 9.77173 24 8.93311 24L 1.51904 24C 0.68042 24 0 23.3193 0 22.4814L 0 1.51855C 0 0.680664 0.68042 0 1.51904 0L 22.481 0ZM 22.9583 8.96777L 22.9583 1.51953C 22.9583 1.25586 22.7444 1.04199 22.481 1.04199L 1.5188 1.04199C 1.39575 1.04199 1.28345 1.08887 1.19873 1.16602C 1.14551 1.21387 1.10327 1.27344 1.07593 1.3418C 1.05371 1.39648 1.0415 1.45605 1.0415 1.51953L 1.0415 22.4814C 1.0415 22.6094 1.09204 22.7256 1.17432 22.8115C 1.26123 22.9023 1.38354 22.959 1.5188 22.959L 8.93311 22.959C 9.19629 22.959 9.4104 22.7451 9.4104 22.4814L 9.4104 10.4658C 9.4104 9.90234 9.86719 9.44531 10.4304 9.44531L 22.481 9.44531C 22.5488 9.44531 22.6133 9.43164 22.6716 9.40625C 22.7312 9.37988 22.7844 9.3418 22.8284 9.29492C 22.9089 9.20996 22.9583 9.09473 22.9583 8.96777ZM 13.0911 13.0859L 13.0911 22.9141L 21.8269 22.9092C 22.4194 22.9092 22.9092 22.4209 22.9092 21.8271L 22.9092 13.0859L 13.0911 13.0859ZM 13.0862 12C 12.4854 12 12 12.4863 12 13.0859L 12 22.9141C 12 23.5146 12.4863 24 13.0862 24L 21.8269 24C 23.0181 24 24 23.0273 24 21.8271L 24 13.0859C 24 12.4854 23.5137 12 22.9138 12L 13.0862 12Z"/>
</defs>
</svg>
