<svg width="42" height="31" viewBox="0 0 42 31" fill="none" xmlns="http://www.w3.org/2000/svg">
<mask id="mask0" mask-type="alpha" maskUnits="userSpaceOnUse" x="0" y="0" width="42" height="31">
<path d="M26.5 0.75H15.5C7.3538 0.75 0.75 7.3538 0.75 15.5C0.75 23.6462 7.3538 30.25 15.5 30.25H26.5C34.6462 30.25 41.25 23.6462 41.25 15.5C41.25 7.3538 34.6462 0.75 26.5 0.75Z" fill="white" stroke="white" stroke-width="0.5"/>
</mask>
<g mask="url(#mask0)">
<path d="M26.5 0.75H15.5C7.3538 0.75 0.75 7.3538 0.75 15.5C0.75 23.6462 7.3538 30.25 15.5 30.25H26.5C34.6462 30.25 41.25 23.6462 41.25 15.5C41.25 7.3538 34.6462 0.75 26.5 0.75Z" fill="#8A8A8F" stroke="#C8C7CC" stroke-width="0.5"/>
<path fill-rule="evenodd" clip-rule="evenodd" d="M17.3831 4H24.6178C25.1139 4 25.765 4.33824 26.0703 4.7553L28.0584 7.82601C28.2527 8.12483 28.5756 8.30632 28.9203 8.30632H33.1957C34.1932 8.30632 35 9.15879 35 10.2157V24.0897C35 25.1448 34.1932 26 33.1957 26H8.80518C7.80765 26 7 25.1466 7 24.0897V10.2157C7 9.16062 7.80765 8.30632 8.80518 8.30632H13.0981C13.4315 8.30632 13.7438 8.13216 13.9328 7.84251L15.9297 4.7553C16.2359 4.33915 16.8896 4 17.3831 4ZM27.7749 10.6972C27.7749 11.2252 28.1792 11.6532 28.6779 11.6532C29.1776 11.6532 29.581 11.2252 29.581 10.6972C29.581 10.1692 29.1776 9.74023 28.6779 9.74023C28.1792 9.74023 27.7749 10.1692 27.7749 10.6972ZM14.6775 16.9138C14.6775 20.6115 17.5082 23.6089 21.0004 23.6089C24.4927 23.6089 27.3225 20.6115 27.3225 16.9138C27.3225 13.2152 24.4927 10.2188 21.0004 10.2188C17.5082 10.2188 14.6775 13.2152 14.6775 16.9138ZM9.70918 4.95703H11.517C12.0158 4.95703 12.4191 5.38235 12.4191 5.91399V6.87003H8.80615V5.91399C8.80615 5.3851 9.20779 4.95703 9.70918 4.95703ZM16.033 16.9134C16.033 14.0067 18.2564 11.6528 21.0005 11.6528C23.7446 11.6528 25.968 14.0067 25.968 16.9134C25.968 19.8191 23.7446 22.1739 21.0005 22.1739C18.2564 22.1739 16.033 19.8191 16.033 16.9134Z" fill="white"/>
</g>
</svg>
