<svg width="42" height="31" viewBox="0 0 42 31" fill="none" xmlns="http://www.w3.org/2000/svg">
<mask id="mask0" mask-type="alpha" maskUnits="userSpaceOnUse" x="0" y="0" width="42" height="31">
<path d="M26.5 0.75H15.5C7.3538 0.75 0.75 7.3538 0.75 15.5C0.75 23.6462 7.3538 30.25 15.5 30.25H26.5C34.6462 30.25 41.25 23.6462 41.25 15.5C41.25 7.3538 34.6462 0.75 26.5 0.75Z" fill="white" stroke="white" stroke-width="0.5"/>
</mask>
<g mask="url(#mask0)">
<path d="M26.5 0.75H15.5C7.3538 0.75 0.75 7.3538 0.75 15.5C0.75 23.6462 7.3538 30.25 15.5 30.25H26.5C34.6462 30.25 41.25 23.6462 41.25 15.5C41.25 7.3538 34.6462 0.75 26.5 0.75Z" fill="white" stroke="#C8C7CC" stroke-width="0.5"/>
<path fill-rule="evenodd" clip-rule="evenodd" d="M16.8 0H25.2C34.4778 0 42 6.40627 42 14.3077V16.6923C42 24.5949 34.4778 31 25.2 31H16.8C7.5222 31 0 24.5949 0 16.6923V14.3077C0 6.40627 7.5222 0 16.8 0ZM23.0872 16.7617C23.0872 15.2588 22.3226 14.3096 21.1273 14.3096C19.9495 14.3096 19.2552 15.2236 19.2552 16.7617C19.2552 18.291 19.9583 19.2227 21.1097 19.2227C22.3138 19.2227 23.0872 18.2646 23.0872 16.7617ZM14.1751 16.7178C14.1751 12.3672 17.1282 9.3877 21.4349 9.3877C25.5921 9.3877 28.4837 12.042 28.4837 15.8564C28.4837 18.7217 27.2005 20.541 25.179 20.541C24.1507 20.541 23.3509 19.9258 23.2454 19.0645H23.1048C22.7269 19.9609 21.9359 20.4619 20.9075 20.4619C19.0794 20.4619 17.8489 18.959 17.8489 16.7266C17.8489 14.5908 19.1058 13.0967 20.9075 13.0967C21.8304 13.0967 22.6214 13.5713 22.9642 14.3359H23.1048V13.2637H24.432V18.4229C24.432 19.0381 24.7923 19.3984 25.4251 19.3984C26.5325 19.3984 27.2445 18.001 27.2445 15.8389C27.2445 12.666 24.8363 10.4951 21.3206 10.4951C17.8841 10.4951 15.4144 13.1143 15.4144 16.7705C15.4144 20.5234 17.8402 22.9404 21.6019 22.9404C22.806 22.9404 23.9925 22.7734 24.5462 22.5186V23.626C23.7552 23.8984 22.6917 24.0566 21.5843 24.0566C17.0491 24.0566 14.1751 21.209 14.1751 16.7178Z" fill="#8A8A8F"/>
</g>
</svg>
