<svg width="42" height="31" viewBox="0 0 42 31" fill="none" xmlns="http://www.w3.org/2000/svg">
<path fill-rule="evenodd" clip-rule="evenodd" d="M16.8 0H25.2C34.4778 0 42 6.40625 42 14.3076V16.6924C42 24.5947 34.4778 31 25.2 31H16.8C7.52222 31 0 24.5947 0 16.6924V14.3076C0 6.40625 7.52222 0 16.8 0ZM9.64722 13.4434V20H8.60425V11.5449H9.62964L14.2175 18.125H14.3113V11.5449H15.3542V20H14.3289L9.74097 13.4434H9.64722ZM18.3252 19.0508H22.5088V20H17.2705V11.5449H22.5088V12.4941H18.3252V15.207H22.292V16.1445H18.3252V19.0508ZM28.9424 13.3262H28.8721L26.9268 20H25.9307L23.6279 11.5449H24.7295L26.4111 18.418H26.4814L28.374 11.5449H29.4404L31.333 18.418H31.4033L33.085 11.5449H34.1865L31.8838 20H30.8877L28.9424 13.3262Z" fill="#FF3B30"/>
</svg>
