<svg width="15" height="15" viewBox="0 0 15 15" fill="none" xmlns="http://www.w3.org/2000/svg">
<path d="M2.26671 15.0001C2.13202 14.9772 1.99427 14.9619 1.86265 14.9282C0.99331 14.705 0.413242 14.1636 0.11632 13.3209C0.0275494 13.067 0 12.8024 0 12.5348C0 9.33841 5.81568e-09 6.14204 0.00153053 2.94567C0.00153053 2.09382 0.34896 1.41325 1.04229 0.916208C1.41574 0.64857 1.83969 0.512456 2.29885 0.487987C2.3616 0.484928 2.42435 0.483398 2.4871 0.483398C5.00328 0.483398 7.51947 0.483398 10.0356 0.483398C10.0678 0.483398 10.0999 0.483398 10.1474 0.483398C10.1244 0.510927 10.1122 0.529279 10.0969 0.544573C9.65302 0.989618 9.20916 1.43313 8.76225 1.87512C8.72858 1.90724 8.66889 1.92865 8.62297 1.92865C6.73431 1.93171 4.84717 1.93324 2.9585 1.93018C2.50088 1.93018 2.11672 2.08311 1.81061 2.42416C1.55807 2.70709 1.44482 3.04355 1.44482 3.41825C1.44482 6.29804 1.44328 9.1763 1.44482 12.0561C1.44482 12.7856 1.90244 13.3591 2.60036 13.512C2.71362 13.5365 2.83147 13.5442 2.94779 13.5442C5.82365 13.5457 8.69797 13.5457 11.5738 13.5457C12.4416 13.5457 13.0737 12.9125 13.0737 12.0454C13.0753 10.1582 13.0737 8.27245 13.0722 6.38521C13.0722 6.31333 13.0936 6.26439 13.1441 6.21392C13.5773 5.78417 14.0089 5.35289 14.439 4.92008C14.4604 4.89867 14.4726 4.87114 14.4895 4.84514C14.4987 4.85126 14.5063 4.85585 14.5155 4.86197C14.517 4.88644 14.5216 4.91244 14.5216 4.93691C14.5216 7.46647 14.5247 9.99604 14.5201 12.5256C14.5186 13.3744 14.1757 14.058 13.4824 14.5566C13.1441 14.8013 12.76 14.9359 12.3437 14.9787C12.3115 14.9818 12.2794 14.9894 12.2473 14.9955C8.92143 15.0001 5.59407 15.0001 2.26671 15.0001Z" fill="#E5E6E8"/>
<path d="M12.9864 5.83406e-09C13.2145 0.0229405 13.3675 0.165171 13.519 0.318108C13.9384 0.740212 14.3624 1.15773 14.7848 1.57677C15.0557 1.84594 15.0756 2.20075 14.8169 2.48063C14.5904 2.72686 14.3455 2.95473 14.1006 3.1979C13.3384 2.42251 12.5778 1.65018 11.8186 0.876325C11.8079 0.882443 11.7987 0.89009 11.7896 0.896207C11.8064 0.876325 11.8232 0.856444 11.8416 0.838091C12.0084 0.671391 12.1814 0.509278 12.3436 0.337989C12.5028 0.169759 12.6773 0.0321166 12.916 5.83406e-09C12.9374 5.83406e-09 12.9619 5.83406e-09 12.9864 5.83406e-09Z" fill="#E5E6E8"/>
<path d="M6.35303 6.28851C8.02283 4.63068 9.71865 2.94532 11.4221 1.25537C12.1843 2.03076 12.9435 2.80462 13.7118 3.58765C12.0435 5.24395 10.3462 6.92931 8.64422 8.61926C7.88202 7.84234 7.12135 7.07001 6.35303 6.28851Z" fill="#E5E6E8"/>
<path d="M5.99641 6.63867C6.7678 7.42171 7.52081 8.18945 8.27842 8.95872C7.22542 9.25694 6.15406 9.56129 5.06738 9.87022C5.37655 8.79202 5.68265 7.72758 5.99641 6.63867Z" fill="#E5E6E8"/>
</svg>
