<svg width="25" height="25" viewBox="0 0 25 25" version="1.1" xmlns="http://www.w3.org/2000/svg" xmlns:xlink="http://www.w3.org/1999/xlink">
<title>Union</title>
<desc>Created using Figma</desc>
<g id="Canvas" transform="translate(1128 10248)">
<g id="Union">
<use xlink:href="#path0_fill" transform="translate(-1128 -10248)" fill="#FF9500"/>
</g>
</g>
<defs>
<path id="path0_fill" fill-rule="evenodd" d="M 20.7676 21.8757C 23.363 19.5852 25 16.2339 25 12.5C 25 5.59644 19.4036 0 12.5 0C 5.59644 0 0 5.59644 0 12.5C 0 16.2339 1.63696 19.5852 4.23242 21.8757C 6.43579 23.8203 9.33032 25 12.5 25C 15.5203 25 18.2905 23.9287 20.4512 22.1455C 20.5581 22.0574 20.6636 21.9675 20.7676 21.8757ZM 5.25195 21.429C 5.79297 21.2141 6.39771 20.9966 6.97314 20.7896L 6.98047 20.7869C 7.80664 20.4895 8.57153 20.2141 9 20C 10 19.5 9.83325 17.6667 9 16.5C 8.33325 14.8333 7.5 12.1445 7.5 11.25C 7.5 10.9739 7.65259 10.7214 7.78931 10.4954C 7.8999 10.3125 8 10.1467 8 10C 7.96973 9.90942 7.93408 9.82446 7.896 9.73364C 7.72339 9.32275 7.5 8.79053 7.5 7.06738C 7.5 4.5 11.0015 3.5 12.5 3.5C 13.9985 3.5 17.5 4.5 17.5 7.06738C 17.5 8.79053 17.2766 9.32275 17.104 9.73364C 17.0659 9.82446 17.0303 9.90942 17 10C 17 10.1467 17.1001 10.3125 17.2107 10.4954C 17.3474 10.7214 17.5 10.9739 17.5 11.25C 17.5 12.1445 16.6667 14.8333 16 16.5C 15.1667 17.6667 15 19.5 16 20C 16.4285 20.2141 17.1934 20.4895 18.0195 20.7869L 18.0269 20.7896C 18.6023 20.9966 19.207 21.2141 19.748 21.429C 22.3425 19.3203 24 16.1038 24 12.5C 24 6.14868 18.8513 1 12.5 1C 6.14868 1 1 6.14868 1 12.5C 1 16.1038 2.65747 19.3203 5.25195 21.429Z"/>
</defs>
</svg>
