<svg width="33" height="22" viewBox="0 0 33 22" fill="none" xmlns="http://www.w3.org/2000/svg">
<path fill-rule="evenodd" clip-rule="evenodd" d="M32.344 10.9991C32.344 11.3 32.2085 11.5849 31.9751 11.7748L25.2146 17.2748C24.7862 17.6233 24.1563 17.5586 23.8078 17.1302C23.4592 16.7017 23.524 16.0719 23.9524 15.7234L28.2563 12.2219H19.0523V14.6673H21.5107V18.9444C21.5107 20.632 20.1348 22 18.4377 22L3.07291 22C1.37576 22 -4.95911e-05 20.632 -4.95911e-05 18.9444V3.05556C-4.95911e-05 1.36802 1.37576 0 3.07291 0L18.4377 0C20.1348 0 21.5107 1.36802 21.5107 3.05556V7.33401H19.0523V9.77749H28.2579L23.9524 6.2748C23.524 5.92626 23.4592 5.29641 23.8078 4.868C24.1563 4.43958 24.7862 4.37483 25.2146 4.72337L31.9751 10.2234C32.2085 10.4133 32.344 10.6982 32.344 10.9991ZM19.0523 9.77749V3.05556C19.0523 2.71805 18.7771 2.44444 18.4377 2.44444L3.07291 2.44444C2.73348 2.44444 2.45832 2.71805 2.45832 3.05556V18.9444C2.45832 19.2819 2.73348 19.5556 3.07291 19.5556L18.4377 19.5556C18.7771 19.5556 19.0523 19.2819 19.0523 18.9444V12.2219L11.678 12.2219V9.77749L19.0523 9.77749Z" fill="#FF9500"/>
</svg>
