<svg width="25" height="24" viewBox="0 0 25 24" version="1.1" xmlns="http://www.w3.org/2000/svg" xmlns:xlink="http://www.w3.org/1999/xlink">
<title>Icon</title>
<desc>Created using Figma</desc>
<g id="Canvas" transform="translate(1129 10295)">
<g id="Icon">
<use xlink:href="#path0_fill" transform="translate(-1129 -10295)" fill="#FF9500"/>
</g>
</g>
<defs>
<path id="path0_fill" fill-rule="evenodd" d="M 18.656 0C 16.0275 0 13.833 1.10675 12.5 3.0642C 11.1675 1.10675 8.9725 0 6.344 0C 3.28 0 0 1.63988 0 4.08094L 0 22.4281C 0 22.6212 0.105 22.7982 0.274 22.8897C 0.4435 22.9803 0.6495 22.9713 0.808 22.8652C 0.8485 22.8382 4.8935 20.1686 8.1555 20.1686C 10.269 20.1686 11.5225 21.2844 11.9895 23.5809C 11.9925 23.5964 12.002 23.6094 12.0065 23.6244C 12.015 23.6529 12.0255 23.6794 12.0385 23.7059C 12.0535 23.7359 12.07 23.7629 12.09 23.789C 12.1065 23.811 12.124 23.8315 12.144 23.8505C 12.168 23.874 12.194 23.8935 12.2225 23.9115C 12.245 23.926 12.267 23.9405 12.2925 23.951C 12.325 23.9655 12.3585 23.9735 12.394 23.9815C 12.4125 23.9855 12.4285 23.9955 12.448 23.9975C 12.465 23.999 12.482 24 12.4995 24L 12.5 24L 12.5005 24L 12.501 24C 12.518 24 12.535 23.9985 12.5525 23.9975C 12.5715 23.9955 12.5875 23.986 12.606 23.9815C 12.641 23.9735 12.675 23.966 12.7075 23.951C 12.7325 23.94 12.7545 23.926 12.7775 23.9115C 12.806 23.8935 12.832 23.874 12.856 23.8505C 12.876 23.8315 12.893 23.811 12.9095 23.789C 12.9295 23.7629 12.946 23.7359 12.9605 23.7059C 12.9735 23.6794 12.984 23.6529 12.9925 23.6244C 12.997 23.6094 13.0065 23.5964 13.0095 23.5809C 13.4765 21.2844 14.7305 20.1686 16.8435 20.1686C 20.106 20.1686 24.1505 22.8377 24.191 22.8652C 24.35 22.9708 24.5555 22.9803 24.725 22.8897C 24.894 22.7982 24.999 22.6212 24.999 22.4281L 24.999 4.08094C 25 1.63988 21.7205 0 18.656 0ZM 8.15599 19.121C 5.47199 19.121 2.45599 20.6703 1.04199 21.4935L 1.04199 4.08102C 1.04199 2.49416 3.56949 1.04883 6.34449 1.04883C 8.85449 1.04883 10.901 2.19909 11.9795 4.21055L 11.9795 20.8909C 11.1195 19.7246 9.82949 19.121 8.15599 19.121ZM 23.9585 21.493C 22.5445 20.6698 19.5285 19.1205 16.8445 19.1205C 15.171 19.1205 13.881 19.7241 13.021 20.8904L 13.021 4.21055C 14.0995 2.19909 16.1465 1.04883 18.656 1.04883C 21.431 1.04883 23.958 2.49416 23.958 4.08102L 23.958 21.493L 23.9585 21.493Z"/>
</defs>
</svg>
