<svg width="13" height="22" viewBox="0 0 13 22" fill="none" xmlns="http://www.w3.org/2000/svg">
<mask id="mask0" mask-type="alpha" maskUnits="userSpaceOnUse" x="0" y="0" width="13" height="22">
<path fill-rule="evenodd" clip-rule="evenodd" d="M10.3308 0.985496L0.966943 9.97546C0.439404 10.4812 0.439404 11.3255 0.966943 11.8333L10.3308 20.8211C10.905 21.3726 11.8116 21.3726 12.3859 20.8211C12.9934 20.2375 12.9934 19.2655 12.3859 18.6809L4.5434 11.152C4.40114 11.016 4.40114 10.7907 4.5434 10.6546L12.3859 3.12577C12.9934 2.54215 12.9934 1.57015 12.3859 0.985496C12.0982 0.711342 11.7285 0.573227 11.3588 0.573227C10.9881 0.573227 10.6184 0.711342 10.3308 0.985496Z" fill="white"/>
</mask>
<g mask="url(#mask0)">
<path fill-rule="evenodd" clip-rule="evenodd" d="M10.3308 0.985496L0.966943 9.97546C0.439404 10.4812 0.439404 11.3255 0.966943 11.8333L10.3308 20.8211C10.905 21.3726 11.8116 21.3726 12.3859 20.8211C12.9934 20.2375 12.9934 19.2655 12.3859 18.6809L4.5434 11.152C4.40114 11.016 4.40114 10.7907 4.5434 10.6546L12.3859 3.12577C12.9934 2.54215 12.9934 1.57015 12.3859 0.985496C12.0982 0.711342 11.7285 0.573227 11.3588 0.573227C10.9881 0.573227 10.6184 0.711342 10.3308 0.985496Z" fill="#007AFF"/>
</g>
</svg>
