<svg width="15" height="15" viewBox="0 0 15 15" fill="none" xmlns="http://www.w3.org/2000/svg">
<path opacity="0.54" d="M2.26671 14.5167C2.13202 14.4938 1.99427 14.4785 1.86265 14.4448C0.99331 14.2216 0.413242 13.6802 0.11632 12.8375C0.0275494 12.5836 0 12.319 0 12.0514C0 8.85502 5.81568e-09 5.65865 0.00153053 2.46228C0.00153053 1.61042 0.34896 0.929853 1.04229 0.43281C1.41574 0.165171 1.83969 0.0290579 2.29885 0.00458809C2.3616 0.00152936 2.42435 1.16681e-08 2.4871 1.16681e-08C5.00328 1.16681e-08 7.51947 1.16681e-08 10.0356 1.16681e-08C10.0678 1.16681e-08 10.0999 1.16681e-08 10.1474 1.16681e-08C10.1244 0.0275286 10.1122 0.0458809 10.0969 0.0611746C9.65302 0.506219 9.20917 0.949735 8.76225 1.39172C8.72858 1.42384 8.66889 1.44525 8.62297 1.44525C6.73431 1.44831 4.84717 1.44984 2.9585 1.44678C2.50088 1.44678 2.11672 1.59971 1.81061 1.94076C1.55807 2.2237 1.44482 2.56016 1.44482 2.93485C1.44482 5.81464 1.44328 8.6929 1.44482 11.5727C1.44482 12.3022 1.90244 12.8757 2.60036 13.0286C2.71362 13.0531 2.83147 13.0608 2.94779 13.0608C5.82365 13.0623 8.69797 13.0623 11.5738 13.0623C12.4416 13.0623 13.0737 12.4291 13.0737 11.562C13.0753 9.67475 13.0737 7.78905 13.0722 5.90181C13.0722 5.82993 13.0936 5.78099 13.1441 5.73053C13.5773 5.30077 14.0089 4.86949 14.439 4.43668C14.4604 4.41527 14.4726 4.38774 14.4895 4.36175C14.4987 4.36786 14.5063 4.37245 14.5155 4.37857C14.517 4.40304 14.5216 4.42904 14.5216 4.45351C14.5216 6.98307 14.5247 9.51264 14.5201 12.0422C14.5186 12.891 14.1757 13.5746 13.4824 14.0732C13.1441 14.3179 12.76 14.4525 12.3437 14.4953C12.3115 14.4984 12.2794 14.506 12.2473 14.5121C8.92143 14.5167 5.59407 14.5167 2.26671 14.5167Z" transform="translate(0 0.483398)" fill="#EEEEEE"/>
<path opacity="0.54" d="M1.19687 5.83406e-09C1.42492 0.0229405 1.57797 0.165171 1.72949 0.318108C2.14886 0.740212 2.57281 1.15773 2.99524 1.57677C3.26614 1.84594 3.28604 2.20075 3.02738 2.48063C2.80086 2.72686 2.55598 2.95473 2.31109 3.1979C1.54889 2.42251 0.78822 1.65018 0.0290802 0.876326C0.0183665 0.882443 0.00918296 0.89009 -1.86832e-07 0.896207C0.0168356 0.876325 0.0336717 0.856444 0.052038 0.838091C0.218865 0.671391 0.391814 0.509278 0.55405 0.337989C0.713224 0.169759 0.887704 0.0321166 1.12647 5.83406e-09C1.14789 5.83406e-09 1.17238 5.83406e-09 1.19687 5.83406e-09Z" transform="translate(11.7896)" fill="#EEEEEE"/>
<path opacity="0.54" d="M9.34158e-08 5.03314C1.6698 3.37531 3.36562 1.68995 5.0691 -4.66725e-08C5.8313 0.775387 6.59044 1.54925 7.35876 2.33228C5.69049 3.98858 3.99314 5.67394 2.29119 7.36389C1.52899 6.58697 0.768323 5.81464 9.34158e-08 5.03314Z" transform="translate(6.35303 1.25537)" fill="#EEEEEE"/>
<path opacity="0.54" d="M0.929028 1.8669e-07C1.70041 0.783034 2.45343 1.55078 3.21104 2.32005C2.15804 2.61827 1.08667 2.92261 9.34158e-08 3.23155C0.309166 2.15334 0.615271 1.08891 0.929028 1.8669e-07Z" transform="translate(5.06763 6.63867)" fill="#EEEEEE"/>
</svg>
