<svg width="22" height="22" viewBox="0 0 22 22" version="1.1" xmlns="http://www.w3.org/2000/svg" xmlns:xlink="http://www.w3.org/1999/xlink">
<title>Union</title>
<desc>Created using Figma</desc>
<g id="Canvas" transform="translate(2090 5760)">
<g id="Union">
<use xlink:href="#path0_fill" transform="translate(-2090 -5760)" fill="#979797"/>
<use xlink:href="#path0_fill" transform="translate(-2090 -5760)" fill="#007CFF"/>
<use xlink:href="#path1_fill" transform="translate(-2090 -5760)" fill="#979797"/>
<use xlink:href="#path1_fill" transform="translate(-2090 -5760)" fill="#007CFF"/>
</g>
</g>
<defs>
<path id="path0_fill" d="M 9.68 11.44L 10.56 11.44L 10.56 10.56L 10.56 4.4L 10.56 3.52L 11.44 3.52L 11.44 4.4L 11.44 11.44L 11.44 12.32L 10.56 12.32L 6.16 12.32L 5.28 12.32L 5.28 11.44L 6.16 11.44L 9.68 11.44Z"/>
<path id="path1_fill" fill-rule="evenodd" d="M 11 22C 17.0751 22 22 17.0751 22 11C 22 4.92486 17.0751 0 11 0C 4.92486 0 0 4.92486 0 11C 0 17.0751 4.92486 22 11 22ZM 21.12 11C 21.12 16.5892 16.5892 21.12 11 21.12C 5.41084 21.12 0.88 16.5892 0.88 11C 0.88 5.41084 5.41084 0.88 11 0.88C 16.5892 0.88 21.12 5.41084 21.12 11Z"/>
</defs>
</svg>
