<svg width="53" height="53" viewBox="0 0 53 53" fill="none" xmlns="http://www.w3.org/2000/svg">
<g filter="url(#filter0_d)">
<path fill-rule="evenodd" clip-rule="evenodd" d="M26.5 45C38.9264 45 49 34.9264 49 22.5C49 10.0736 38.9264 0 26.5 0C14.0736 0 4 10.0736 4 22.5C4 34.9264 14.0736 45 26.5 45Z" fill="white"/>
<path fill-rule="evenodd" clip-rule="evenodd" d="M19.1875 16.5938C19.1875 17.3704 18.5579 18 17.7812 18C17.0046 18 16.375 17.3704 16.375 16.5938C16.375 15.8171 17.0046 15.1875 17.7812 15.1875C18.5579 15.1875 19.1875 15.8171 19.1875 16.5938ZM22.4219 15.75C21.8782 15.75 21.4375 16.1907 21.4375 16.7344C21.4375 17.278 21.8782 17.7188 22.4219 17.7188H35.6406C36.1843 17.7188 36.625 17.278 36.625 16.7344C36.625 16.1907 36.1843 15.75 35.6406 15.75H22.4219ZM17.7812 24.1875C18.5579 24.1875 19.1875 23.5579 19.1875 22.7812C19.1875 22.0046 18.5579 21.375 17.7812 21.375C17.0046 21.375 16.375 22.0046 16.375 22.7812C16.375 23.5579 17.0046 24.1875 17.7812 24.1875ZM19.1875 28.4062C19.1875 29.1829 18.5579 29.8125 17.7812 29.8125C17.0046 29.8125 16.375 29.1829 16.375 28.4062C16.375 27.6296 17.0046 27 17.7812 27C18.5579 27 19.1875 27.6296 19.1875 28.4062ZM21.4375 22.6406C21.4375 22.097 21.8782 21.6562 22.4219 21.6562H35.6406C36.1843 21.6562 36.625 22.097 36.625 22.6406C36.625 23.1843 36.1843 23.625 35.6406 23.625H22.4219C21.8782 23.625 21.4375 23.1843 21.4375 22.6406ZM22.4219 27.5625C21.8782 27.5625 21.4375 28.0032 21.4375 28.5469C21.4375 29.0905 21.8782 29.5312 22.4219 29.5312H35.6406C36.1843 29.5312 36.625 29.0905 36.625 28.5469C36.625 28.0032 36.1843 27.5625 35.6406 27.5625H22.4219Z" fill="black"/>
</g>
<defs>
<filter id="filter0_d" x="0" y="0" width="53" height="53" filterUnits="userSpaceOnUse" color-interpolation-filters="sRGB">
<feFlood flood-opacity="0" result="BackgroundImageFix"/>
<feColorMatrix in="SourceAlpha" type="matrix" values="0 0 0 0 0 0 0 0 0 0 0 0 0 0 0 0 0 0 127 0"/>
<feOffset dy="4"/>
<feGaussianBlur stdDeviation="2"/>
<feColorMatrix type="matrix" values="0 0 0 0 0 0 0 0 0 0 0 0 0 0 0 0 0 0 0.25 0"/>
<feBlend mode="normal" in2="BackgroundImageFix" result="effect1_dropShadow"/>
<feBlend mode="normal" in="SourceGraphic" in2="effect1_dropShadow" result="shape"/>
</filter>
</defs>
</svg>
