<svg width="29" height="29" viewBox="0 0 29 29" fill="none" xmlns="http://www.w3.org/2000/svg">
<path fill-rule="evenodd" clip-rule="evenodd" d="M5.75 2.5H16.75V1.5H5.75V2.5ZM5.75 8.5H16.75V7.5H5.75V8.5ZM5.75 14.5H16.75V13.5H5.75V14.5ZM2.75 7.5L2.25 6L1.75 7.5H0L1.25 8.5L0.75 10.25L2.25 9.125L3.75 10.25L3.25 8.5L4.5 7.5H2.75ZM2.25 0L2.75 1.5H4.5L3.25 2.5L3.75 4.25L2.25 3.125L0.75 4.25L1.25 2.5L0 1.5H1.75L2.25 0ZM2.75 13.5L2.25 12L1.75 13.5H0L1.25 14.5L0.75 16.25L2.25 15.125L3.75 16.25L3.25 14.5L4.5 13.5H2.75Z" transform="translate(5.75 6)" fill="white"/>
<path fill-rule="evenodd" clip-rule="evenodd" d="M3 0C1.34326 0 0 1.34314 0 3V19C0 20.6569 1.34326 22 3 22H19C20.6567 22 22 20.6569 22 19V3C22 1.34314 20.6567 0 19 0H3ZM19 2H3C2.44775 2 2 2.44772 2 3V19C2 19.5523 2.44772 20 3 20H19C19.5523 20 20 19.5523 20 19V15V11.5625V3C20 2.44772 19.5522 2 19 2Z" transform="translate(3 3)" fill="white"/>
</svg>
