<svg width="27" height="27" viewBox="0 0 27 27" fill="none" xmlns="http://www.w3.org/2000/svg">
<path fill-rule="evenodd" clip-rule="evenodd" d="M17.732 22.3441L17.355 21.9421C17.263 21.8461 17.116 21.8441 17.0265 21.9371L14 25.0011L14 9.9956H12.9995L12.9995 25.131L9.7465 21.8776C9.658 21.7861 9.5125 21.7881 9.421 21.8831L9.0075 22.2786C8.916 22.3731 8.914 22.5246 9.003 22.6166L12.7698 26.3834C12.7768 26.4347 12.7996 26.4846 12.838 26.5246L13.215 26.9266C13.3075 27.0226 13.4545 27.0246 13.5435 26.9316L17.7375 22.6856C17.827 22.5926 17.824 22.4396 17.732 22.3441ZM22 1.4956L22 18.4956H16V19.4956H23L23 0.495602L4 0.495602L4 19.4956H11V18.4956H5L5 1.4956L22 1.4956Z" fill="#007AFF"/>
</svg>
