<svg width="49" height="49" viewBox="0 0 49 49" fill="none" xmlns="http://www.w3.org/2000/svg">
<g filter="url(#filter0_d)">
<path fill-rule="evenodd" clip-rule="evenodd" d="M26.0601 10.2387C25.9913 10.2291 25.9225 10.2199 25.8537 10.2113L25.6931 8.30835C25.6433 7.71922 25.487 7.70941 25.3432 8.27774L24.8764 10.1226C24.6531 10.1101 24.4306 10.103 24.2089 10.1012L23.817 8.22947C23.6959 7.6508 23.5396 7.66011 23.4661 8.24173L23.2278 10.1276C22.9979 10.1419 22.7691 10.1619 22.5417 10.1874L21.9587 8.37426C21.7777 7.81142 21.6232 7.83702 21.6109 8.42313L21.5709 10.3311C21.3514 10.3716 21.1335 10.4172 20.9172 10.4679L20.1166 8.73732C19.8684 8.20074 19.7181 8.24497 19.7774 8.82821L19.9701 10.7256C19.7572 10.7917 19.5463 10.8628 19.3375 10.9387L18.3304 9.31609C18.0186 8.81375 17.8749 8.87597 18.0048 9.44764L18.4271 11.3065C18.2238 11.397 18.0228 11.4924 17.8243 11.5923L16.6253 10.1024C16.2546 9.64183 16.1196 9.72109 16.3181 10.2727L16.9632 12.0645C16.772 12.1782 16.5835 12.2964 16.398 12.419L15.0252 11.0853C14.6012 10.6733 14.4768 10.7684 14.7411 11.2917L15.5982 12.9885C15.4159 13.1281 15.237 13.2722 15.0617 13.4207L13.5647 12.2437C13.0999 11.8783 12.9862 11.986 13.3037 12.4787L14.3357 14.08C14.1758 14.2358 14.0196 14.3954 13.8671 14.5588L12.2397 13.5742C11.7338 13.2681 11.634 13.3888 12.0093 13.8392L13.2244 15.2976C13.0835 15.4715 12.9466 15.649 12.8139 15.8299L11.0815 15.0522C10.5421 14.8101 10.4577 14.9421 10.8851 15.3434L12.2636 16.6379C12.1439 16.8277 12.0285 17.0207 11.9177 17.2169L10.1064 16.6572C9.54158 16.4826 9.47393 16.6238 9.947 16.97L11.4677 18.083C11.3711 18.2861 11.2791 18.4921 11.192 18.7008L9.32831 18.3664C8.74639 18.2619 8.69646 18.4103 9.2082 18.6963L10.8484 19.613C10.7743 19.8328 10.7053 20.0552 10.6418 20.2803L8.76404 20.1432C8.17439 20.1002 8.14025 20.253 8.67908 20.484L10.4099 21.2258C10.3638 21.4465 10.3227 21.6694 10.2869 21.8943L8.40817 21.987C7.81767 22.0162 7.80241 22.172 8.36537 22.3356L10.1667 22.8589C10.1462 23.0866 10.1313 23.3136 10.122 23.5399L8.27316 23.8601C7.69062 23.9609 7.69447 24.1175 8.27316 24.2112L10.1154 24.5096C10.1218 24.739 10.1338 24.9674 10.1514 25.1945L8.36095 25.7359C7.79504 25.9071 7.81794 26.062 8.40375 26.0845L10.2594 26.1558C10.294 26.3903 10.3346 26.6232 10.3809 26.8543L8.66993 27.5744C8.12501 27.8038 8.16397 27.9555 8.74892 27.9166L10.6033 27.7934C10.6643 28.0162 10.7307 28.237 10.8024 28.4557L9.19482 29.3773C8.68191 29.6713 8.73907 29.8171 9.31493 29.7073L11.134 29.3603C11.2211 29.5747 11.3134 29.7867 11.4108 29.9961L9.92957 31.1053C9.45632 31.4597 9.53082 31.5974 10.089 31.4182L11.8463 30.854C11.9583 31.0571 12.0753 31.2574 12.1971 31.4545L10.8638 32.7342C10.4373 33.1436 10.528 33.2712 11.0602 33.0253L12.7295 32.254C12.865 32.443 13.0051 32.6287 13.1497 32.8109L11.9845 34.2409C11.611 34.6992 11.7167 34.8149 12.2149 34.5059L13.7712 33.541C13.9328 33.7182 14.099 33.8914 14.2697 34.0604L13.2677 35.593C12.9442 36.0879 13.0613 36.1919 13.5245 35.8325L14.972 34.7097C15.1493 34.8628 15.3306 35.0115 15.5158 35.1558L14.7101 36.795C14.4493 37.3256 14.5783 37.4145 14.9942 37.0014L16.2882 35.7164C16.483 35.8478 16.6814 35.9745 16.8833 36.0963L16.2848 37.8176C16.0906 38.376 16.2294 38.4485 16.5919 37.9878L17.7154 36.5602C17.9248 36.6677 18.1375 36.7702 18.3534 36.8674L17.9696 38.6464C17.8449 39.2244 17.9915 39.2795 18.2952 38.778L19.2337 37.2283C19.4545 37.3102 19.6783 37.3867 19.9048 37.4578L19.7407 39.2699C19.6874 39.8587 19.8396 39.8955 20.0799 39.3608L20.8212 37.7113C21.0563 37.7679 21.294 37.8186 21.5342 37.8634L21.5603 39.6743C21.5688 40.2655 21.7241 40.2862 21.9072 39.7292L22.4736 38.0064C22.7103 38.0344 22.9463 38.0563 23.1816 38.0722L23.428 39.8652C23.5085 40.4509 23.6651 40.4525 23.779 39.8774L24.1301 38.1042C24.3688 38.1042 24.6064 38.0981 24.8428 38.086L25.3053 39.8334C25.4566 40.4049 25.6122 40.3875 25.6552 39.8028L25.7871 38.0053C26.0243 37.9769 26.26 37.9425 26.494 37.9021L27.1657 39.5795C27.3855 40.1283 27.5378 40.092 27.5092 39.5064L27.4213 37.7095C27.6533 37.653 27.8833 37.5907 28.1111 37.5226L28.983 39.1069C29.268 39.6248 29.4148 39.5702 29.315 38.9925L29.009 37.2208C29.2382 37.135 29.4649 37.0433 29.6887 36.9459L30.7181 38.4255C31.0557 38.9109 31.196 38.8412 31.0364 38.2771L30.5443 36.5384C30.7557 36.4289 30.964 36.3141 31.1692 36.1941L32.3738 37.5402C32.7681 37.9808 32.8988 37.8945 32.6716 37.3541L31.9714 35.6882C32.1679 35.5547 32.3611 35.4163 32.5506 35.2732L33.9131 36.4649C34.3582 36.8541 34.4774 36.7526 34.1861 36.2439L33.2881 34.676C33.4674 34.5206 33.6427 34.3606 33.814 34.1961L35.3143 35.2147C35.8035 35.5468 35.9094 35.4315 35.5583 34.9621L34.4763 33.5159C34.6358 33.3407 34.7909 33.1612 34.9416 32.9777L36.5576 33.8074C37.0836 34.0774 37.1747 33.95 36.769 33.5269L35.5191 32.2236C35.6601 32.0258 35.7962 31.8241 35.9272 31.6185L37.6162 32.2728C38.1675 32.4863 38.2448 32.3501 37.797 31.9717L36.4102 30.7998C36.523 30.5926 36.6308 30.3821 36.7335 30.1684L38.495 30.6133C39.0682 30.7581 39.1283 30.6135 38.6378 30.2925L37.116 29.2967C37.2029 29.0785 37.2846 28.8574 37.3609 28.6335L39.171 28.8614C39.7576 28.9352 39.7997 28.7844 39.2737 28.5255L37.6376 27.7205C37.6976 27.4948 37.7523 27.2666 37.8015 27.036L39.6349 27.0416C40.2261 27.0434 40.2495 26.8886 39.6959 26.6958L37.9692 26.0945L37.9754 26.0509C38.007 25.8264 38.033 25.6024 38.0537 25.379L39.8763 25.193C40.4644 25.133 40.4715 24.9766 39.9008 24.8427L38.1094 24.4225C38.115 24.1885 38.1148 23.9554 38.1088 23.7234L39.9007 23.3154C40.4772 23.1842 40.4652 23.028 39.8824 22.9647L38.0509 22.7658C38.0289 22.5337 38.001 22.3029 37.9676 22.0736L39.7027 21.4481C40.2589 21.2476 40.2279 21.0941 39.6417 21.1022L37.796 21.128C37.7466 20.9013 37.6918 20.6764 37.6315 20.4534L39.2848 19.6173C39.8124 19.3505 39.763 19.2019 39.1821 19.2815L37.348 19.5327C37.2726 19.3147 37.1918 19.099 37.1059 18.8856L38.6531 17.8489C39.1442 17.5198 39.077 17.3783 38.5102 17.5281L36.7145 18.0025C36.6115 17.7902 36.5032 17.5806 36.3898 17.3741L37.8207 16.1808C38.2747 15.8022 38.1931 15.6685 37.6451 15.8767L35.8947 16.5416C35.7715 16.3497 35.6436 16.1609 35.5112 15.9753L36.7922 14.61C37.1967 14.1788 37.0994 14.0561 36.5808 14.3295L34.9207 15.2048C34.7764 15.0295 34.6279 14.8576 34.4753 14.6894L35.5848 13.1719C35.9338 12.6947 35.8223 12.5847 35.3409 12.9193L33.7973 13.9922C33.6341 13.8356 33.467 13.6828 33.2961 13.534L34.2156 11.887C34.5038 11.3708 34.3797 11.2753 33.9427 11.666L32.5398 12.9204C32.3599 12.7846 32.1765 12.6529 31.9896 12.5255L32.7038 10.7734C32.9269 10.2259 32.7921 10.1462 32.406 10.5873L31.165 12.0048C30.9651 11.8882 30.7619 11.7763 30.5554 11.6693L31.0816 9.85508C31.2463 9.28726 31.1039 9.22209 30.766 9.70113L29.673 11.2506C29.4676 11.1619 29.2595 11.0779 29.0488 10.9987L29.3511 9.12693C29.4454 8.54327 29.2961 8.49594 29.0191 9.0126L28.1213 10.6869C27.9079 10.6235 27.6922 10.5648 27.4742 10.5112L27.5464 8.60891C27.5689 8.01812 27.4149 7.98934 27.2029 8.5359L26.5148 10.3101C26.3642 10.284 26.2126 10.2602 26.0601 10.2387ZM35.4777 25.6634C34.5937 31.9528 28.7786 36.3349 22.4891 35.451C16.1996 34.567 11.8176 28.7519 12.7015 22.4624C13.5854 16.1729 19.4006 11.7909 25.6901 12.6748C31.9795 13.5587 36.3616 19.3739 35.4777 25.6634Z" fill="white"/>
</g>
<path fill-rule="evenodd" clip-rule="evenodd" d="M23.7394 3.06565C23.8559 3.06375 23.9725 3.06279 24.0894 3.06279C24.3538 3.06279 24.617 3.06768 24.879 3.07736L25.4477 0.653147C25.646 -0.192517 25.8779 -0.182021 25.9668 0.689449L26.2199 3.16953C26.6002 3.20784 26.9774 3.2563 27.3514 3.31462L28.2111 0.978073C28.5111 0.162888 28.7399 0.201561 28.722 1.07737L28.6711 3.56406C29.0441 3.64707 29.4134 3.74 29.7786 3.84255L30.9168 1.62809C31.3138 0.855533 31.5363 0.921806 31.4117 1.78891L31.0587 4.24691C31.4268 4.37635 31.7901 4.51576 32.1485 4.66481L33.5062 2.59012C33.9818 1.86331 34.1961 1.95247 33.9816 2.8018L33.3709 5.22001C33.7129 5.38876 34.0496 5.56654 34.3807 5.75305L35.9838 3.85604C36.5445 3.19261 36.7463 3.30721 36.4299 4.12407L35.5293 6.44935C35.8483 6.65702 36.1614 6.87313 36.4682 7.09735L38.2942 5.4066C38.9315 4.81644 39.1178 4.95478 38.7043 5.727L37.5273 7.92447C37.8194 8.16794 38.1048 8.41919 38.3831 8.6779L40.4046 7.21998C41.1091 6.71189 41.2772 6.87192 40.7726 7.58797L39.3379 9.6238C39.5993 9.8997 39.8532 10.1827 40.0994 10.4724L42.2855 9.27068C43.0467 8.85224 43.194 9.03156 42.6059 9.68078L40.9365 11.5236C41.1686 11.835 41.3922 12.1529 41.6071 12.4772L43.8957 11.5152C44.6965 11.1786 44.8242 11.3724 44.1715 11.9566L42.3129 13.6199C42.5022 13.9495 42.6828 14.2848 42.8544 14.6253L45.2434 13.9494C46.0792 13.7129 46.1824 13.9207 45.4633 14.421L43.4197 15.8428C43.5686 16.1925 43.7082 16.547 43.8384 16.9061L46.2933 16.5261C47.1517 16.3933 47.2288 16.6121 46.4541 17.0211L44.2549 18.1819C44.361 18.5464 44.4575 18.9149 44.544 19.2873L47.0306 19.2092C47.8988 19.1819 47.9487 19.4086 47.1299 19.7201L44.806 20.6041C44.8679 20.9778 44.9199 21.3548 44.9618 21.7348L47.4449 21.9609C48.31 22.0396 48.3318 22.2707 47.4812 22.48L45.0666 23.0743C45.0817 23.4019 45.0894 23.7315 45.0894 24.0628C45.0894 24.1217 45.0892 24.1805 45.0887 24.2393L47.5264 24.722C48.3785 24.8908 48.3761 25.1228 47.5083 25.2421L45.0353 25.5821C45.008 25.9635 44.9706 26.342 44.9232 26.7175L47.2843 27.4938C48.1095 27.7651 48.0788 27.9952 47.2029 28.0078L44.7126 28.0438C44.6405 28.4193 44.5585 28.7912 44.4667 29.1593L44.4667 29.1593L46.7155 30.2175C47.5014 30.5874 47.443 30.812 46.5721 30.7178L44.1003 30.4504C43.9842 30.8145 43.8584 31.1742 43.7233 31.5293L45.828 32.8548C46.5631 33.3177 46.4776 33.5335 45.6247 33.3338L43.2059 32.7677C43.0441 33.1224 42.8728 33.4718 42.6921 33.8156L44.6401 35.3486C45.3227 35.8858 45.2152 36.0914 44.3878 35.8038L42.0298 34.9839C41.8314 35.309 41.6245 35.6284 41.4092 35.9416L43.1594 37.7041C43.7714 38.3205 43.6397 38.5115 42.8535 38.1251L40.6134 37.0242C40.3784 37.3233 40.1355 37.6159 39.885 37.9016L41.41 39.8677C41.9424 40.5541 41.7883 40.7276 41.0551 40.2483L38.9672 38.8835C38.699 39.1527 38.4235 39.4147 38.1411 39.6692L39.4166 41.809C39.8613 42.5551 39.6873 42.7086 39.0179 42.1435L37.1145 40.5365C36.8166 40.7724 36.5121 41.0003 36.2014 41.2201L37.2072 43.5005C37.5577 44.2952 37.3662 44.4264 36.7707 43.7839L35.0804 41.9603C34.7498 42.1638 34.413 42.3584 34.0705 42.5438L34.8286 44.9052C35.0942 45.7322 34.89 45.8426 34.3649 45.1414L32.8697 43.1447C32.5247 43.3037 32.1746 43.4537 31.8197 43.5943L32.2846 46.0316C32.4473 46.8848 32.2313 46.9695 31.7956 46.2096L30.5564 44.0482C30.1952 44.165 29.8298 44.2722 29.4603 44.3697L29.6249 46.8487C29.6825 47.7154 29.4577 47.7732 29.1178 46.9658L28.1516 44.6702H28.1516C27.7798 44.7431 27.4046 44.8061 27.0261 44.8591L26.887 47.3451C26.8385 48.2124 26.6084 48.2423 26.3695 47.3995L25.69 45.0027C25.3132 45.0311 24.9336 45.0496 24.5515 45.0578L24.1095 47.5137C23.9557 48.3686 23.7236 48.3702 23.5892 47.5046L23.2072 45.0446C22.817 45.0285 22.4295 45.0017 22.0451 44.9646L21.3521 47.3499C21.1097 48.184 20.8787 48.1614 20.8355 47.2864L20.7124 44.7927C20.3352 44.7317 19.9614 44.6607 19.5912 44.5799L18.6127 46.8628C18.2705 47.6612 18.044 47.6106 18.1078 46.7369L18.2891 44.2515C17.922 44.1462 17.559 44.0312 17.2005 43.9067L15.9503 46.0546C15.5133 46.8054 15.2947 46.7275 15.4644 45.8681L15.9468 43.4258C15.5953 43.2778 15.2486 43.1205 14.9071 42.9542L13.4022 44.9367C12.877 45.6286 12.6695 45.5247 12.9427 44.6924L13.719 42.3277C13.388 42.1394 13.0626 41.9423 12.7432 41.7368L12.7432 41.7368L11.0044 43.5248C10.3988 44.1475 10.2055 44.0191 10.5781 43.2263L11.6367 40.9739C11.324 40.7433 11.018 40.5043 10.719 40.2571L8.80885 41.8484C8.1415 42.4044 7.96265 42.2565 8.41609 41.507L9.71027 39.3678C9.43354 39.1077 9.16387 38.8402 8.90156 38.5656L6.80899 39.9141C6.07885 40.3846 5.91937 40.216 6.46076 39.5273L8.00417 37.5641C7.75993 37.2734 7.52343 36.976 7.29498 36.6722L5.05227 37.7563C4.27023 38.1344 4.13248 37.9476 4.75377 37.33L6.52177 35.5727C6.31337 35.2552 6.11335 34.9318 5.92201 34.6027L3.56346 35.4056C2.74117 35.6855 2.62722 35.4833 3.31913 34.9461L5.28431 33.4203C5.11488 33.0804 4.95439 32.7353 4.80315 32.3853L2.36353 32.895C1.51326 33.0726 1.4248 32.858 2.17703 32.4091L4.31039 31.136C4.17983 30.771 4.0591 30.4013 3.9485 30.0272L1.47912 30.278C0.614947 30.3657 0.549391 30.1431 1.34443 29.7753L3.60934 28.7275C3.52556 28.3581 3.45151 27.985 3.38749 27.6085L0.901141 27.5563C0.0327137 27.5381 -0.0052219 27.3092 0.828713 27.041L3.20475 26.2769H3.20475C3.16537 25.9011 3.1359 25.5223 3.11661 25.1408L0.649612 24.7853C-0.210123 24.6614 -0.219873 24.4295 0.640529 24.2649L3.09108 23.7963C3.09583 23.4143 3.11078 23.0348 3.13566 22.658L0.728104 22.0038C-0.110122 21.7761 -0.0915406 21.5447 0.782502 21.4863L3.26691 21.3201C3.31739 20.9331 3.3784 20.5494 3.44966 20.1693L3.44966 20.1693L1.1359 19.2718C0.326077 18.9577 0.368738 18.7295 1.2441 18.7628L3.73957 18.8574C3.83392 18.4875 3.93809 18.1215 4.05179 17.7597L1.86405 16.5865C1.09854 16.1761 1.16869 15.9548 2.03348 16.0945L4.49551 16.492C4.63307 16.1363 4.78005 15.7852 4.93612 15.4391L2.9052 14.0063C2.19542 13.5056 2.292 13.2946 3.13333 13.5386L5.52739 14.2329C5.70593 13.8965 5.89334 13.5654 6.08933 13.2402L4.24471 11.5675C3.60125 10.984 3.72283 10.7863 4.52815 11.1311L6.8194 12.1118C7.03607 11.7993 7.26101 11.4929 7.49389 11.1931L7.49389 11.1931L5.86375 9.30445C5.29619 8.64689 5.44096 8.4655 6.19827 8.90578L8.35203 10.1579C8.60915 9.86716 8.8742 9.58356 9.14684 9.30747L7.72829 7.26634C7.23257 6.55307 7.39551 6.3878 8.10265 6.90483L10.1218 8.38114C10.4052 8.12852 10.6955 7.88346 10.9924 7.64629L9.83241 5.446C9.42731 4.67763 9.60917 4.53345 10.248 5.13281L12.069 6.84115C12.3802 6.62353 12.6975 6.41412 13.0208 6.21325L12.1374 3.88766C11.829 3.07565 12.0271 2.9547 12.5881 3.62745L14.184 5.54103L14.184 5.54103C14.5188 5.36161 14.859 5.191 15.2044 5.02951L14.6109 2.61328C14.4038 1.76973 14.6151 1.67383 15.09 2.40993L16.4384 4.50011C16.792 4.36172 17.1502 4.23264 17.5128 4.11317L17.2181 1.64083C17.1153 0.778318 17.3367 0.708886 17.7183 1.49738L18.801 3.73431C19.176 3.63704 19.555 3.54988 19.9377 3.47312L19.9032 0.992106C19.8911 0.123572 20.1185 0.0776692 20.4157 0.901737L21.2629 3.25139C21.6377 3.20095 22.0158 3.16041 22.3967 3.13003L22.6653 0.657856C22.7591 -0.20568 22.9905 -0.223516 23.185 0.630619L23.7394 3.06565ZM26.6391 22.8578C25.5363 22.8209 24.181 21.8431 23.635 20.8888L17.2734 9.8703C16.5874 8.67147 17.3724 7.32854 18.4277 6.71929C19.1347 6.31109 21.4793 5.5668 24.5851 5.5693C33.3186 5.79901 40.5444 12.0813 42.2219 20.3756C42.3729 21.7634 41.1937 22.8742 39.9472 22.8556L26.6391 22.8578ZM15.2216 10.98L21.8 22.2902C22.3371 23.2535 22.3087 24.9925 21.7553 25.9426L15.3937 36.9611C14.6985 38.1546 12.9731 38.2893 11.9179 37.68C11.2158 37.2747 9.41967 35.637 7.87624 32.9796C6.41874 30.3351 5.58942 27.2958 5.58942 24.0628C5.58942 18.6093 7.93787 13.7332 11.692 10.3473C12.9049 9.66961 14.5896 9.84661 15.2216 10.98ZM42.022 27.6073C42.022 26.3888 41.0873 25.2014 39.7061 25.196H26.983C25.8835 25.1918 24.5254 25.9558 23.9598 26.9026L17.4541 38.2548C16.7435 39.4442 17.3088 40.9507 18.6878 41.6075C20.7649 42.7309 26.161 42.6878 30.3096 41.4911C33.4936 40.3546 36.2749 38.3704 38.3816 35.8102C41.1577 32.295 42.022 28.6522 42.022 27.6073ZM24.0894 25.0628C24.6417 25.0628 25.0894 24.6151 25.0894 24.0628C25.0894 23.5105 24.6417 23.0628 24.0894 23.0628C23.5371 23.0628 23.0894 23.5105 23.0894 24.0628C23.0894 24.6151 23.5371 25.0628 24.0894 25.0628Z" fill="white"/>
<defs>
<filter id="filter0_d" x="6.83789" y="6.80029" width="34.4887" height="34.5061" filterUnits="userSpaceOnUse" color-interpolation-filters="sRGB">
<feFlood flood-opacity="0" result="BackgroundImageFix"/>
<feColorMatrix in="SourceAlpha" type="matrix" values="0 0 0 0 0 0 0 0 0 0 0 0 0 0 0 0 0 0 127 0"/>
<feOffset/>
<feGaussianBlur stdDeviation="0.5"/>
<feColorMatrix type="matrix" values="0 0 0 0 0 0 0 0 0 0 0 0 0 0 0 0 0 0 0.2 0"/>
<feBlend mode="normal" in2="BackgroundImageFix" result="effect1_dropShadow"/>
<feBlend mode="normal" in="SourceGraphic" in2="effect1_dropShadow" result="shape"/>
</filter>
</defs>
</svg>
