<svg width="25" height="25" viewBox="0 0 25 25" version="1.1" xmlns="http://www.w3.org/2000/svg" xmlns:xlink="http://www.w3.org/1999/xlink">
<title>Rooms Icon</title>
<desc>Created using Figma</desc>
<g id="Canvas" transform="translate(2341 8806)">
<g id="Rooms Icon">
<use xlink:href="#path0_fill" transform="translate(-2340.5 -8805.22)" fill="#007AFF"/>
</g>
</g>
<defs>
<path id="path0_fill" fill-rule="evenodd" d="M 22.481 0C 23.3197 0 24 0.680176 24 1.51904L 24 8.96777C 24 9.80664 23.3197 10.4868 22.481 10.4868L 10.4521 10.4868L 10.4521 22.481C 10.4521 23.3198 9.77173 24 8.93311 24L 1.51904 24C 0.680298 24 0 23.3198 0 22.481L 0 1.51904C 0 0.680176 0.680298 0 1.51904 0L 22.481 0ZM 22.9585 8.96777L 22.9585 1.51904C 22.9585 1.25537 22.7444 1.0415 22.4811 1.0415L 1.51904 1.0415C 1.25562 1.0415 1.04163 1.25537 1.04163 1.51904L 1.04163 22.481C 1.04163 22.7441 1.25562 22.9585 1.51904 22.9585L 8.93311 22.9585C 9.19653 22.9585 9.41052 22.7441 9.41052 22.481L 9.41052 10.4648C 9.41052 9.90186 9.86731 9.44531 10.4304 9.44531L 22.4811 9.44531C 22.7444 9.44531 22.9585 9.23096 22.9585 8.96777ZM 13.0909 13.0908L 13.0909 22.9092L 13.0861 22.9092C 13.0883 22.9092 13.0909 22.9116 13.0909 22.9136L 13.0909 22.9092L 21.8269 22.9092C 22.4193 22.9092 22.9091 22.4204 22.9091 21.8267L 22.9091 13.0908L 22.9139 13.0908C 22.9117 13.0908 22.9091 13.0879 22.9091 13.0859L 22.9091 13.0908L 13.0909 13.0908ZM 13.0909 13.0908L 13.0861 13.0908C 13.0883 13.0908 13.0909 13.0879 13.0909 13.0859L 13.0909 13.0908ZM 13.0861 12C 12.4852 12 12 12.4863 12 13.0859L 12 22.9141C 12 23.5146 12.4862 24 13.0861 24L 21.8269 24C 23.0179 24 24 23.0269 24 21.8267L 24 13.0859C 24 12.4854 23.5138 12 22.9139 12L 13.0861 12Z"/>
</defs>
</svg>
