<svg width="42" height="31" viewBox="0 0 42 31" fill="none" xmlns="http://www.w3.org/2000/svg">
<path fill-rule="evenodd" clip-rule="evenodd" d="M16.8 0H25.2C34.4778 0 42 6.40625 42 14.3076V16.6924C42 24.5947 34.4778 31 25.2 31H16.8C7.52222 31 0 24.5947 0 16.6924V14.3076C0 6.40625 7.52222 0 16.8 0ZM22.5686 22H21.3118L22.0325 18.458H19.1497L18.429 22H17.1809L17.8928 18.458H15.8362L16.0823 17.1924H18.1653L18.8069 13.9932H16.636L16.8909 12.7363H19.0618L19.7737 9.31738H21.0217L20.3362 12.7363H23.2014L23.9133 9.31738H25.1702L24.467 12.7363H26.6555L26.4094 13.9932H24.2034L23.5442 17.1924H25.8381L25.592 18.458H23.2893L22.5686 22ZM20.0549 13.9756L19.3958 17.2188H22.2961L22.9553 13.9756H20.0549Z" fill="#8A8A8F"/>
</svg>
