<svg width="42" height="31" viewBox="0 0 42 31" fill="none" xmlns="http://www.w3.org/2000/svg">
<path fill-rule="evenodd" clip-rule="evenodd" d="M16.8 0H25.2C34.4778 0 42 6.40625 42 14.3076V16.6924C42 24.5947 34.4778 31 25.2 31H16.8C7.52222 31 0 24.5947 0 16.6924V14.3076C0 6.40625 7.52222 0 16.8 0ZM15.1985 20.8057C16.6641 22.2686 18.6184 23 20.6946 23C22.6489 23 24.603 22.2686 26.0686 20.8057C27.5344 19.3428 28.2671 17.3921 28.2671 15.3198V14.7104C28.2671 14.6045 28.2466 14.5083 28.2083 14.4258C28.1672 14.3369 28.106 14.2632 28.0281 14.2085C27.9675 14.166 27.8967 14.1353 27.8179 14.1177C27.7673 14.1064 27.7134 14.1006 27.6565 14.1006C27.4946 14.1006 27.3567 14.1484 27.2532 14.2329C27.1221 14.3398 27.0459 14.5063 27.0459 14.7104V15.3198C27.0459 17.0264 26.313 18.6113 25.0916 19.8301C23.9924 21.0493 22.4045 21.7808 20.6946 21.7808C17.1526 21.6587 14.3435 18.855 14.3435 15.3198C14.3435 13.7349 14.9541 12.0283 16.1755 10.9312C17.397 9.7124 18.9846 8.98096 20.6946 8.98096C21.5496 8.98096 22.4045 9.22461 23.2595 9.59033C23.4143 9.64209 23.5691 9.6499 23.7056 9.61426C23.8918 9.56592 24.0439 9.43604 24.1145 9.22461C24.2366 8.98096 24.1145 8.49316 23.748 8.37109C22.771 8.00537 21.7939 7.76172 20.6946 7.76172C18.6184 7.76172 16.6641 8.49316 15.1985 9.95605C13.855 11.4189 13 13.3691 13 15.3198C13 17.3921 13.7329 19.3428 15.1985 20.8057ZM20.6946 16.0513C20.4504 16.0513 20.3281 15.9297 20.2061 15.8076L18.1296 13.7354C17.8855 13.4912 17.8855 13.1255 18.1296 12.7598C18.374 12.5161 18.7405 12.5161 18.9846 12.7598L20.6946 14.4668L27.9006 7.27441C28.145 6.90869 28.5115 6.90869 28.7556 7.27441C29 7.396 29 7.51807 29 7.64014C29 7.88379 29 8.00586 28.7556 8.12744L21.061 15.8076C20.939 15.9297 20.8167 16.0513 20.6946 16.0513ZM20.2061 18.8555C20.3281 18.9775 20.4504 18.9775 20.6946 18.9775C20.8167 18.9775 20.939 18.9775 21.061 18.8555L28.7556 11.1758C29 11.0537 29 10.8101 29 10.688C29 10.5659 29 10.3223 28.7556 10.2002C28.5115 9.95654 28.145 9.95654 27.9006 10.2002L20.6946 17.5146L18.9846 15.8081C18.7405 15.5645 18.374 15.5645 18.1296 15.8081C17.9695 15.9678 17.9143 16.1802 17.9644 16.4102C17.9905 16.5312 18.0457 16.6572 18.1296 16.7832L20.2061 18.8555Z" fill="#4CD964"/>
</svg>
