<svg width="42" height="31" viewBox="0 0 42 31" fill="none" xmlns="http://www.w3.org/2000/svg">
<path fill-rule="evenodd" clip-rule="evenodd" d="M25.2 0H16.8C7.5222 0 0 6.40627 0 14.3077V16.6923C0 24.5949 7.5222 31 16.8 31H25.2C34.4778 31 42 24.5949 42 16.6923V14.3077C42 6.40627 34.4778 0 25.2 0ZM20.6947 22.9998C18.6183 22.9998 16.6641 22.2684 15.1985 20.8055C13.7328 19.3427 13 17.3922 13 15.3198C13 13.3693 13.855 11.4189 15.1985 9.956C16.6641 8.49315 18.6183 7.76172 20.6947 7.76172C21.7939 7.76172 22.771 8.00553 23.7481 8.37124C24.1145 8.49315 24.2366 8.98077 24.1145 9.22458C23.9924 9.59029 23.626 9.71219 23.2595 9.59029C22.4046 9.22458 21.5496 8.98077 20.6947 8.98077C18.9847 8.98077 17.3969 9.71219 16.1756 10.9312C14.9542 12.0284 14.3435 13.7351 14.3435 15.3198C14.3435 18.8551 17.1527 21.6589 20.6947 21.7808C22.4046 21.7808 23.9924 21.0493 25.0916 19.8303C26.313 18.6112 27.0458 17.0265 27.0458 15.3198V14.7103C27.0458 14.3446 27.2901 14.1008 27.6565 14.1008C28.0229 14.1008 28.2672 14.3446 28.2672 14.7103V15.3198C28.2672 17.3922 27.5343 19.3427 26.0687 20.8055C24.6031 22.2684 22.6489 22.9998 20.6947 22.9998ZM26.218 13.0227C26.2193 12.7022 26.5174 12.4657 26.8298 12.5373L28.732 12.9734L28.9554 11.9987L27.0532 11.5626C26.1163 11.3478 25.2219 12.0574 25.218 13.0186L25.2101 14.9701L26.2101 14.9742L26.218 13.0227Z" fill="#FFCC00"/>
</svg>
