<svg width="42" height="31" viewBox="0 0 42 31" fill="none" xmlns="http://www.w3.org/2000/svg">
<path fill-rule="evenodd" clip-rule="evenodd" d="M25.2 0H16.8C7.5222 0 0 6.40627 0 14.3077V16.6923C0 24.5949 7.5222 31 16.8 31H25.2C34.4778 31 42 24.5949 42 16.6923V14.3077C42 6.40627 34.4778 0 25.2 0ZM28.4626 21.6471C28.454 21.5783 28.4369 21.5096 28.4154 21.4494C28.252 20.826 27.8823 19.691 27.7146 19.1837C27.6974 19.0934 27.6673 19.0117 27.6286 18.9301V18.9257C27.5254 18.7065 27.3577 18.5217 27.1514 18.3969C27.1385 18.3883 27.1127 18.3754 27.0783 18.3582C27.0718 18.354 27.0643 18.3508 27.0568 18.3475C27.0493 18.3443 27.0418 18.3411 27.0353 18.3368C26.6268 18.1433 25.3758 17.6446 25.3758 17.6446C24.7481 17.3737 24.1032 17.1416 23.4411 16.9094C23.3251 17.3995 22.203 20.6626 22.0224 21.114L21.8805 18.0831C21.9227 18.0179 21.9546 17.9458 21.9855 17.8761L21.9966 17.8509L22.4652 16.9266C22.1342 17.2018 21.644 17.3737 21.0894 17.3737C20.552 17.3737 20.0662 17.2061 19.7395 16.9438L20.1953 17.8509C20.2081 17.8767 20.2201 17.9029 20.232 17.9292L20.232 17.9293C20.2559 17.9818 20.2798 18.0344 20.3113 18.0831L20.1695 21.114C19.9932 20.6626 18.8711 17.3995 18.7507 16.9094C18.0887 17.1459 17.4395 17.378 16.8161 17.6446C16.8161 17.6446 15.565 18.1433 15.1566 18.3368C15.1501 18.3411 15.1426 18.3443 15.135 18.3476C15.1275 18.3508 15.12 18.354 15.1136 18.3582C15.0792 18.3754 15.0534 18.3883 15.0405 18.3969C14.8342 18.5216 14.6665 18.7065 14.5633 18.9257V18.9301C14.5246 19.0117 14.4988 19.0977 14.4773 19.1837C14.3097 19.691 13.9399 20.826 13.7766 21.4494C13.7551 21.5139 13.7379 21.5783 13.7293 21.6471C13.7207 21.7073 13.7164 21.7676 13.7164 21.832C13.7164 22.4984 14.2581 23.0401 14.9245 23.0401H27.2631C27.9295 23.0401 28.4712 22.4984 28.4712 21.832C28.4798 21.7676 28.4712 21.7073 28.4626 21.6471ZM24.2765 10.6576L24.2765 10.6576C24.2653 10.9111 24.2534 11.1778 24.2534 11.2906C24.2617 11.2911 24.2769 11.2896 24.2975 11.2875C24.4704 11.2706 25.0195 11.2169 24.9542 11.9699C24.8045 13.6401 24.1984 13.4348 24.1091 13.4046L24.1052 13.4033C24.1018 13.4022 24.0996 13.4015 24.0986 13.4015C23.7633 14.4763 23.2431 15.1642 22.7315 15.5984C21.9448 16.2691 21.1795 16.3421 21.1666 16.3421H21.1021H21.0376C21.0247 16.3421 20.2552 16.2691 19.4641 15.5898C18.9568 15.1513 18.4409 14.4677 18.1056 13.3972C18.1051 13.3972 18.1043 13.3974 18.103 13.3978L18.097 13.3999C18.0157 13.4289 17.4004 13.6482 17.25 11.9656C17.1847 11.2168 17.7334 11.2706 17.9065 11.2875C17.9272 11.2895 17.9425 11.2911 17.9508 11.2906C17.9508 11.1778 17.939 10.9111 17.9277 10.6576L17.9277 10.6576L17.9277 10.6574C17.9175 10.4279 17.9078 10.2093 17.9078 10.1255C17.9078 8.40154 19.305 7 21.0333 7H21.0376H21.042H21.1021H21.1623H21.1666H21.1709C22.8949 7 24.2964 8.39724 24.2964 10.1255C24.2964 10.2093 24.2867 10.4279 24.2765 10.6574L24.2765 10.6576ZM12.7446 21.5794C12.7483 21.538 12.7619 21.4639 12.771 21.4142L12.7746 21.3945C12.7839 21.339 12.7998 21.2856 12.816 21.2314L12.8272 21.1934L12.8348 21.1666C13.0197 20.5476 13.3335 19.5115 13.5313 18.9139C13.5614 18.7935 13.6001 18.6731 13.6517 18.557L13.785 18.1744C13.355 18.0025 12.9165 17.8434 12.4694 17.6843C12.3662 18.1143 11.3903 20.956 11.2355 21.3516L11.1109 18.7076C11.1405 18.663 11.162 18.6164 11.1838 18.5692C11.1936 18.5481 11.2034 18.5268 11.214 18.5055L11.6225 17.6972C11.3344 17.938 10.9045 18.0885 10.423 18.0885C9.95438 18.0885 9.53306 17.9423 9.24501 17.7145L9.64484 18.5055C9.65546 18.5267 9.66526 18.548 9.675 18.5691C9.6968 18.6164 9.7183 18.663 9.74802 18.7076L9.62334 21.3516C9.46857 20.956 8.48836 18.1143 8.38947 17.6843L8.33752 17.7029C7.77927 17.9029 7.2296 18.0997 6.70419 18.3249C6.70419 18.3249 5.6122 18.7634 5.25966 18.9268C5.25325 18.9289 5.24683 18.9321 5.24041 18.9354C5.23393 18.9386 5.22745 18.9418 5.22097 18.944C5.20586 18.9526 5.19292 18.9591 5.18214 18.9645C5.17146 18.9698 5.1629 18.9741 5.15648 18.9784C4.97592 19.0858 4.82974 19.2492 4.73946 19.4384V19.4427C4.70507 19.5115 4.68357 19.5888 4.66637 19.6662C4.5202 20.1091 4.19776 21.0979 4.05589 21.6396C4.03869 21.6954 4.0215 21.7556 4.0129 21.8115C4.0043 21.8631 4 21.919 4 21.9706C4 22.551 4.47291 23.0239 5.0533 23.0239H6.05931H10.3757H10.4316H10.4875H13.0971C12.8692 22.6756 12.7317 22.2629 12.7317 21.8158C12.7317 21.747 12.7317 21.6611 12.7446 21.5794ZM8.9987 16.5446C8.55588 16.1663 8.10447 15.5687 7.81212 14.6358C7.81114 14.6358 7.8083 14.6367 7.80377 14.6383C7.72884 14.6636 7.19405 14.8443 7.06837 13.3847C7.01081 12.7324 7.49088 12.7787 7.64063 12.7932C7.65867 12.7949 7.67192 12.7962 7.67885 12.7957C7.67885 12.6992 7.6683 12.469 7.65822 12.249L7.65821 12.249C7.64899 12.0478 7.64016 11.8551 7.64016 11.7811C7.64016 10.2764 8.86113 9.05542 10.3658 9.05542H10.3701H10.3744H10.426H10.4776H10.4819H10.4862C11.9909 9.05542 13.2119 10.2764 13.2119 11.7811C13.2119 11.855 13.2041 12.0477 13.1959 12.2489V12.2489L13.1959 12.249L13.1958 12.2491L13.1958 12.2492C13.1869 12.4691 13.1775 12.6992 13.1775 12.7957C13.1844 12.7962 13.1977 12.7949 13.2157 12.7932C13.3655 12.7787 13.8455 12.7324 13.788 13.3847C13.6583 14.8478 13.1236 14.6642 13.0484 14.6383C13.0438 14.6368 13.0409 14.6358 13.0399 14.6358C12.7433 15.5773 12.2919 16.1749 11.8448 16.5532C11.1569 17.1379 10.4948 17.2024 10.4819 17.2024H10.426H10.3701C10.3615 17.2024 9.69087 17.1379 8.9987 16.5446ZM38.1826 20.9235C38.174 20.8247 38.1611 20.7258 38.1482 20.6312C38.1482 20.6312 38.0923 20.3131 38.0794 20.2658C37.9547 19.7112 37.6065 19.3027 37.1379 18.9846C37.0519 18.9244 36.9616 18.8728 36.867 18.8255C36.7467 18.761 34.9153 18.1592 34.8679 18.1463C34.8808 18.2107 34.8851 18.2795 34.8894 18.3526C35.1431 18.5332 35.8954 19.1781 35.5558 20.3861C35.5558 20.3861 35.0184 19.7456 34.4681 19.6596C33.9436 20.571 33.0537 21.7275 32.5722 22.0327C32.0906 21.7275 31.2007 20.5753 30.6762 19.6596C30.1259 19.7413 29.5885 20.3861 29.5885 20.3861C29.2488 19.1781 29.9969 18.5332 30.2548 18.3526C30.2591 18.2795 30.2634 18.2064 30.2763 18.1463C30.2662 18.15 30.1662 18.1831 30.0158 18.2327L30.0154 18.2329C29.6531 18.3525 28.9987 18.5685 28.604 18.7052C28.6298 18.7739 28.6513 18.847 28.6684 18.9158C28.8662 19.5134 29.2015 20.5452 29.3649 21.1685C29.3735 21.1943 29.438 21.4781 29.4552 21.5813C29.4681 21.663 29.4681 21.7489 29.4681 21.8307C29.4681 22.2777 29.3348 22.6905 29.1027 23.0387H32.5765H36.8069C37.2282 23.0387 37.585 22.9098 37.8817 22.5959C38.1138 22.3509 38.1783 22.0542 38.1955 21.7361C38.1998 21.6802 38.2041 21.4394 38.2041 21.4394C38.2041 21.4394 38.1826 20.9279 38.1826 20.9235ZM29.3228 15.6172C29.3271 15.4753 29.297 15.3291 29.254 15.17C29.2153 15.0196 29.168 14.8734 29.1035 14.7186C28.8799 14.2285 28.7595 13.6868 28.7595 13.115C28.7595 10.9869 30.4491 9.25866 32.5514 9.21997H32.5557H32.56C34.6623 9.25866 36.3519 10.9869 36.3519 13.115C36.3519 13.6868 36.2273 14.2285 36.008 14.7186C35.9865 14.7939 35.9639 14.8691 35.9413 14.9443C35.9188 15.0196 35.8962 15.0948 35.8747 15.17C35.8317 15.3248 35.8059 15.4752 35.8059 15.6172C35.8059 15.6644 35.8102 15.7074 35.8188 15.7547C35.8487 15.861 36.025 16.1522 36.1234 16.3148C36.1523 16.3625 36.1745 16.3992 36.1842 16.4168C35.7057 16.9327 35.0742 17.0661 34.4455 17.1989C34.4246 17.2033 34.4037 17.2077 34.3829 17.2121C34.1937 17.2509 33.9959 17.2766 33.7896 17.3024C33.7251 17.3153 33.6563 17.3282 33.5875 17.3411L33.9186 18.3041C33.9186 18.3041 33.9272 19.7099 32.5686 20.5655H32.56C31.2015 19.7099 31.2101 18.3041 31.2101 18.3041L31.5412 17.3411C31.505 17.3343 31.47 17.3276 31.435 17.3208C31.4034 17.3147 31.3717 17.3085 31.3391 17.3024C31.1327 17.2766 30.9393 17.2508 30.7458 17.2121C30.7207 17.2068 30.6956 17.2015 30.6704 17.1962C30.0463 17.0646 29.4239 16.9334 28.9444 16.4168C28.9542 16.3993 28.9762 16.3627 29.0049 16.3149C29.1032 16.1515 29.2799 15.8579 29.3099 15.7547C29.3185 15.7117 29.3228 15.6645 29.3228 15.6172Z" fill="#8A8A8F"/>
</svg>
