<svg width="18" height="28" viewBox="0 0 18 28" fill="none" xmlns="http://www.w3.org/2000/svg">
<g filter="url(#filter0_d)">
<path d="M2 2C2 0.89543 2.89543 0 4 0H14C15.1046 0 16 0.895431 16 2V24L9 18L2 24V2Z" fill="#929292"/>
</g>
<path d="M7.67188 9.10352H8.74414C9.94531 9.10352 10.6895 9.71289 10.6895 10.6914C10.6895 11.6172 9.89844 12.2793 8.78516 12.2793C7.69531 12.2793 6.93359 11.6992 6.83984 10.7969H5.82031C5.89648 12.2441 7.08008 13.1992 8.79688 13.1992C10.4668 13.1992 11.7734 12.1152 11.7734 10.7207C11.7734 9.56641 11.0762 8.76953 9.92773 8.62305V8.5293C10.8535 8.30664 11.4102 7.56836 11.4102 6.56055C11.4102 5.33008 10.2324 4.3457 8.75586 4.3457C7.14453 4.3457 6.0957 5.24805 5.99023 6.71289H7.01562C7.10352 5.80469 7.74219 5.26562 8.71484 5.26562C9.6875 5.26562 10.3379 5.83984 10.3379 6.70117C10.3379 7.58008 9.6582 8.20117 8.69727 8.20117H7.67188V9.10352Z" fill="white"/>
<defs>
<filter id="filter0_d" x="0" y="0" width="18" height="28" filterUnits="userSpaceOnUse" color-interpolation-filters="sRGB">
<feFlood flood-opacity="0" result="BackgroundImageFix"/>
<feColorMatrix in="SourceAlpha" type="matrix" values="0 0 0 0 0 0 0 0 0 0 0 0 0 0 0 0 0 0 127 0"/>
<feOffset dy="2"/>
<feGaussianBlur stdDeviation="1"/>
<feColorMatrix type="matrix" values="0 0 0 0 0 0 0 0 0 0 0 0 0 0 0 0 0 0 0.25 0"/>
<feBlend mode="normal" in2="BackgroundImageFix" result="effect1_dropShadow"/>
<feBlend mode="normal" in="SourceGraphic" in2="effect1_dropShadow" result="shape"/>
</filter>
</defs>
</svg>
