<?xml version="1.0" encoding="utf-8"?>
<!-- Generator: Adobe Illustrator 19.0.0, SVG Export Plug-In . SVG Version: 6.00 Build 0)  -->
<svg version="1.1" id="Слой_1" xmlns="http://www.w3.org/2000/svg" xmlns:xlink="http://www.w3.org/1999/xlink" x="0px" y="0px"
	 viewBox="0 0 177.3 46" style="enable-background:new 0 0 177.3 46;" xml:space="preserve">
<style type="text/css">
	.st0{fill:#4C79BB;}
</style>
<g>
	<path class="st0" d="M40.4,4.7H2.9c-0.3,0-0.6,0.3-0.6,0.6v37.4c0,0.3,0.2,0.6,0.6,0.6h37.4c0.3,0,0.6-0.3,0.6-0.6V5.2
		C40.9,4.9,40.7,4.7,40.4,4.7z M28.4,37.6c-1.7,0-2.5-0.4-3.6-1.6c-1.1-1.2-1.6-2.6-1.6-4.7c0-1.4,0.2-4.2,0.6-8.6l0.8-8.4h-6.2
		C18,21.4,17.6,26.6,17,29.9c-0.6,3.3-1.2,5.4-1.9,6.3c-0.7,1-1.6,1.4-2.8,1.4c-0.9,0-1.6-0.3-2.3-0.8c-0.6-0.5-0.9-1.2-0.9-2.1
		c0-0.8,0.5-1.9,1.6-3.3c1.5-2.1,2.7-4.2,3.4-6.4c0.8-2.2,1.3-5.8,1.7-10.6h-2c-1.6,0-2.8,0.4-3.7,1.1c-0.8,0.7-1.6,1.7-2.4,3h-1
		c0.6-2.1,1.3-3.8,2.2-5.1c0.9-1.3,1.8-2.2,2.8-2.6c0.9-0.4,2.6-0.6,5-0.6h18.6v4.3h-6.8l-0.6,8.9c-0.1,1.5-0.2,2.9-0.2,4
		c0,2.7,0.5,4.5,0.9,4.9c0.4,0.5,0.9,0.9,1.8,0.9c1.9,0,3.5-1.2,3.8-3.5h1C34.7,34.9,32,37.6,28.4,37.6z"/>
	<g>
		<path class="st0" d="M70.6,37.6h-4.1c-0.3,0-0.4-0.1-0.4-0.4V15c0-0.3-0.1-0.4-0.4-0.4h-8.2c-0.3,0-0.4,0.1-0.4,0.4v22.2
			c0,0.3-0.1,0.4-0.4,0.4h-4.2c-0.3,0-0.4-0.1-0.4-0.4V10.3c0-0.3,0.1-0.4,0.4-0.4h18.2c0.3,0,0.4,0.1,0.4,0.4v26.8
			C71,37.4,70.9,37.6,70.6,37.6z"/>
		<path class="st0" d="M93.3,18.1c0,4.5-3.3,7.8-8.2,7.8h-4c-0.3,0-0.4,0.1-0.4,0.4v10.8c0,0.3-0.1,0.4-0.4,0.4h-4.2
			c-0.3,0-0.4-0.1-0.4-0.4V10.3c0-0.3,0.1-0.4,0.4-0.4h9C90.1,9.9,93.3,13.1,93.3,18.1z M88.3,17.7c0-1.7-1.4-3.2-3.2-3.2h-4
			c-0.3,0-0.4,0.1-0.4,0.4v5.8c0,0.3,0.1,0.4,0.4,0.4h4c1.8,0,3.2-1.4,3.2-3.2V17.7z"/>
		<path class="st0" d="M106.5,38h-2.2c-5,0-8.2-3.1-8.2-7.8v-13c0-4.7,3.2-7.8,8.2-7.8h2.2c4.9,0,8.2,3.1,8.2,7.8v13
			C114.7,34.9,111.5,38,106.5,38z M109.7,17.2c0-1.8-1.4-3.2-3.1-3.2h-2.2c-1.8,0-3.2,1.4-3.2,3.2v13c0,1.8,1.4,3.2,3.2,3.2h2.2
			c1.8,0,3.1-1.4,3.1-3.2V17.2z"/>
		<path class="st0" d="M132.9,14.5h-4.8c-0.3,0-0.4,0.1-0.4,0.4v22.2c0,0.3-0.1,0.4-0.4,0.4h-4.1c-0.3,0-0.4-0.1-0.4-0.4V15
			c0-0.3-0.1-0.4-0.4-0.4h-4.8c-0.3,0-0.4-0.1-0.4-0.4v-3.7c0-0.3,0.1-0.4,0.4-0.4h15.5c0.3,0,0.4,0.1,0.4,0.4v3.7
			C133.3,14.4,133.2,14.5,132.9,14.5z"/>
		<path class="st0" d="M152.4,37.6h-15.5c-0.3,0-0.4-0.1-0.4-0.4V10.3c0-0.3,0.1-0.4,0.4-0.4h15.5c0.3,0,0.4,0.1,0.4,0.4v3.7
			c0,0.3-0.1,0.4-0.4,0.4H142c-0.3,0-0.4,0.1-0.4,0.4v5.8c0,0.3,0.1,0.4,0.4,0.4h8.6c0.3,0,0.4,0.1,0.4,0.4v3.7
			c0,0.3-0.1,0.4-0.4,0.4H142c-0.3,0-0.4,0.1-0.4,0.4v6.2c0,0.3,0.1,0.4,0.4,0.4h10.4c0.3,0,0.4,0.1,0.4,0.4v3.7
			C152.9,37.4,152.7,37.6,152.4,37.6z"/>
		<path class="st0" d="M156.5,37.1V10.3c0-0.3,0.2-0.4,0.4-0.4h4c0.3,0,0.4,0.1,0.4,0.4l-0.2,17.6l9-17.8l0.4-0.2h3.7
			c0.3,0,0.4,0.1,0.4,0.4v26.8c0,0.3-0.1,0.4-0.4,0.4h-4.1c-0.3,0-0.4-0.1-0.4-0.4l0.2-17.4l-9,17.6l-0.4,0.2H157
			C156.7,37.6,156.5,37.4,156.5,37.1z"/>
		<path class="st0" d="M171,3.4V2.5c0-0.3-0.1-0.4-0.4-0.4h-2.3c-0.3,0-0.4,0.1-0.4,0.4l0,0c0,0.7-0.5,1.2-1.2,1.2h-1.9
			c-0.7,0-1.3-0.6-1.3-1.2l0,0c0-0.3-0.1-0.4-0.4-0.4h-2.2c-0.3,0-0.4,0.1-0.4,0.4v0.8c0,2.5,1.7,4.2,4.4,4.2h1.9
			C169.3,7.5,171,5.8,171,3.4z"/>
	</g>
</g>
</svg>
