<svg width="16" height="27" viewBox="0 0 16 27" version="1.1" xmlns="http://www.w3.org/2000/svg" xmlns:xlink="http://www.w3.org/1999/xlink">
<g id="Canvas" fill="none">
<g id="Humidity-icon">
<g id="Layer x0020 1">
<g id="Vector">
<path d="M 4.68738 13.1137C 4.80634 12.8336 4.90152 12.6299 4.92531 12.4517C 4.94911 12.3753 5.02049 12.3498 4.9967 12.3498C 4.9729 12.3243 4.94911 12.3243 4.92531 12.3243C 4.92531 12.3243 4.92531 12.3243 4.90152 12.3498C 4.85393 12.4007 4.80634 12.4771 4.73496 12.579C 4.63979 12.7318 4.54461 12.9355 4.47323 13.1646C 4.37806 13.4193 4.30668 13.6994 4.23529 14.0049C 4.14012 14.3614 4.06874 14.7434 4.02115 15.0999L 4.04494 14.9726C 4.2115 14.2596 4.47323 13.623 4.68738 13.1137ZM 3.90218 16.2457C 3.87839 16.8314 3.87839 17.2897 3.94977 17.5698L 3.94977 17.5953C 3.97356 17.799 4.11632 18.13 4.30668 18.5374C 4.2115 18.2828 4.14012 18.0282 4.06874 17.7481L 4.02115 17.5189C 3.94977 17.086 3.90218 16.6531 3.90218 16.2457ZM 5.25843 20.1416C 5.32981 20.2435 5.40119 20.3454 5.47257 20.4472C 5.61533 20.6255 5.78189 20.8292 5.92465 20.9819C 6.06742 21.1093 6.21018 21.2366 6.32915 21.313C 6.40053 21.3639 6.44812 21.3894 6.4957 21.4148L 6.5195 21.3639C 6.5195 21.3639 6.5195 21.3384 6.4957 21.313C 6.44812 21.2366 6.32915 21.1347 6.18638 21.0329L 5.99603 20.8801L 5.99603 20.8546C 5.7581 20.6509 5.49636 20.4217 5.25843 20.1416ZM 2.97422 7.99555C 2.61732 8.68306 2.26041 9.37058 1.95109 10.0326C 1.64177 10.6947 1.35625 11.3313 1.11831 11.9169C 0.88037 12.5026 0.666226 13.0628 0.49967 13.5975C 0.333113 14.1068 0.214144 14.5906 0.118969 15.0235C 0.0475876 15.4309 0 15.8128 0 16.1693C 0 16.7805 0.0475876 17.3916 0.142763 17.9772C 0.261732 18.5629 0.404494 19.1486 0.594845 19.7088C 0.785195 20.269 1.02313 20.8037 1.28486 21.313C 1.57039 21.8222 1.9035 22.306 2.26041 22.7389C 2.61732 23.1718 2.99802 23.5792 3.42631 23.9103C 3.85459 24.2667 4.30668 24.5468 4.78255 24.8015C 5.25843 25.0306 5.7581 25.2089 6.25777 25.3362C 6.75744 25.4635 7.2571 25.5145 7.78057 25.5145C 8.32783 25.5145 8.82749 25.4635 9.32716 25.3362C 9.82683 25.2089 10.3265 25.0306 10.8024 24.8015C 11.2783 24.5468 11.7303 24.2667 12.1348 23.9103C 12.5631 23.5792 12.9676 23.1718 13.3245 22.7389C 13.6814 22.306 14.0145 21.8222 14.3001 21.313C 14.5618 20.8037 14.7997 20.269 14.9901 19.7088C 15.1804 19.1486 15.3232 18.5629 15.4422 17.9772C 15.5373 17.3916 15.5849 16.7805 15.5849 16.1693C 15.5849 15.8383 15.5373 15.4309 15.4422 15.0235C 15.3708 14.5906 15.2518 14.1068 15.0853 13.5975C 14.9187 13.0628 14.7046 12.5026 14.4666 11.9169C 14.2287 11.3567 13.9907 10.7965 13.7052 10.1854L 13.6338 10.0326C 13.3245 9.37058 12.9676 8.68306 12.5869 7.99555L 12.6107 7.99555C 12.23 7.25711 11.8017 6.51866 11.3734 5.78022C 10.9451 5.01631 10.4931 4.22695 10.0172 3.4885C 9.54131 2.69913 9.04164 1.93523 8.54197 1.17132L 7.94712 0.229172L 7.78057 0L 7.63781 0.229172L 7.04296 1.14586C 6.5195 1.93523 6.04362 2.69913 5.56775 3.46304C 5.09187 4.22695 4.63979 4.99085 4.2115 5.78022C 3.75942 6.51866 3.35492 7.25711 2.97422 7.99555ZM 6.54329 5.50012C 6.9002 4.889 7.2809 4.30334 7.63781 3.71767L 7.80436 3.46304L 7.94712 3.71767C 8.30403 4.27787 8.66094 4.889 9.04164 5.50012C 9.39855 6.08578 9.73166 6.67144 10.041 7.23164C 10.4217 7.89369 10.7548 8.53028 11.0879 9.14141C 11.3972 9.75253 11.7065 10.3382 11.9683 10.9239C 12.2538 11.5095 12.5155 12.0952 12.7297 12.6299C 12.9438 13.1392 13.1342 13.6485 13.2769 14.0813C 13.4197 14.5142 13.5387 14.8962 13.61 15.2527C 13.6814 15.6091 13.729 15.9147 13.729 16.1693C 13.729 16.6531 13.6814 17.1624 13.61 17.6208C 13.5149 18.1046 13.4197 18.5629 13.2531 19.0213C 13.1104 19.4796 12.92 19.887 12.7059 20.2944C 12.4679 20.7018 12.23 21.0838 11.9445 21.4148C 11.659 21.7459 11.3734 22.0514 11.0403 22.3315C 10.731 22.5861 10.3741 22.8153 10.0172 22.9936C 9.68407 23.1718 9.30337 23.2991 8.92267 23.401C 8.56576 23.4774 8.18506 23.5283 7.78057 23.5283C 7.39987 23.5283 7.01917 23.4774 6.66226 23.401C 6.28156 23.2991 5.90086 23.1718 5.54395 22.9936C 5.18705 22.8153 4.85393 22.5861 4.54461 22.3315C 4.2115 22.0514 3.92597 21.7459 3.64045 21.4148C 3.35492 21.0838 3.11699 20.7018 2.87905 20.2944C 2.6649 19.887 2.47455 19.4796 2.33179 19.0213C 2.16523 18.5629 2.04627 18.1046 1.97488 17.6208C 1.9035 17.1624 1.85592 16.6531 1.85592 16.1693C 1.85592 15.9147 1.9035 15.6091 1.97488 15.2527C 2.04627 14.8962 2.16523 14.5142 2.308 14.0813C 2.45076 13.6485 2.64111 13.1392 2.85525 12.6299C 3.0694 12.0697 3.33113 11.5095 3.61666 10.9239C 3.87839 10.3382 4.18771 9.75253 4.49703 9.14141C 4.83014 8.50482 5.18705 7.86823 5.54395 7.23164C 5.85327 6.67144 6.18638 6.08578 6.54329 5.50012Z" transform="translate(0.20752 0.771484)" fill="#8A8A8F"/>
</g>
<g id="Vector_2">
<path fill-rule="evenodd" clip-rule="evenodd" d="M 0.0673619 6.94442C 0.329094 8.29398 3.27952 13.6159 4.63577 11.426C 5.73028 9.64355 2.77985 9.97458 2.11363 6.46061C 1.42361 2.97211 4.27886 1.13873 2.66088 0.171118C 0.49565 -1.12752 -0.241957 5.34021 0.0673619 6.94442Z" transform="translate(3.3999 11.5498)" fill="#8A8A8F"/>
</g>
</g>
</g>
</g>
</svg>

