<svg width="27" height="24" viewBox="0 0 27 24" fill="none" xmlns="http://www.w3.org/2000/svg">
<path d="M1 12C1 18.0752 5.9248 23 12 23C14.8171 23 17.387 21.9409 19.333 20.1995L19.9734 20.968C17.8535 22.854 15.0605 24 12 24C5.37256 24 0 18.6274 0 12C0 5.37256 5.37256 0 12 0C18.6274 0 24 5.37256 24 12C24 12.2759 23.9907 12.5493 23.9724 12.8206L26.1465 10.6465C26.3418 10.4512 26.6582 10.4512 26.8535 10.6465C27.0488 10.8418 27.0488 11.1582 26.8535 11.3535L23.8535 14.3535L23.5261 14.6809L23.1746 14.3796L19.6746 11.3796C19.4648 11.2 19.4407 10.8843 19.6204 10.6746C19.8 10.4648 20.1157 10.4407 20.3254 10.6204L22.9651 12.8831C22.9883 12.5918 23 12.2971 23 12C23 5.9248 18.0752 1 12 1C5.9248 1 1 5.9248 1 12Z" fill="#FF9500"/>
<path fill-rule="evenodd" clip-rule="evenodd" d="M11 16H7.5V12H11H16V16H11ZM6.5 11H11V6H17V11V17H11H6.5V11ZM12 7H16V11H12V7Z" fill="#FF9500"/>
</svg>
