<svg width="29" height="29" viewBox="0 0 29 29" fill="none" xmlns="http://www.w3.org/2000/svg">
<path d="M4 1H25C26.6569 1 28 2.34315 28 4V25C28 26.6569 26.6569 28 25 28H4C2.34315 28 1 26.6569 1 25V4C1 2.34315 2.34315 1 4 1Z" fill="#FF3B30" stroke="white" stroke-width="2"/>
<path d="M5.46754 18H4.05641V10.9541H5.28687L8.57789 15.5439H8.61695V10.9541H10.0281V18H8.80738L5.51148 13.3857H5.46754V18ZM15.7128 16.7793V18H11.0448V10.9541H15.7128V12.1699H12.5195V13.8691H15.5321V15.002H12.5195V16.7793H15.7128ZM20.836 13.1855L19.4981 18H18.1065L16.2413 10.9541H17.7696L18.878 16.0566H18.9171L20.2354 10.9541H21.4805L22.7989 16.0566H22.838L23.9513 10.9541H25.4796L23.6095 18H22.2179L20.88 13.1855H20.836Z" fill="white"/>
</svg>
