<svg width="29" height="29" viewBox="0 0 29 29" fill="none" xmlns="http://www.w3.org/2000/svg">
<path d="M4 1H25C26.6569 1 28 2.34315 28 4V25C28 26.6569 26.6569 28 25 28H4C2.34315 28 1 26.6569 1 25V4C1 2.34315 2.34315 1 4 1Z" fill="#FF3B30" stroke="white" stroke-width="2"/>
<path d="M8.78297 18H7.30836V12.1699H5.24781V10.9541H10.8484V12.1699H8.78297V18ZM15.6689 12.7168C15.3271 12.2806 14.8681 12.0625 14.2919 12.0625C13.7157 12.0625 13.2551 12.2806 12.9101 12.7168C12.565 13.153 12.3941 13.7389 12.3974 14.4746C12.3974 15.2103 12.5683 15.7962 12.9101 16.2324C13.2486 16.6686 13.7076 16.8867 14.287 16.8867C14.8665 16.8867 15.3271 16.6686 15.6689 16.2324C16.0107 15.7962 16.1816 15.2103 16.1816 14.4746C16.1816 13.7389 16.0107 13.153 15.6689 12.7168ZM11.8066 11.8135C12.4185 11.1592 13.247 10.832 14.2919 10.832C15.3368 10.832 16.1653 11.1592 16.7773 11.8135C17.3892 12.4678 17.6936 13.3548 17.6904 14.4746C17.6904 15.5944 17.3844 16.4831 16.7724 17.1406C16.1571 17.7949 15.3287 18.1221 14.287 18.1221C13.2454 18.1221 12.4185 17.7949 11.8066 17.1406C11.1946 16.4831 10.8902 15.5944 10.8935 14.4746C10.8902 13.3548 11.1946 12.4678 11.8066 11.8135ZM19.9571 12.1211V14.626H21.0264C21.4496 14.626 21.7784 14.5169 22.0128 14.2988C22.2471 14.0807 22.3643 13.7715 22.3643 13.3711C22.3676 12.9674 22.252 12.6582 22.0177 12.4434C21.7833 12.2285 21.4545 12.1211 21.0313 12.1211H19.9571ZM18.4825 10.9541H21.422C22.1511 10.9541 22.7403 11.1755 23.1895 11.6182C23.6388 12.0576 23.8634 12.6387 23.8634 13.3613C23.8634 14.084 23.6306 14.6667 23.1651 15.1094C22.6996 15.5521 22.0942 15.7751 21.3487 15.7783H19.9571V18H18.4825V10.9541Z" fill="white"/>
</svg>
