<svg width="29" height="29" viewBox="0 0 29 29" fill="none" xmlns="http://www.w3.org/2000/svg">
<path d="M4 1H25C26.6569 1 28 2.34315 28 4V25C28 26.6569 26.6569 28 25 28H4C2.34315 28 1 26.6569 1 25V4C1 2.34315 2.34315 1 4 1Z" fill="#979797" stroke="white" stroke-width="2"/>
<path d="M8.84156 16.7793V18H4.2859V10.9541H5.76051V16.7793H8.84156ZM13.8183 12.7168C13.4765 12.2806 13.0175 12.0625 12.4413 12.0625C11.8652 12.0625 11.4045 12.2806 11.0595 12.7168C10.7144 13.153 10.5435 13.7389 10.5468 14.4746C10.5468 15.2103 10.7177 15.7962 11.0595 16.2324C11.398 16.6686 11.857 16.8867 12.4364 16.8867C13.0159 16.8867 13.4765 16.6686 13.8183 16.2324C14.1601 15.7962 14.331 15.2103 14.331 14.4746C14.331 13.7389 14.1601 13.153 13.8183 12.7168ZM9.95598 11.8135C10.568 11.1592 11.3964 10.832 12.4413 10.832C13.4862 10.832 14.3147 11.1592 14.9267 11.8135C15.5387 12.4678 15.843 13.3548 15.8398 14.4746C15.8398 15.5944 15.5338 16.4831 14.9218 17.1406C14.3066 17.7949 13.4781 18.1221 12.4364 18.1221C11.3948 18.1221 10.568 17.7949 9.95598 17.1406C9.344 16.4831 9.03964 15.5944 9.04289 14.4746C9.03964 13.3548 9.344 12.4678 9.95598 11.8135ZM20.6065 13.1855L19.2686 18H17.877L16.0118 10.9541H17.5401L18.6485 16.0566H18.6876L20.0059 10.9541H21.2511L22.5694 16.0566H22.6085L23.7218 10.9541H25.2501L23.38 18H21.9884L20.6505 13.1855H20.6065Z" fill="white"/>
</svg>
