<svg width="29" height="29" viewBox="0 0 29 29" fill="none" xmlns="http://www.w3.org/2000/svg">
<path d="M4 1H25C26.6569 1 28 2.34315 28 4V25C28 26.6569 26.6569 28 25 28H4C2.34315 28 1 26.6569 1 25V4C1 2.34315 2.34315 1 4 1Z" fill="#4CD964" stroke="white" stroke-width="2"/>
<path fill-rule="evenodd" clip-rule="evenodd" d="M23.5352 9.49951L16.2401 16.5993L13.4442 13.9289L12.0002 15.399L16.197 19.4995H16.215L25.0002 10.9396L23.5352 9.49951Z" fill="white"/>
<path fill-rule="evenodd" clip-rule="evenodd" d="M18.5351 9.49951L11.24 16.5993L8.44412 13.9289L7.00012 15.399L11.1969 19.4995H11.215L20.0001 10.9396L18.5351 9.49951Z" fill="white"/>
</svg>
