<svg width="18" height="18" viewBox="0 0 18 18" fill="none" xmlns="http://www.w3.org/2000/svg">
<path fill-rule="evenodd" clip-rule="evenodd" d="M9 18C13.9706 18 18 13.9706 18 9C18 4.02943 13.9706 0 9 0C4.02943 0 0 4.02943 0 9C0 13.9706 4.02943 18 9 18ZM17.28 9C17.28 13.5729 13.5729 17.28 9 17.28C4.42705 17.28 0.72 13.5729 0.72 9C0.72 4.42705 4.42705 0.72 9 0.72C13.5729 0.72 17.28 4.42705 17.28 9Z" fill="#979797"/>
<path d="M10 13C10 13.1313 9.9742 13.2613 9.92396 13.3827C9.87372 13.504 9.80007 13.6142 9.70721 13.7071C9.61435 13.8 9.50409 13.8736 9.38275 13.9239C9.26141 13.9741 9.13135 14 9 14C8.86865 14 8.73859 13.9741 8.61725 13.9239C8.49591 13.8736 8.38565 13.8 8.29279 13.7071C8.19993 13.6142 8.12628 13.504 8.07604 13.3827C8.0258 13.2613 7.99996 13.1313 8 13C7.99996 12.8687 8.0258 12.7387 8.07604 12.6173C8.12628 12.496 8.19993 12.3858 8.29279 12.2929C8.38565 12.2 8.49591 12.1264 8.61725 12.0761C8.73859 12.0259 8.86865 12 9 12C9.13135 12 9.26141 12.0259 9.38275 12.0761C9.50409 12.1264 9.61435 12.2 9.70721 12.2929C9.80007 12.3858 9.87372 12.496 9.92396 12.6173C9.9742 12.7387 10 12.8687 10 13Z" fill="#979797"/>
<path d="M8.00867 4.88436C7.93658 3.97178 8.32201 3.13459 8.86954 3.01445C9.41707 2.89431 9.91936 3.5367 9.99145 4.44928C10.0029 4.59368 10.0029 4.73995 9.99145 4.88436L9.50838 11H8.49174L8.00867 4.88436Z" fill="#979797"/>
</svg>
