<svg width="27" height="27" viewBox="0 0 27 27" fill="none" xmlns="http://www.w3.org/2000/svg">
<path fill-rule="evenodd" clip-rule="evenodd" d="M13.4839 16.247L12.5947 15.3585L22.2347 5.72656L23.1239 6.61506L13.4839 16.247ZM11.7383 14.5019L10.8491 13.6134L20.4881 3.98145L21.3773 4.86995L11.7383 14.5019ZM10.1216 17.2251L10.852 13.6108L13.4873 16.2452L10.1216 17.2251ZM24.6284 3.26223L23.7373 2.37172C23.243 1.87677 22.4543 1.87777 21.968 2.36469L21.0869 3.24516L23.7544 5.91167L24.6365 5.0312C25.1258 4.54027 25.1187 3.75216 24.6284 3.26223V3.26223ZM20.1095 24.003H3.0067V7.06428H15.927L16.9237 6.06836H2V25H21.1162V10.0872L20.1095 11.0932V24.003Z" fill="#007AFF"/>
</svg>
