<svg width="15" height="15" viewBox="0 0 15 15" fill="none" xmlns="http://www.w3.org/2000/svg">
<path d="M15 13.125C12.1324 13.125 11.7353 10.1719 11.3824 7.54688C10.9853 4.64063 10.6324 1.875 7.5 1.875C4.36765 1.875 4.01471 4.64063 3.61765 7.54688C3.26471 10.1719 2.86765 13.125 0 13.125V12.1875C2.02941 12.1875 2.33824 10.3594 2.73529 7.45312C3.13235 4.54687 3.61765 0.9375 7.5 0.9375C11.3824 0.9375 11.8676 4.54687 12.2647 7.45312C12.6618 10.3594 12.9706 12.1875 15 12.1875V13.125Z" fill="#007AFF"/>
<path d="M7.50007 15C6.26478 15 5.29419 13.9687 5.29419 12.6562H6.17654C6.17654 13.4531 6.75007 14.0625 7.50007 14.0625C8.25007 14.0625 8.8236 13.4531 8.8236 12.6562H9.70595C9.70595 13.9687 8.73537 15 7.50007 15Z" fill="#007AFF"/>
<path d="M0 12.1875H15V13.125H0V12.1875Z" fill="#007AFF"/>
<path d="M8.38238 0.9375C8.38238 1.45313 7.98532 1.64062 7.50003 1.64062C7.01473 1.64062 6.61768 1.45313 6.61768 0.9375C6.61768 0.421875 7.01473 0 7.50003 0C7.98532 0 8.38238 0.421875 8.38238 0.9375Z" fill="#007AFF"/>
</svg>
