<svg width="25" height="25" viewBox="0 0 25 25" fill="none" xmlns="http://www.w3.org/2000/svg">
<path d="M7.83993 9.01683L7.83994 9.01671C7.91812 7.05234 9.53394 5.5 11.5 5.5H12V5V4C12 3.7239 12.2239 3.5 12.5 3.5C12.7761 3.5 13 3.7239 13 4V5V5.5H13.5C15.4661 5.5 17.0819 7.05234 17.1601 9.01671L17.1601 9.01683L17.3549 13.8828C17.4449 16.1302 18.8831 18.0842 20.9687 18.8522C20.9827 18.8573 20.9921 18.8656 20.9969 18.8721C20.9991 18.875 20.9998 18.8769 21 18.8774V19.5H4V18.8774C4.00017 18.8769 4.00091 18.875 4.00306 18.8721C4.00786 18.8656 4.01733 18.8573 4.03135 18.8522C6.11689 18.0842 7.55512 16.1302 7.64511 13.8828L7.83993 9.01683ZM7.34035 8.99683L7.34037 8.99683L7.34035 8.99683ZM11.7543 21.1664C11.7086 21.1153 11.6681 21.0596 11.6337 21H12H13H13.3663C13.3319 21.0596 13.2914 21.1153 13.2457 21.1664C13.0616 21.372 12.7961 21.5 12.5 21.5C12.2039 21.5 11.9384 21.372 11.7543 21.1664Z" stroke="#929292"/>
</svg>
