<svg width="16" height="16" viewBox="0 0 16 16" fill="none" xmlns="http://www.w3.org/2000/svg">
<path d="M4 1H12C13.6569 1 15 2.34315 15 4V12C15 13.6569 13.6569 15 12 15H4C2.34315 15 1 13.6569 1 12V4C1 2.34315 2.34315 1 4 1Z" stroke="#979797" stroke-width="2"/>
<path d="M2.68982 8V4.32324H3.11463V8H2.68982ZM4.7192 7.646C4.96334 7.64437 5.1554 7.55892 5.29537 7.38965C5.43209 7.22038 5.50045 6.98438 5.50045 6.68164C5.50045 6.37891 5.43209 6.14372 5.29537 5.97607C5.15865 5.8068 4.9666 5.72217 4.7192 5.72217C4.4718 5.7238 4.27975 5.80924 4.14303 5.97852C4.00631 6.14779 3.93795 6.38298 3.93795 6.68408C3.93795 6.98519 4.00712 7.22038 4.14547 7.38965C4.28382 7.55892 4.47506 7.64437 4.7192 7.646ZM5.60299 7.66064C5.38326 7.90316 5.08867 8.02441 4.7192 8.02441C4.34973 8.02441 4.05514 7.90316 3.83541 7.66064C3.61568 7.41813 3.50582 7.09261 3.50582 6.68408C3.50582 6.27555 3.61568 5.95003 3.83541 5.70752C4.05514 5.46501 4.34973 5.34375 4.7192 5.34375C5.08867 5.34375 5.38326 5.46501 5.60299 5.70752C5.82271 5.95003 5.93258 6.27555 5.93258 6.68408C5.93258 7.09261 5.82271 7.41813 5.60299 7.66064ZM9.62943 5.36816L8.89213 8H8.46244L7.86186 5.9541H7.85209L7.2515 8H6.82182L6.08451 5.36816H6.50443L7.0391 7.51904H7.04887L7.65189 5.36816H8.06205L8.66508 7.51904H8.67484L9.20951 5.36816H9.62943Z" transform="translate(2 2)" fill="#979797"/>
</svg>
