<svg width="23" height="23" viewBox="0 0 14 14" fill="none" xmlns="http://www.w3.org/2000/svg">
    <path opacity="1" d="M11.41 0H2C0.9 0 0 0.9 0 2V12C0 13.1 0.9 14 2 14H12C13.1 14 14 13.1 14 12V2.59L11.41 0ZM3 1H7V3H9V1H10V4H3V1ZM3 13V9C3 8.45 3.45 8 4 8H9.98C10.53 8 10.98 8.45 10.98 9V13H3ZM13 12C13 12.55 12.55 13 12 13H11.98V9C11.98 7.9 11.08 7 9.98 7H4C2.9 7 2 7.9 2 9V13C1.45 13 1 12.55 1 12V2C1 1.45 1.45 1 2 1V5H11V1L13 3V12Z" fill="#FF9500"/>
    <path opacity="1" d="M6 1H0V0H6V1ZM4 2H0V3H4V2Z" transform="translate(4 9)" fill="#FF9500"/>
</svg>