<svg width="25" height="25" viewBox="0 0 25 25" version="1.1" xmlns="http://www.w3.org/2000/svg" xmlns:xlink="http://www.w3.org/1999/xlink">
<title>Action-icon</title>
<desc>Created using Figma</desc>
<g id="Canvas" transform="translate(1127 10138)">
<g id="Action-icon">
<g id="Layer x0020 1">
<g id="Vector">
<use xlink:href="#path0_fill" transform="translate(-1119.43 -10130.8)" fill="#FFFFFF"/>
</g>
<g id="Vector">
<use xlink:href="#path1_fill" transform="translate(-1121.38 -10134.1)" fill="#FFFFFF"/>
</g>
<g id="Vector">
<use xlink:href="#path2_fill" transform="translate(-1127 -10138)" fill="#FFFFFF"/>
</g>
</g>
</g>
</g>
<defs>
<path id="path0_fill" d="M 11.9234 5.99886L 6.43651 8.34929L 0.984821 10.6646C 0.633099 10.84 0.211033 10.6646 0.0703443 10.3138C 0.0351722 10.2086 0 10.1384 0 10.0332L 0 5.3674L 0 0.701621C 0 0.31573 0.31655 0 0.703443 0C 0.80896 0 0.914476 0.0350811 1.01999 0.0701621L 6.43651 2.38551L 11.9234 4.73594C 12.2751 4.87627 12.4509 5.29724 12.3103 5.64805C 12.2399 5.78838 12.0992 5.9287 11.9234 5.99886ZM 5.90892 7.05129L 9.91855 5.3674L 5.90892 3.64843L 1.40689 1.71897L 1.40689 5.3674L 1.40689 9.01583L 5.90892 7.05129Z"/>
<path id="path1_fill" d="M 16.2273 0.349904C 17.6694 1.96363 18.6542 3.92817 19.0763 5.99796C 19.7797 9.12017 19.2873 12.523 17.4232 15.3997C 15.5942 18.3114 12.7453 20.1707 9.65013 20.8723C 6.76601 21.5038 3.24879 20.9776 0.681223 19.5392C 0.435018 19.3638 0.188812 19.1534 0.0481237 18.8025C -0.092565 18.4517 0.0832959 18.0308 0.47019 17.9255C 0.540534 17.8904 0.610878 17.8904 0.681223 17.8554L 7.68048 15.2944C 8.03221 15.1892 8.4191 15.3646 8.55979 15.7154C 8.70048 16.0662 8.48944 16.4872 8.13772 16.5924L 2.475 18.6973C 4.65568 19.6796 7.08256 19.8901 9.33358 19.3989C 12.0418 18.8025 14.5742 17.1537 16.1922 14.5928C 17.8101 12.067 18.2321 9.08509 17.6342 6.31369C 17.2473 4.52455 16.4384 2.84066 15.2073 1.43742C 14.3984 0.490229 15.4184 -0.562203 16.2273 0.349904Z"/>
<path id="path2_fill" d="M 3.16863 20.7723C 1.72657 19.1586 0.741746 17.194 0.284508 15.1243C -0.383764 12.002 0.108647 8.59917 1.9376 5.72253C 3.80172 2.84588 6.65067 0.951501 9.74582 0.284961C 12.6299 -0.381579 16.112 0.144637 18.6796 1.61804C 18.9609 1.75837 19.172 1.96885 19.3478 2.31966C 19.4533 2.70555 19.2775 3.09145 18.9258 3.23177C 18.8554 3.23177 18.7851 3.26685 18.7147 3.26685L 11.7155 5.82777C 11.3637 5.96809 10.9417 5.75761 10.8362 5.4068C 10.6955 5.05599 10.8713 4.67009 11.2231 4.52977L 16.9209 2.45999C 14.7403 1.44264 12.3134 1.23215 10.0624 1.72328C 7.31894 2.31966 4.82172 3.96847 3.2038 6.52939C 1.58588 9.09031 1.12864 12.0722 1.72657 14.8085C 2.11346 16.5977 2.95759 18.2815 4.15345 19.6848C 4.99758 20.632 3.94241 21.6844 3.16863 20.7723Z"/>
</defs>
</svg>
