<svg width="25" height="20" viewBox="0 0 25 20" version="1.1" xmlns="http://www.w3.org/2000/svg" xmlns:xlink="http://www.w3.org/1999/xlink">
<title>Choose group Icon</title>
<desc>Created using Figma</desc>
<g id="Canvas" transform="translate(1126 9981)">
<g id="Choose group Icon">
<mask id="mask0_outline_ins">
<use xlink:href="#path0_fill" fill="white" transform="matrix(-1 0 0 1 -1101 -9980.87)"/>
</mask>
<g mask="url(#mask0_outline_ins)">
<use xlink:href="#path1_stroke_2x" transform="matrix(-1 0 0 1 -1101 -9980.87)" fill="#F2F2F2"/>
</g>
</g>
</g>
<defs>
<path id="path0_fill" fill-rule="evenodd" d="M 12.0663 0L 0 8.72559L 12.0663 17.1255L 12.0663 12.0479C 13.2386 11.9482 19.8527 11.7388 24.2336 19.0469L 24.9851 19.0469C 24.9851 19.0469 25.9636 5.28027 12.0663 5.17041L 12.0663 0Z"/>
<path id="path1_stroke_2x" d="M 0 8.72559L -0.585978 7.91526L -1.728 8.7411L -0.571338 9.5463L 0 8.72559ZM 12.0663 0L 13.0663 0L 13.0663 -1.95721L 11.4803 -0.810327L 12.0663 0ZM 12.0663 17.1255L 11.4949 17.9462L 13.0663 19.0401L 13.0663 17.1255L 12.0663 17.1255ZM 12.0663 12.0479L 11.9816 11.0514L 11.0663 11.1292L 11.0663 12.0479L 12.0663 12.0479ZM 24.2336 19.0469L 23.3759 19.561L 23.6672 20.0469L 24.2336 20.0469L 24.2336 19.0469ZM 24.9851 19.0469L 24.9851 20.0469L 25.9166 20.0469L 25.9826 19.1178L 24.9851 19.0469ZM 12.0663 5.17041L 11.0663 5.17041L 11.0663 6.16254L 12.0584 6.17038L 12.0663 5.17041ZM 0.585978 9.53591L 12.6523 0.810327L 11.4803 -0.810327L -0.585978 7.91526L 0.585978 9.53591ZM 12.6376 16.3048L 0.571338 7.90487L -0.571338 9.5463L 11.4949 17.9462L 12.6376 16.3048ZM 11.0663 12.0479L 11.0663 17.1255L 13.0663 17.1255L 13.0663 12.0479L 11.0663 12.0479ZM 12.1509 13.0443C 13.1598 12.9585 19.2826 12.7328 23.3759 19.561L 25.0913 18.5327C 20.4227 10.7448 13.3175 10.9379 11.9816 11.0514L 12.1509 13.0443ZM 24.2336 20.0469L 24.9851 20.0469L 24.9851 18.0469L 24.2336 18.0469L 24.2336 20.0469ZM 24.9851 19.0469C 25.9826 19.1178 25.9826 19.1172 25.9827 19.1166C 25.9827 19.1164 25.9827 19.1157 25.9828 19.1152C 25.9828 19.1141 25.9829 19.1128 25.983 19.1113C 25.9832 19.1083 25.9835 19.1045 25.9838 19.0998C 25.9844 19.0905 25.9851 19.0779 25.986 19.0621C 25.9877 19.0305 25.9899 18.986 25.992 18.9296C 25.9962 18.8169 26.0002 18.6561 26 18.4541C 25.9996 18.0505 25.9824 17.48 25.9162 16.7975C 25.7843 15.4381 25.455 13.6049 24.6552 11.7533C 23.8532 9.89653 22.5686 8.00137 20.5219 6.56619C 18.47 5.12737 15.7208 4.19927 12.0742 4.17044L 12.0584 6.17038C 15.3604 6.19648 17.7004 7.03041 19.3737 8.20372C 21.0521 9.38068 22.1287 10.9478 22.8192 12.5464C 23.5119 14.1502 23.8066 15.7655 23.9255 16.9907C 23.9847 17.6006 23.9997 18.1065 24 18.4562C 24.0002 18.6308 23.9967 18.7659 23.9934 18.8549C 23.9917 18.8993 23.9901 18.9322 23.989 18.9527C 23.9884 18.9629 23.988 18.97 23.9877 18.974C 23.9876 18.9759 23.9875 18.9771 23.9875 18.9774C 23.9875 18.9776 23.9875 18.9776 23.9875 18.9773C 23.9875 18.9772 23.9876 18.9769 23.9876 18.9768C 23.9876 18.9764 23.9876 18.976 24.9851 19.0469ZM 11.0663 0L 11.0663 5.17041L 13.0663 5.17041L 13.0663 0L 11.0663 0Z"/>
</defs>
</svg>
