<svg width="28" height="24" viewBox="0 0 28 24" fill="none" xmlns="http://www.w3.org/2000/svg">
<path d="M1.5 12C1.5 18.0752 6.4248 23 12.5 23C15.3171 23 17.887 21.9409 19.833 20.1995L20.4734 20.968C18.3535 22.854 15.5605 24 12.5 24C5.87256 24 0.5 18.6274 0.5 12C0.5 5.37256 5.87256 0 12.5 0C19.1274 0 24.5 5.37256 24.5 12C24.5 12.2759 24.4907 12.5493 24.4724 12.8206L26.6465 10.6465C26.8418 10.4512 27.1582 10.4512 27.3535 10.6465C27.5488 10.8418 27.5488 11.1582 27.3535 11.3535L24.3535 14.3535L24.0261 14.6809L23.6746 14.3796L20.1746 11.3796C19.9648 11.2 19.9407 10.8843 20.1204 10.6746C20.3 10.4648 20.6157 10.4407 20.8254 10.6204L23.4651 12.8831C23.4883 12.5918 23.5 12.2971 23.5 12C23.5 5.9248 18.5752 1 12.5 1C6.4248 1 1.5 5.9248 1.5 12Z" fill="white"/>
</svg>
