<svg width="19" height="23" viewBox="0 0 19 23" version="1.1" xmlns="http://www.w3.org/2000/svg" xmlns:xlink="http://www.w3.org/1999/xlink">
<title>Update Icon</title>
<desc>Created using Figma</desc>
<g id="Canvas" transform="translate(2293 6059)">
<g id="Update Icon">
<use xlink:href="#path0_fill" transform="matrix(-1 -1.22465e-16 1.22465e-16 -1 -2274 -6036)" fill="#8A8A8F"/>
</g>
</g>
<defs>
<path id="path0_fill" fill-rule="evenodd" d="M 9.4668 0L 9.53418 0C 10.0457 0 10.4619 0.414551 10.4619 0.923828L 10.4619 4.07129L 8.59521 4.07178L 8.53931 4.07129L 8.53931 0.923828C 8.53931 0.414551 8.95557 0 9.4668 0ZM 8.53931 4.07129L 4.25684 4.06885C 1.90625 4.06885 0 5.96777 0 8.31006L 0 18.7583C 0 21.1011 1.90625 23 4.25684 23L 14.7437 23C 17.0942 23 19 21.1011 19 18.7583L 19 8.31006C 19 5.96777 17.0942 4.06885 14.7437 4.06885L 10.4619 4.07129L 10.4617 15.5322L 12.9744 13.2461C 13.3452 12.9072 13.9329 12.9248 14.2817 13.2856C 14.4514 13.4604 14.54 13.689 14.5327 13.9297C 14.5254 14.1704 14.4214 14.3936 14.2405 14.5586L 10.1501 18.2803C 9.98462 18.4312 9.76611 18.5161 9.53442 18.521L 9.50171 18.5225L 9.47461 18.5215C 9.23438 18.5161 9.01587 18.4312 8.85083 18.2803L 4.7605 14.5586C 4.5791 14.3936 4.47534 14.1704 4.46777 13.9297C 4.46094 13.689 4.54956 13.4604 4.71924 13.2856C 5.06812 12.9248 5.65527 12.9077 6.02612 13.2461L 8.53906 15.5322L 8.53931 4.07129Z"/>
</defs>
</svg>
