<svg width="19" height="23" viewBox="0 0 19 23" version="1.1" xmlns="http://www.w3.org/2000/svg" xmlns:xlink="http://www.w3.org/1999/xlink">
<g id="Canvas" fill="none">
<g id="Update Icon">
<path fill-rule="evenodd" clip-rule="evenodd" d="M 9.4668 0L 9.53418 0C 10.0457 0 10.4619 0.414062 10.4619 0.923828L 10.4619 4.07129L 8.59521 4.07227L 8.53931 4.07129L 8.53931 0.923828C 8.53931 0.414062 8.95557 0 9.4668 0ZM 8.53931 4.07129L 4.25684 4.06934C 1.90625 4.06934 0 5.96875 0 8.31055L 0 18.7588C 0 21.1016 1.90625 23 4.25684 23L 14.7437 23C 17.0942 23 19 21.1016 19 18.7588L 19 8.31055C 19 5.96875 17.0942 4.06934 14.7437 4.06934L 10.4619 4.07129L 10.4617 15.5332L 12.9744 13.2471C 13.3452 12.9072 13.9329 12.9248 14.2817 13.2861C 14.4514 13.4609 14.54 13.6895 14.5327 13.9297C 14.5254 14.1709 14.4214 14.3936 14.2405 14.5586L 10.1501 18.2812C 9.98462 18.4316 9.76611 18.5166 9.53442 18.5215L 9.50171 18.5234L 9.47461 18.5215C 9.23438 18.5166 9.01587 18.4316 8.85083 18.2812L 4.7605 14.5586C 4.5791 14.3936 4.47534 14.1709 4.46777 13.9297C 4.46094 13.6895 4.54956 13.4609 4.71924 13.2861C 5.06812 12.9248 5.65527 12.9082 6.02612 13.2471L 8.53906 15.5332L 8.53931 4.07129Z" fill="#FF9500"/>
</g>
</g>
</svg>

