<svg width="25" height="19" viewBox="0 0 25 19" version="1.1" xmlns="http://www.w3.org/2000/svg" xmlns:xlink="http://www.w3.org/1999/xlink">
<title>Icon</title>
<desc>Created using Figma</desc>
<g id="Canvas" transform="translate(2294 5124)">
<g id="Icon">
<use xlink:href="#path0_fill" transform="translate(-2294 -5124)" fill="#8A8A8F"/>
</g>
</g>
<defs>
<path id="path0_fill" fill-rule="evenodd" d="M 0 4C 0 1.79102 1.79077 0 4 0L 7 0C 9.20923 0 11 1.79102 11 4C 11 6.20898 9.20923 8 7 8L 4 8C 1.79077 8 0 6.20898 0 4ZM 18 0C 15.7908 0 14 1.79102 14 4C 14 6.20898 15.7908 8 18 8L 21 8C 23.2092 8 25 6.20898 25 4C 25 1.79102 23.2092 0 21 0L 18 0ZM 18 11C 15.7908 11 14 12.791 14 15C 14 17.209 15.7908 19 18 19L 21 19C 23.2092 19 25 17.209 25 15C 25 12.791 23.2092 11 21 11L 18 11ZM 4 11C 1.79077 11 0 12.791 0 15C 0 17.209 1.79077 19 4 19L 7 19C 9.20923 19 11 17.209 11 15C 11 12.791 9.20923 11 7 11L 4 11Z"/>
</defs>
</svg>
