<svg width="26" height="26" viewBox="0 0 26 26" version="1.1" xmlns="http://www.w3.org/2000/svg" xmlns:xlink="http://www.w3.org/1999/xlink">
<title>Icon</title>
<desc>Created using Figma</desc>
<g id="Canvas" transform="translate(2044 5127)">
<g id="Icon">
<use xlink:href="#path0_fill" transform="translate(-2044 -5127)" fill="#8A8A8F"/>
</g>
</g>
<defs>
<path id="path0_fill" fill-rule="evenodd" d="M 13 26C 20.1797 26 26 20.1797 26 13C 26 5.8203 20.1797 0 13 0C 5.8203 0 0 5.8203 0 13C 0 20.1797 5.8203 26 13 26ZM 12.9999 4C 14.5696 4 15.842 5.27245 15.842 6.8421L 15.842 13.4737C 15.842 15.0433 14.5696 16.3158 12.9999 16.3158C 11.4303 16.3158 10.1578 15.0433 10.1578 13.4737L 10.1578 6.8421C 10.1578 5.27245 11.4303 4 12.9999 4ZM 17.9737 10.1577C 17.5813 10.1577 17.2632 10.4758 17.2632 10.8682L 17.2632 13.4735C 17.2632 15.828 15.3545 17.7367 13 17.7367C 10.6455 17.7367 8.73685 15.828 8.73685 13.4735L 8.73685 10.8682C 8.73685 10.4758 8.41874 10.1577 8.02632 10.1577C 7.63391 10.1577 7.3158 10.4758 7.3158 10.8682L 7.3158 13.4735C 7.3172 16.337 9.44843 18.7524 12.2895 19.1103L 12.2895 20.5788L 10.3947 20.5788C 10.0023 20.5788 9.68422 20.8969 9.68422 21.2893C 9.68422 21.6817 10.0023 21.9998 10.3947 21.9998L 15.6053 21.9998C 15.9977 21.9998 16.3158 21.6817 16.3158 21.2893C 16.3158 20.8969 15.9977 20.5788 15.6053 20.5788L 13.7105 20.5788L 13.7105 19.1103C 16.5516 18.7524 18.6828 16.337 18.6842 13.4735L 18.6842 10.8682C 18.6842 10.4758 18.3661 10.1577 17.9737 10.1577Z"/>
</defs>
</svg>
