<svg width="32" height="24" viewBox="0 0 32 24" version="1.1" xmlns="http://www.w3.org/2000/svg" xmlns:xlink="http://www.w3.org/1999/xlink">
<title>Camera Icon</title>
<desc>Created using Figma</desc>
<g id="Canvas" transform="translate(2355 5126)">
<g id="Camera Icon">
<use xlink:href="#path0_fill" transform="translate(-2355 -5126)" fill="#8A8A8F"/>
</g>
</g>
<defs>
<path id="path0_fill" fill-rule="evenodd" d="M 11.866 0L 20.134 0C 20.701 0 21.445 0.369 21.794 0.824L 24.066 4.174C 24.288 4.5 24.657 4.698 25.051 4.698L 29.937 4.698C 31.077 4.698 31.999 5.628 31.999 6.781L 31.999 21.917C 31.999 23.068 31.077 24.001 29.937 24.001L 2.063 24.001C 0.923 24.001 0 23.07 0 21.917L 0 6.781C 0 5.63 0.923 4.698 2.063 4.698L 6.969 4.698C 7.35 4.698 7.707 4.508 7.923 4.192L 10.205 0.824C 10.555 0.37 11.302 0 11.866 0ZM 23.7419 7.30621C 23.7419 7.88221 24.2039 8.34921 24.7739 8.34921C 25.3449 8.34921 25.8059 7.88221 25.8059 7.30621C 25.8059 6.73021 25.3449 6.26221 24.7739 6.26221C 24.2039 6.26221 23.7419 6.73021 23.7419 7.30621ZM 8.77405 14.0882C 8.77405 18.1222 12.009 21.3922 16 21.3922C 19.991 21.3922 23.225 18.1222 23.225 14.0882C 23.225 10.0532 19.991 6.78418 16 6.78418C 12.009 6.78418 8.77405 10.0532 8.77405 14.0882ZM 3.09596 1.04395L 5.16196 1.04395C 5.73197 1.04395 6.19297 1.50795 6.19297 2.08795L 6.19297 3.13095L 2.06396 3.13095L 2.06396 2.08795C 2.06396 1.51095 2.52296 1.04395 3.09596 1.04395ZM 10.323 14.0881C 10.323 10.9171 12.864 8.34912 16 8.34912C 19.136 8.34912 21.677 10.9171 21.677 14.0881C 21.677 17.2581 19.136 19.8271 16 19.8271C 12.864 19.8271 10.323 17.2581 10.323 14.0881Z"/>
</defs>
</svg>
