<svg width="22" height="22" viewBox="0 0 22 22" version="1.1" xmlns="http://www.w3.org/2000/svg" xmlns:xlink="http://www.w3.org/1999/xlink">
<g id="Canvas" fill="none">
<path id="Shape" fill-rule="evenodd" clip-rule="evenodd" d="M 0 11C 0 17.0752 4.9248 22 11 22C 17.0752 22 22 17.0752 22 11C 22 4.9248 17.0752 0 11 0C 4.9248 0 0 4.9248 0 11ZM 21 11C 21 16.5229 16.5229 21 11 21C 5.47705 21 1 16.5229 1 11C 1 5.47705 5.47705 1 11 1C 16.5229 1 21 5.47705 21 11ZM 10.75 7.5C 10.0596 7.5 9.5 6.94043 9.5 6.25C 9.5 5.55957 10.0596 5 10.75 5C 11.4404 5 12 5.55957 12 6.25C 12 6.94043 11.4404 7.5 10.75 7.5ZM 9 17L 9 17.5L 13 17.5L 13 17L 12 17L 12 9.5L 12 9L 10 9L 9 9L 9 9.5L 10 9.5L 10 17L 9 17Z" fill="#007AFF"/>
</g>
</svg>
