<svg width="16" height="16" viewBox="0 0 16 16" fill="none" xmlns="http://www.w3.org/2000/svg">
<path d="M4 1H12C13.6569 1 15 2.34315 15 4V12C15 13.6569 13.6569 15 12 15H4C2.34315 15 1 13.6569 1 12V4C1 2.34315 2.34315 1 4 1Z" fill="white" stroke="#007AFF" stroke-width="2"/>
<path fill-rule="evenodd" clip-rule="evenodd" d="M6.75944 0.3886C6.53971 0.172604 6.18767 0.171724 5.96687 0.386617L3.09496 3.18162C2.67319 3.59209 2.00225 3.59523 1.57666 3.18874L1.20435 2.83314C0.97829 2.61723 0.620715 2.62293 0.401656 2.84595V2.84595C0.179999 3.07162 0.18373 3.43439 0.40998 3.65545L2.31192 5.51376C2.3142 5.51599 2.31727 5.51724 2.32046 5.51724V5.51724C2.32364 5.51724 2.3267 5.516 2.32898 5.51377L6.75765 1.19869C6.98526 0.976915 6.98606 0.611375 6.75944 0.3886V0.3886Z" transform="translate(4.41382 5.24121)" fill="#007AFF"/>
</svg>
