<svg width="16" height="16" viewBox="0 0 16 16" fill="none" xmlns="http://www.w3.org/2000/svg">
<path d="M4 1H12C13.6569 1 15 2.34315 15 4V12C15 13.6569 13.6569 15 12 15H4C2.34315 15 1 13.6569 1 12V4C1 2.34315 2.34315 1 4 1Z" fill="white" stroke="#FF3B30" stroke-width="2"/>
<path d="M1.45691 8H1.02234V4.47705H1.44959L3.3783 7.24316H3.40027V4.47705H3.83484V8H3.4076L1.47889 5.24365H1.45691V8ZM6.62105 7.60449V8H4.43844V4.47705H6.62105V4.87256H4.87789V6.00293H6.53072V6.39355H4.87789V7.60449H6.62105ZM9.07768 5.20459L8.26469 8H7.84965L6.89018 4.47705H7.34916L8.05473 7.35303H8.07426L8.86771 4.47705H9.31205L10.1055 7.35303H10.125L10.8306 4.47705H11.2896L10.3301 8H9.91508L9.10209 5.20459H9.07768Z" transform="translate(2 2)" fill="#FF3B30"/>
</svg>
