<svg width="56" height="56" viewBox="0 0 56 56" fill="none" xmlns="http://www.w3.org/2000/svg">
<path d="M1 4C1 2.34315 2.34315 1 4 1H52C53.6569 1 55 2.34315 55 4V52C55 53.6569 53.6569 55 52 55H4C2.34315 55 1 53.6569 1 52V4Z" fill="#007AFF" stroke="white" stroke-width="2"/>
<path fill-rule="evenodd" clip-rule="evenodd" d="M39.1063 19.7043C38.3372 18.9484 37.1051 18.9453 36.3323 19.6974L26.2806 29.4799C24.8044 30.9165 22.4561 30.9276 20.9665 29.5048L19.6635 28.2602C18.8723 27.5045 17.6207 27.5245 16.854 28.3051C16.0782 29.0949 16.0913 30.3646 16.8832 31.1383L23.54 37.6424C23.548 37.6502 23.5587 37.6546 23.5698 37.6546C23.581 37.6546 23.5917 37.6502 23.5997 37.6425L39.1 22.5396C39.8966 21.7634 39.8995 20.484 39.1063 19.7043Z" fill="white"/>
</svg>
