<svg width="56" height="56" viewBox="0 0 56 56" fill="none" xmlns="http://www.w3.org/2000/svg">
<path d="M1 4C1 2.34315 2.34315 1 4 1H52C53.6569 1 55 2.34315 55 4V52C55 53.6569 53.6569 55 52 55H4C2.34315 55 1 53.6569 1 52V4Z" fill="#4CD964" stroke="white" stroke-width="2"/>
<path fill-rule="evenodd" clip-rule="evenodd" d="M45.4468 18.3447L31.3597 32.0546L25.9608 26.8979L23.1724 29.7368L31.2766 37.6551H31.3114L48.2758 21.1257L45.4468 18.3447Z" fill="white"/>
<path fill-rule="evenodd" clip-rule="evenodd" d="M35.7915 18.3442L21.7044 32.0541L16.3055 26.8975L13.5171 29.7363L21.6213 37.6546H21.6561L38.6205 21.1252L35.7915 18.3442Z" fill="white"/>
</svg>
