<svg width="56" height="56" viewBox="0 0 56 56" fill="none" xmlns="http://www.w3.org/2000/svg">
<path d="M1 4C1 2.34315 2.34315 1 4 1H52C53.6569 1 55 2.34315 55 4V52C55 53.6569 53.6569 55 52 55H4C2.34315 55 1 53.6569 1 52V4Z" fill="#FF3B30" stroke="white" stroke-width="2"/>
<path d="M11.7418 34.8621H9.20177V22.1794H11.4166L17.3404 30.4412H17.4108V22.1794H19.9508V34.8621H17.7535L11.8209 26.5564H11.7418V34.8621ZM30.1833 32.6648V34.8621H21.781V22.1794H30.1833V24.3679H24.4353V27.4265H29.8581V29.4656H24.4353V32.6648H30.1833ZM39.4051 26.196L36.9969 34.8621H34.492L31.1346 22.1794H33.8855L35.8806 31.364H35.951L38.324 22.1794H40.5652L42.9383 31.364H43.0086L45.0125 22.1794H47.7635L44.3973 34.8621H41.8924L39.4842 26.196H39.4051Z" fill="white"/>
</svg>
