<svg width="23" height="23" viewBox="0 0 23 23" fill="none" xmlns="http://www.w3.org/2000/svg">
<path fill-rule="evenodd" clip-rule="evenodd" d="M8 1.84C8 0.823796 8.89543 0 10 0H14C15.1046 0 16 0.823796 16 1.84V2.76H19.5H21V3.68H19.9656L18.6314 20.8639C18.538 22.0675 17.4494 23 16.1378 23H7.86224C6.55064 23 5.46204 22.0675 5.36859 20.8639L4.03444 3.68H3V2.76H4.5H8V1.84ZM9 2.76H15V1.84C15 1.3319 14.5523 0.92 14 0.92H10C9.44772 0.92 9 1.3319 9 1.84V2.76ZM5.03699 3.68L6.36605 20.7983C6.42212 21.5205 7.07528 22.08 7.86224 22.08H16.1378C16.9247 22.08 17.5779 21.5205 17.6339 20.7983L18.963 3.68H15.5H8.5H5.03699ZM8.50024 20.2544L8.00024 5.53437L8.99976 5.50563L9.49976 20.2256L8.50024 20.2544ZM14.5002 20.2256L15.0002 5.50563L15.9998 5.53437L15.4998 20.2544L14.5002 20.2256ZM12.5 5.52V20.24H11.5V5.52H12.5Z" fill="white"/>
</svg>
