<svg width="25" height="25" viewBox="0 0 25 25" fill="none" xmlns="http://www.w3.org/2000/svg">
<g id="Glyphs / Settings / General">
<path id="Vector" d="M13.4949 5.35009L13.534 5.67509L13.8475 5.76924C14.0081 5.81746 14.1661 5.87181 14.3211 5.932L14.6284 6.05134L14.8591 5.81592L16.0486 4.60255L15.6633 6.2695L15.5899 6.58676L15.8505 6.78212C15.9843 6.88246 16.1141 6.9878 16.2393 7.09783L16.4871 7.31559L16.7848 7.17343L18.3202 6.44017L17.3895 7.87787L17.2124 8.1514L17.3911 8.42386C17.4826 8.56338 17.5689 8.70709 17.6502 8.85481L17.8086 9.14242L18.1354 9.11144L19.8313 8.95068L18.4663 9.98258L18.2065 10.1789L18.281 10.4958C18.3193 10.6586 18.3516 10.8235 18.3773 10.9903L18.4273 11.3143L18.7445 11.3976L20.3963 11.8314L18.7623 12.3313L18.4492 12.4271L18.4119 12.7524C18.3925 12.9209 18.3671 13.087 18.3354 13.2505L18.2735 13.5703L18.541 13.7561L19.9461 14.7326L18.245 14.64L17.9171 14.6222L17.7705 14.916C17.6955 15.0663 17.6146 15.2135 17.5284 15.3573L17.3609 15.6366L17.5486 15.9026L18.5358 17.3019L16.9721 16.6306L16.6693 16.5007L16.4304 16.7276C16.3091 16.8429 16.1837 16.9534 16.0542 17.0588L15.8016 17.2643L15.8874 17.5784L16.3386 19.2295L15.1016 18.0644L14.8615 17.8383L14.5592 17.97C14.4064 18.0365 14.2508 18.0972 14.0925 18.1518L13.7834 18.2585L13.7572 18.5844L13.6206 20.2848L12.854 18.764L12.7062 18.4708L12.3784 18.4899C12.2533 18.4972 12.1271 18.5009 12 18.5009C11.9595 18.5009 11.9191 18.5005 11.8788 18.4998L11.5505 18.4937L11.4145 18.7925L10.7088 20.3427L10.5051 18.6499L10.466 18.3249L10.1525 18.2308C9.99189 18.1825 9.83391 18.1282 9.67892 18.068L9.37162 17.9487L9.14085 18.1841L7.95143 19.3975L8.33672 17.7305L8.41005 17.4132L8.14954 17.2179C8.01574 17.1175 7.88595 17.0122 7.76073 16.9022L7.51291 16.6844L7.21522 16.8266L5.67975 17.5598L6.61055 16.1221L6.78764 15.8486L6.6089 15.5761C6.51737 15.4366 6.43111 15.2929 6.34979 15.1452L6.19145 14.8576L5.86459 14.8886L4.16872 15.0493L5.53374 14.0174L5.79345 13.8211L5.71896 13.5042C5.6807 13.3414 5.64844 13.1765 5.6227 13.0097L5.57268 12.6857L5.25554 12.6024L3.60368 12.1686L5.23768 11.6687L5.55078 11.5729L5.58813 11.2476C5.60749 11.0791 5.63293 10.913 5.66458 10.7495L5.72649 10.4297L5.45903 10.2439L4.05391 9.2674L5.75496 9.35998L6.08285 9.37783L6.2295 9.08402C6.30453 8.93371 6.38542 8.78651 6.47163 8.64272L6.63909 8.36345L6.45138 8.09737L5.46423 6.6981L7.02791 7.36936L7.33071 7.49935L7.56957 7.27235C7.69087 7.15708 7.81629 7.04663 7.94581 6.94124L8.19838 6.73573L8.11256 6.42162L7.66143 4.77054L8.89842 5.93558L9.13849 6.16168L9.44084 6.03003C9.59356 5.96353 9.74918 5.90283 9.90752 5.84819L10.2166 5.74152L10.2428 5.41559L10.3794 3.71516L11.146 5.236L11.2938 5.52917L11.6216 5.5101C11.7467 5.50282 11.8729 5.49913 12 5.49913C12.0405 5.49913 12.0809 5.4995 12.1212 5.50024L12.4495 5.50632L12.5855 5.2075L13.2912 3.65729L13.4949 5.35009Z" stroke="#979797"/>
</g>
</svg>
