<svg xmlns="http://www.w3.org/2000/svg" width="188" height="108" viewBox="0 0 188 108" fill="none">
<g filter="url(#filter0_d)">
<g filter="url(#filter1_b)">
<rect x="4" width="180" height="100" rx="7" fill="#202124" fill-opacity="0.575408"/>
</g>
<g filter="url(#filter2_i)">
<text fill="#C4C4C4" xml:space="preserve" style="white-space: pre" font-family="Antonio" font-size="35" font-weight="300" letter-spacing="0em"><tspan x="90" y="60">23.5</tspan></text>
</g>
<g filter="url(#filter3_i)">
<text fill="#C4C4C4" xml:space="preserve" style="white-space: pre" font-family="Antonio" font-size="28" font-weight="300" letter-spacing="0em"><tspan x="24" y="60">in</tspan></text>
</g>
<g filter="url(#filter4_i)">
<path fill-rule="evenodd" clip-rule="evenodd" d="M61.4 58.3H59.02C58.9267 58.3 58.8333 58.3 58.7867 58.2533C58.74 58.2533 58.74 58.2533 58.74 58.2533C58.74 58.2533 58.74 58.2533 58.6933 58.2533C58.18 58.0667 57.8067 57.5533 57.8067 56.9C57.8067 56.2933 58.0867 55.8267 58.5067 55.5933H58.5533C58.6 55.5467 58.6 55.5467 58.6 55.5467C58.74 55.5 58.88 55.4533 59.02 55.4533H61.4C61.5867 55.4533 61.7733 55.5 61.9133 55.5933C61.96 55.5933 61.96 55.64 61.96 55.64H62.0067C62.38 55.92 62.6133 56.34 62.6133 56.9C62.6133 57.46 62.2867 57.9733 61.8667 58.16V58.2067C61.82 58.2067 61.82 58.2067 61.82 58.2067H61.7733L61.7267 58.2533C61.6333 58.2533 61.54 58.3 61.4 58.3ZM61.4 61.1H54.2133C53.56 61.1 53 61.7533 53 62.5C53 62.92 53.14 63.2933 53.42 63.5733C53.4667 63.62 53.4667 63.62 53.4667 63.62C53.5133 63.62 53.5133 63.6667 53.5133 63.6667C53.56 63.6667 53.56 63.6667 53.56 63.7133C53.6067 63.7133 53.6067 63.76 53.6533 63.76C53.6533 63.76 53.7 63.76 53.7 63.8067C53.84 63.8533 54.0267 63.9 54.2133 63.9H61.4C62.0533 63.9 62.6133 63.2933 62.6133 62.5C62.6133 61.7533 62.0533 61.1 61.4 61.1ZM61.4 52.6533H59.02C58.9267 52.6533 58.8333 52.6533 58.7867 52.6067C58.74 52.6067 58.74 52.6067 58.74 52.6067C58.74 52.6067 58.74 52.6067 58.6933 52.6067C58.18 52.4667 57.8067 51.9067 57.8067 51.2533C57.8067 50.6933 58.0867 50.18 58.5067 49.9467H58.5533C58.6 49.9467 58.6 49.9467 58.6 49.9467C58.74 49.8533 58.88 49.8533 59.02 49.8533H61.4C61.5867 49.8533 61.7733 49.9 61.9133 49.9933C61.96 49.9933 61.96 49.9933 61.96 49.9933L62.0067 50.04C62.38 50.2733 62.6133 50.74 62.6133 51.2533C62.6133 51.8133 62.2867 52.3267 61.8667 52.56C61.82 52.56 61.82 52.56 61.82 52.56L61.7733 52.6067H61.7267C61.6333 52.6533 61.54 52.6533 61.4 52.6533ZM54.2133 47.0067H61.4C62.0533 47.0067 62.6133 46.4 62.6133 45.6067C62.6133 44.86 62.0533 44.2067 61.4 44.2067H54.2133C53.9333 44.2067 53.7 44.3 53.4667 44.4867C53.4667 44.4867 53.4667 44.4867 53.4667 44.5333C53.4667 44.5333 53.42 44.5333 53.42 44.58C53.14 44.8133 53 45.1867 53 45.6067C53 46.4 53.56 47.0067 54.2133 47.0067ZM58.6933 38.6533C58.7867 38.6067 58.9267 38.6067 59.02 38.6067H61.4C61.54 38.6067 61.68 38.6067 61.82 38.6533C61.82 38.6533 61.82 38.7 61.8667 38.7H61.9133L61.96 38.7467C62.3333 38.98 62.6133 39.4467 62.6133 40.0067C62.6133 40.7533 62.0533 41.4067 61.4 41.4067H59.02C58.3667 41.4067 57.8067 40.7533 57.8067 40.0067C57.8067 39.4 58.1333 38.8867 58.5533 38.7C58.6 38.7 58.6 38.6533 58.6 38.6533C58.6467 38.6533 58.6467 38.6533 58.6467 38.6533H58.6933ZM61.4 35.76H59.02C58.9733 35.76 58.9267 35.76 58.8333 35.76H58.7867C58.74 35.76 58.74 35.76 58.74 35.7133C58.2267 35.5733 57.8067 35.0133 57.8067 34.36C57.8067 33.5667 58.3667 32.96 59.02 32.96H61.4C62.0533 32.96 62.6133 33.5667 62.6133 34.36C62.6133 34.9667 62.2867 35.5267 61.7733 35.7133H61.7267C61.68 35.7133 61.68 35.7133 61.68 35.7133C61.68 35.76 61.68 35.76 61.6333 35.76C61.54 35.76 61.4933 35.76 61.4 35.76ZM61.4 30.16H54.2133C53.84 30.16 53.5133 29.9733 53.28 29.6467V29.6C53.2333 29.6 53.2333 29.6 53.2333 29.6C53.0933 29.3667 53 29.04 53 28.76C53 28.4333 53.0933 28.1067 53.2333 27.8733C53.2333 27.8733 53.2333 27.8733 53.28 27.8733V27.8267C53.5133 27.5 53.84 27.3133 54.2133 27.3133H61.4C61.4933 27.3133 61.6333 27.36 61.7267 27.36C61.7267 27.4067 61.7733 27.4067 61.7733 27.4067C61.82 27.4067 61.82 27.4067 61.82 27.4067L61.8667 27.4533H61.9133C62.3333 27.6867 62.6133 28.1533 62.6133 28.76C62.6133 29.32 62.3333 29.7867 61.9133 30.02H61.8667L61.82 30.0667C61.82 30.0667 61.82 30.0667 61.7733 30.0667C61.7733 30.0667 61.7267 30.0667 61.7267 30.1133C61.6333 30.1133 61.4933 30.16 61.4 30.16ZM71.1067 63.9V26.8C71.1067 25.26 69.8933 24 68.3533 24C66.86 24 65.6 25.26 65.6 26.8V63.9C59.5333 66.84 61.5867 76.08 68.3533 76.08C75.12 76.08 77.1733 66.84 71.1067 63.9ZM68.3533 43.6467C68.8667 43.6467 69.2867 44.0667 69.2867 44.58V67.68C71.3867 68.7067 70.6867 71.88 68.3533 71.88C66.02 71.88 65.32 68.7067 67.42 67.68V44.58C67.42 44.0667 67.84 43.6467 68.3533 43.6467Z" fill="#C4C4C4"/>
</g>
</g>
<defs>
<filter id="filter0_d" x="0" y="0" width="188" height="108" filterUnits="userSpaceOnUse" color-interpolation-filters="sRGB">
<feFlood flood-opacity="0" result="BackgroundImageFix"/>
<feColorMatrix in="SourceAlpha" type="matrix" values="0 0 0 0 0 0 0 0 0 0 0 0 0 0 0 0 0 0 127 0"/>
<feOffset dy="4"/>
<feGaussianBlur stdDeviation="2"/>
<feColorMatrix type="matrix" values="0 0 0 0 0 0 0 0 0 0 0 0 0 0 0 0 0 0 0.79 0"/>
<feBlend mode="normal" in2="BackgroundImageFix" result="effect1_dropShadow"/>
<feBlend mode="normal" in="SourceGraphic" in2="effect1_dropShadow" result="shape"/>
</filter>
<filter id="filter1_b" x="-26.9068" y="-30.9068" width="241.814" height="161.814" filterUnits="userSpaceOnUse" color-interpolation-filters="sRGB">
<feFlood flood-opacity="0" result="BackgroundImageFix"/>
<feGaussianBlur in="BackgroundImage" stdDeviation="15.4534"/>
<feComposite in2="SourceAlpha" operator="in" result="effect1_backgroundBlur"/>
<feBlend mode="normal" in="SourceGraphic" in2="effect1_backgroundBlur" result="shape"/>
</filter>
<filter id="filter2_i" x="60" y="20" width="100" height="60" filterUnits="userSpaceOnUse" color-interpolation-filters="sRGB">
<feFlood flood-opacity="0" result="BackgroundImageFix"/>
<feBlend mode="normal" in="SourceGraphic" in2="BackgroundImageFix" result="shape"/>
<feColorMatrix in="SourceAlpha" type="matrix" values="0 0 0 0 0 0 0 0 0 0 0 0 0 0 0 0 0 0 127 0" result="hardAlpha"/>
<feOffset dy="4"/>
<feGaussianBlur stdDeviation="2"/>
<feComposite in2="hardAlpha" operator="arithmetic" k2="-1" k3="1"/>
<feColorMatrix type="matrix" values="0 0 0 0 0 0 0 0 0 0 0 0 0 0 0 0 0 0 0.25 0"/>
<feBlend mode="normal" in2="shape" result="effect1_innerShadow"/>
</filter>
<filter id="filter3_i" x="24.2188" y="39.1172" width="30" height="40" filterUnits="userSpaceOnUse" color-interpolation-filters="sRGB">
<feFlood flood-opacity="0" result="BackgroundImageFix"/>
<feBlend mode="normal" in="SourceGraphic" in2="BackgroundImageFix" result="shape"/>
<feColorMatrix in="SourceAlpha" type="matrix" values="0 0 0 0 0 0 0 0 0 0 0 0 0 0 0 0 0 0 127 0" result="hardAlpha"/>
<feOffset dy="4"/>
<feGaussianBlur stdDeviation="2"/>
<feComposite in2="hardAlpha" operator="arithmetic" k2="-1" k3="1"/>
<feColorMatrix type="matrix" values="0 0 0 0 0 0 0 0 0 0 0 0 0 0 0 0 0 0 0.25 0"/>
<feBlend mode="normal" in2="shape" result="effect1_innerShadow"/>
</filter>
<filter id="filter4_i" x="53" y="24" width="21.7086" height="56.08" filterUnits="userSpaceOnUse" color-interpolation-filters="sRGB">
<feFlood flood-opacity="0" result="BackgroundImageFix"/>
<feBlend mode="normal" in="SourceGraphic" in2="BackgroundImageFix" result="shape"/>
<feColorMatrix in="SourceAlpha" type="matrix" values="0 0 0 0 0 0 0 0 0 0 0 0 0 0 0 0 0 0 127 0" result="hardAlpha"/>
<feOffset dy="4"/>
<feGaussianBlur stdDeviation="2"/>
<feComposite in2="hardAlpha" operator="arithmetic" k2="-1" k3="1"/>
<feColorMatrix type="matrix" values="0 0 0 0 0 0 0 0 0 0 0 0 0 0 0 0 0 0 0.25 0"/>
<feBlend mode="normal" in2="shape" result="effect1_innerShadow"/>
</filter>
</defs>
</svg>