<svg width="108" height="108" viewBox="0 0 108 108" fill="none" xmlns="http://www.w3.org/2000/svg">
<g filter="url(#filter0_d)">
<g filter="url(#filter1_b)">
<rect x="4" width="100" height="100" rx="7" fill="#202124" fill-opacity="0.575408"/>
</g>
<g filter="url(#filter2_i)">
<path fill-rule="evenodd" clip-rule="evenodd" d="M42.0791 50.0037C42 49.8455 42 49.6081 42 49.4499C42 48.5795 42.3165 47.7883 42.9495 47.1553L60.9896 29.1152C61.6226 28.4822 62.4138 28.1657 63.2051 28.1657C63.9963 28.1657 64.8667 28.4822 65.4205 29.1152C66.0535 29.7481 66.37 30.5394 66.37 31.3306C66.37 32.1218 66.0535 32.9922 65.4205 33.5461L49.042 50.0037L65.4205 66.5405C66.0535 67.1735 66.37 68.0438 66.37 68.8351C66.37 69.6263 66.0535 70.4175 65.4205 71.0505C64.7875 71.6835 63.9963 72 63.2051 72C62.4138 72 61.6226 71.6835 60.9896 71.0505L42.9495 52.8522C42.3165 52.2192 42 51.4279 42 50.6367C42 50.3993 42 50.2411 42.0791 50.0037Z" fill="#C4C4C4"/>
</g>
</g>
<defs>
<filter id="filter0_d" x="0" y="0" width="108" height="108" filterUnits="userSpaceOnUse" color-interpolation-filters="sRGB">
<feFlood flood-opacity="0" result="BackgroundImageFix"/>
<feColorMatrix in="SourceAlpha" type="matrix" values="0 0 0 0 0 0 0 0 0 0 0 0 0 0 0 0 0 0 127 0"/>
<feOffset dy="4"/>
<feGaussianBlur stdDeviation="2"/>
<feColorMatrix type="matrix" values="0 0 0 0 0 0 0 0 0 0 0 0 0 0 0 0 0 0 0.79 0"/>
<feBlend mode="normal" in2="BackgroundImageFix" result="effect1_dropShadow"/>
<feBlend mode="normal" in="SourceGraphic" in2="effect1_dropShadow" result="shape"/>
</filter>
<filter id="filter1_b" x="-26.9068" y="-30.9068" width="161.814" height="161.814" filterUnits="userSpaceOnUse" color-interpolation-filters="sRGB">
<feFlood flood-opacity="0" result="BackgroundImageFix"/>
<feGaussianBlur in="BackgroundImage" stdDeviation="15.4534"/>
<feComposite in2="SourceAlpha" operator="in" result="effect1_backgroundBlur"/>
<feBlend mode="normal" in="SourceGraphic" in2="effect1_backgroundBlur" result="shape"/>
</filter>
<filter id="filter2_i" x="42" y="28.166" width="24.37" height="47.8343" filterUnits="userSpaceOnUse" color-interpolation-filters="sRGB">
<feFlood flood-opacity="0" result="BackgroundImageFix"/>
<feBlend mode="normal" in="SourceGraphic" in2="BackgroundImageFix" result="shape"/>
<feColorMatrix in="SourceAlpha" type="matrix" values="0 0 0 0 0 0 0 0 0 0 0 0 0 0 0 0 0 0 127 0" result="hardAlpha"/>
<feOffset dy="4"/>
<feGaussianBlur stdDeviation="2"/>
<feComposite in2="hardAlpha" operator="arithmetic" k2="-1" k3="1"/>
<feColorMatrix type="matrix" values="0 0 0 0 0 0 0 0 0 0 0 0 0 0 0 0 0 0 0.25 0"/>
<feBlend mode="normal" in2="shape" result="effect1_innerShadow"/>
</filter>
</defs>
</svg>
