<svg width="388" height="208" viewBox="0 0 388 208" fill="none" xmlns="http://www.w3.org/2000/svg">
<g filter="url(#filter0_d)">
<g filter="url(#filter1_b)">
<rect x="4" width="380" height="200" rx="7" fill="#202124" fill-opacity="0.575408"/>
</g>
<g filter="url(#filter2_i)">
<path d="M149 71.6839H154.177V109.286H149V115.916H154.177V120.004C154.177 122.183 156.448 124 159.354 124C162.17 124 164.531 122.183 164.531 120.004V118.641C164.531 117.188 166.075 115.916 167.983 115.916C169.89 115.916 171.434 117.188 171.434 118.641V120.004C171.434 122.183 173.705 124 176.52 124C179.427 124 181.698 122.183 181.698 120.004V118.641C181.698 117.188 183.242 115.916 185.149 115.916C187.056 115.916 188.6 117.188 188.6 118.641V120.004C188.6 122.183 190.962 124 193.777 124C196.593 124 198.955 122.183 198.955 120.004V118.641C198.955 117.188 200.499 115.916 202.406 115.916C204.313 115.916 205.857 117.188 205.857 118.641V120.004C205.857 122.183 208.128 124 211.035 124C213.85 124 216.212 122.183 216.212 120.004V118.641C216.212 117.188 217.665 115.916 219.572 115.916C221.48 115.916 223.024 117.188 223.024 118.641V120.004C223.024 122.183 225.385 124 228.201 124C231.107 124 233.378 122.183 233.378 120.004V115.916H238.555V109.286H233.378V71.6839H238.555V64.9628H233.378V60.9664C233.378 58.7866 231.107 56.97 228.201 56.97C225.385 56.97 223.024 58.7866 223.024 60.9664V62.3288C223.024 63.782 221.48 64.9628 219.572 64.9628C217.665 64.9628 216.212 63.782 216.212 62.3288V60.9664C216.212 58.7866 213.85 56.97 211.035 56.97C208.128 56.97 205.857 58.7866 205.857 60.9664V62.3288C205.857 63.782 204.313 64.9628 202.406 64.9628C200.499 64.9628 198.955 63.782 198.955 62.3288V60.9664C198.955 58.7866 196.593 56.97 193.777 56.97C190.962 56.97 188.6 58.7866 188.6 60.9664V62.3288C188.6 63.782 187.056 64.9628 185.149 64.9628C183.242 64.9628 181.698 63.782 181.698 62.3288V60.9664C181.698 58.7866 179.427 56.97 176.52 56.97C173.705 56.97 171.434 58.7866 171.434 60.9664V62.3288C171.434 63.782 169.89 64.9628 167.983 64.9628C166.075 64.9628 164.531 63.782 164.531 62.3288V60.9664C164.531 58.7866 162.17 56.97 159.354 56.97C156.448 56.97 154.177 58.7866 154.177 60.9664V64.9628H149V71.6839ZM172.252 24C172.978 24 173.523 24.3633 173.886 24.9083C174.431 25.8165 174.068 26.9973 173.16 27.3606C171.434 28.2688 170.344 29.4496 170.344 30.3579C170.344 31.2661 171.252 32.4469 173.16 33.3551C176.157 35.2625 177.883 37.4423 177.883 39.8946C177.883 42.347 176.157 44.6176 173.16 46.2525C172.252 46.8883 171.071 46.525 170.708 45.5259C170.344 44.6176 170.526 43.5277 171.434 43.0736C172.978 41.9837 174.068 40.8937 174.068 39.8946C174.068 38.9864 173.16 37.8965 171.252 36.8974C168.255 35.4441 166.62 32.9918 166.62 30.5395C166.62 28.0872 168.255 25.8165 171.252 24.1817C171.616 24 171.797 24 172.252 24ZM192.869 27.7239C193.596 27.7239 194.141 28.0872 194.504 28.6322C195.14 29.6312 194.686 30.7212 193.777 31.0845C192.052 32.0836 190.962 33.1735 190.962 34.0817C190.962 35.0808 191.87 36.1708 193.777 37.079C196.775 38.9864 198.5 41.257 198.5 43.7094C198.5 46.0708 196.775 48.3415 193.777 50.0672C192.869 50.6122 191.688 50.2489 191.325 49.3406C190.962 48.3415 191.144 47.2516 192.052 46.8883C193.596 45.7075 194.686 44.6176 194.686 43.7094C194.686 42.7103 193.777 41.6203 191.87 40.7121C188.873 39.168 187.238 36.7157 187.238 34.2634C187.238 31.9019 188.873 29.6312 191.87 27.9055C192.324 27.7239 192.506 27.7239 192.869 27.7239ZM213.487 24C214.213 24 214.758 24.3633 215.122 24.9083C215.757 25.8165 215.394 26.9973 214.395 27.3606C212.76 28.2688 211.579 29.4496 211.579 30.3579C211.579 31.2661 212.579 32.4469 214.395 33.3551C217.392 35.2625 219.118 37.4423 219.118 39.8946C219.118 42.347 217.392 44.6176 214.395 46.2525C213.487 46.8883 212.397 46.525 211.943 45.5259C211.398 44.6176 211.761 43.5277 212.76 43.0736C214.213 41.9837 215.394 40.8937 215.394 39.8946C215.394 38.9864 214.395 37.8965 212.579 36.8974C209.581 35.4441 207.856 32.9918 207.856 30.5395C207.856 28.0872 209.581 25.8165 212.579 24.1817C212.942 24 213.124 24 213.487 24ZM171.434 107.924C171.434 109.377 169.89 110.558 167.983 110.558C166.075 110.558 164.531 109.377 164.531 107.924V73.0463C164.531 71.5931 166.075 70.3215 167.983 70.3215C169.89 70.3215 171.434 71.5931 171.434 73.0463V107.924ZM188.6 107.924C188.6 109.377 187.056 110.558 185.149 110.558C183.242 110.558 181.698 109.377 181.698 107.924V73.0463C181.698 71.5931 183.242 70.3215 185.149 70.3215C187.056 70.3215 188.6 71.5931 188.6 73.0463V107.924ZM205.857 107.924C205.857 109.377 204.313 110.558 202.406 110.558C200.499 110.558 198.955 109.377 198.955 107.924V73.0463C198.955 71.5931 200.499 70.3215 202.406 70.3215C204.313 70.3215 205.857 71.5931 205.857 73.0463V107.924ZM223.024 107.924C223.024 109.377 221.48 110.558 219.572 110.558C217.665 110.558 216.212 109.377 216.212 107.924V73.0463C216.212 71.5931 217.665 70.3215 219.572 70.3215C221.48 70.3215 223.024 71.5931 223.024 73.0463V107.924Z" fill="#C4C4C4"/>
</g>
<g filter="url(#filter3_i)">
<text fill="#C4C4C4" xml:space="preserve" style="white-space: pre" font-family="SF Pro Text" font-size="24" font-weight="300" letter-spacing="0em"><tspan x="96.5039" y="170.031">&#x422;&#x435;&#x43f;&#x43b;&#x43e;&#x441;&#x43d;&#x430;&#x431;&#x436;&#x435;&#x43d;&#x438;&#x435;</tspan></text>
</g>
</g>
<defs>
<filter id="filter0_d" x="0" y="0" width="388" height="208" filterUnits="userSpaceOnUse" color-interpolation-filters="sRGB">
<feFlood flood-opacity="0" result="BackgroundImageFix"/>
<feColorMatrix in="SourceAlpha" type="matrix" values="0 0 0 0 0 0 0 0 0 0 0 0 0 0 0 0 0 0 127 0"/>
<feOffset dy="4"/>
<feGaussianBlur stdDeviation="2"/>
<feColorMatrix type="matrix" values="0 0 0 0 0 0 0 0 0 0 0 0 0 0 0 0 0 0 0.79 0"/>
<feBlend mode="normal" in2="BackgroundImageFix" result="effect1_dropShadow"/>
<feBlend mode="normal" in="SourceGraphic" in2="effect1_dropShadow" result="shape"/>
</filter>
<filter id="filter1_b" x="-26.9068" y="-30.9068" width="441.814" height="261.814" filterUnits="userSpaceOnUse" color-interpolation-filters="sRGB">
<feFlood flood-opacity="0" result="BackgroundImageFix"/>
<feGaussianBlur in="BackgroundImage" stdDeviation="15.4534"/>
<feComposite in2="SourceAlpha" operator="in" result="effect1_backgroundBlur"/>
<feBlend mode="normal" in="SourceGraphic" in2="effect1_backgroundBlur" result="shape"/>
</filter>
<filter id="filter2_i" x="149" y="24" width="89.5549" height="104" filterUnits="userSpaceOnUse" color-interpolation-filters="sRGB">
<feFlood flood-opacity="0" result="BackgroundImageFix"/>
<feBlend mode="normal" in="SourceGraphic" in2="BackgroundImageFix" result="shape"/>
<feColorMatrix in="SourceAlpha" type="matrix" values="0 0 0 0 0 0 0 0 0 0 0 0 0 0 0 0 0 0 127 0" result="hardAlpha"/>
<feOffset dy="4"/>
<feGaussianBlur stdDeviation="2"/>
<feComposite in2="hardAlpha" operator="arithmetic" k2="-1" k3="1"/>
<feColorMatrix type="matrix" values="0 0 0 0 0 0 0 0 0 0 0 0 0 0 0 0 0 0 0.25 0"/>
<feBlend mode="normal" in2="shape" result="effect1_innerShadow"/>
</filter>
<filter id="filter3_i" x="97.6523" y="152.363" width="197.379" height="21.8594" filterUnits="userSpaceOnUse" color-interpolation-filters="sRGB">
<feFlood flood-opacity="0" result="BackgroundImageFix"/>
<feBlend mode="normal" in="SourceGraphic" in2="BackgroundImageFix" result="shape"/>
<feColorMatrix in="SourceAlpha" type="matrix" values="0 0 0 0 0 0 0 0 0 0 0 0 0 0 0 0 0 0 127 0" result="hardAlpha"/>
<feOffset dy="4"/>
<feGaussianBlur stdDeviation="2"/>
<feComposite in2="hardAlpha" operator="arithmetic" k2="-1" k3="1"/>
<feColorMatrix type="matrix" values="0 0 0 0 0 0 0 0 0 0 0 0 0 0 0 0 0 0 0.25 0"/>
<feBlend mode="normal" in2="shape" result="effect1_innerShadow"/>
</filter>
</defs>
</svg>
