<svg width="19" height="19" viewBox="0 0 19 19" fill="none" xmlns="http://www.w3.org/2000/svg">
<path d="M7 7H6V8H7V7Z" fill="#157EFB"/>
<path d="M10 7H9V8H10V7Z" fill="#157EFB"/>
<path d="M12 7H13V8H12V7Z" fill="#157EFB"/>
<path d="M16 7H15V8H16V7Z" fill="#157EFB"/>
<path d="M15 11H16V12H15V11Z" fill="#157EFB"/>
<path d="M10 11H9V12H10V11Z" fill="#157EFB"/>
<path d="M3 11H4V12H3V11Z" fill="#157EFB"/>
<path d="M7 11H6V12H7V11Z" fill="#157EFB"/>
<path d="M3 15H4V16H3V15Z" fill="#157EFB"/>
<path d="M7 15H6V16H7V15Z" fill="#157EFB"/>
<path d="M9 15H10V16H9V15Z" fill="#157EFB"/>
<path d="M12 15V16H13V15H12Z" fill="#157EFB"/>
<path d="M11 11.5C11 10.6716 11.6714 10 12.5 10C13.3286 10 14 10.6716 14 11.5C14 12.3284 13.3286 13 12.5 13C11.6714 13 11 12.3284 11 11.5Z" fill="#157EFB"/>
<path fill-rule="evenodd" clip-rule="evenodd" d="M0 1.5C0 0.671631 0.671387 0 1.5 0H17.5C18.3286 0 19 0.671631 19 1.5V17.5C19 18.3284 18.3286 19 17.5 19H1.5C0.671387 19 0 18.3284 0 17.5V1.5ZM1 5.5C1 5.22388 1.22363 5 1.5 5H17.5C17.7764 5 18 5.22388 18 5.5V17.5C18 17.7761 17.7764 18 17.5 18H1.5C1.22363 18 1 17.7761 1 17.5V5.5Z" fill="#157EFB"/>
</svg>
