<svg width="29" height="29" viewBox="0 0 29 29" fill="none" xmlns="http://www.w3.org/2000/svg">
<path fill-rule="evenodd" clip-rule="evenodd" d="M13.1128 0.12993L13.4338 2.78081C13.6455 2.84395 13.8538 2.91511 14.0581 2.99395L15.9338 1.09311C16.1877 1.22073 16.436 1.3579 16.6782 1.50413L16.0728 4.10632C16.2488 4.23745 16.4197 4.37523 16.5847 4.51929L18.9976 3.37467C19.1924 3.58093 19.3794 3.79471 19.5579 4.01555L18.1001 6.2523C18.2209 6.4353 18.3345 6.62323 18.4412 6.81574L21.1013 6.56524C21.2134 6.82443 21.3157 7.08877 21.408 7.35783L19.2717 8.96205C19.322 9.17461 19.3645 9.39025 19.3984 9.60865L21.9814 10.2824C21.9939 10.4958 22 10.7108 22 10.9272C22 10.9962 21.9993 11.065 21.998 11.1337L19.4438 11.9099C19.4185 12.1296 19.385 12.3467 19.3433 12.5609L21.542 14.0787C21.4607 14.3514 21.3689 14.6196 21.2673 14.8829L18.5996 14.7387C18.5007 14.9355 18.3943 15.1279 18.281 15.3156L19.8269 17.4924C19.6572 17.7201 19.479 17.9411 19.2925 18.1548L16.8359 17.1073C16.6765 17.2578 16.5115 17.4022 16.3408 17.5401L17.0493 20.1159C16.813 20.2718 16.5703 20.4188 16.3218 20.5565L14.3718 18.7321C14.1707 18.8192 13.9656 18.8986 13.7568 18.9702L13.5415 21.6321C13.2671 21.697 12.9888 21.7516 12.707 21.7955L11.498 19.4129C11.3333 19.4224 11.1672 19.4272 11 19.4272C10.9468 19.4272 10.8936 19.4267 10.8406 19.4257L9.72754 21.8544C9.44385 21.8217 9.16382 21.7783 8.88721 21.7245L8.56616 19.0736C8.35449 19.0105 8.14624 18.9393 7.94189 18.8605L6.06616 20.7613C5.81226 20.6337 5.56396 20.4965 5.32178 20.3503L5.92725 17.7481C5.75122 17.617 5.58032 17.4792 5.41528 17.3351L3.00244 18.4797C2.80762 18.2735 2.62061 18.0597 2.44214 17.8389L3.8999 15.6021C3.77905 15.4191 3.66553 15.2312 3.55884 15.0387L0.898682 15.2892C0.786621 15.03 0.684326 14.7656 0.592041 14.4966L2.72827 12.8924C2.67798 12.6798 2.6355 12.4642 2.60156 12.2458L0.0185547 11.572C0.00610352 11.3586 0 11.1436 0 10.9272C0 10.8582 0.000732422 10.7894 0.00195312 10.7208L2.55615 9.94448C2.58154 9.72484 2.61499 9.50776 2.65674 9.29355L0.458008 7.77568C0.539307 7.50302 0.631104 7.2348 0.732666 6.97147L3.40039 7.1157C3.49927 6.91892 3.60571 6.72651 3.71899 6.53884L2.1731 4.36205C2.34277 4.13428 2.521 3.91329 2.70752 3.69958L5.16406 4.74715C5.32349 4.59665 5.48853 4.45225 5.65918 4.31431L4.95068 1.73846C5.18701 1.58258 5.42969 1.43557 5.67822 1.2979L7.62817 3.12227C7.82935 3.03525 8.03442 2.95579 8.24316 2.88422L8.4585 0.222292C8.73291 0.157404 9.01123 0.102791 9.29297 0.058876L10.502 2.44156C10.6667 2.43203 10.8328 2.42721 11 2.42721C11.0532 2.42721 11.1064 2.42769 11.1594 2.42867L12.2725 0C12.5562 0.0326653 12.8362 0.0761147 13.1128 0.12993ZM6.80664 17.1463L6.80322 17.1439C6.60498 17.0098 6.41333 16.8665 6.22925 16.7146C6.41455 16.8674 6.60718 17.0115 6.80664 17.1463ZM6.48242 6.25362C6.90137 5.84842 7.56787 6.00073 7.86011 6.50515L9.8396 9.92171C10.1995 10.5431 10.1987 11.3098 9.83765 11.9304L7.85132 15.343C7.55811 15.8469 6.89136 15.9979 6.47314 15.5918C5.25537 14.4098 4.5 12.7564 4.5 10.9272C4.5 9.0934 5.25903 7.43621 6.48242 6.25362ZM10.709 12.4211C11.0671 11.8058 11.7256 11.4272 12.4375 11.4272H16.4021C16.9844 11.4272 17.4502 11.9265 17.3105 12.4917C16.6101 15.3258 14.0505 17.4272 11 17.4272C10.3367 17.4324 9.73096 17.3486 9.15796 17.1785C8.60474 17.0141 8.41431 16.3635 8.70483 15.8646L10.709 12.4211ZM17.3105 9.36272C17.4502 9.9279 16.9844 10.4272 16.4021 10.4272H12.4409C11.7273 10.4272 11.0679 10.0472 10.7102 9.42984L8.7146 5.98535C8.42529 5.48579 8.6167 4.83558 9.17065 4.67241C9.73975 4.50467 10.3413 4.42202 11 4.42721C14.0505 4.42721 16.6101 6.52857 17.3105 9.36272Z" transform="translate(3.5 3.57324)" fill="white"/>
</svg>
