<svg width="28" height="28" viewBox="0 0 28 28" fill="none" xmlns="http://www.w3.org/2000/svg">
<path d="M6.5 9C7.88086 9 9 7.88071 9 6.5C9 5.11929 7.88086 4 6.5 4C5.11914 4 4 5.11929 4 6.5C4 7.88071 5.11914 9 6.5 9Z" transform="translate(3 3)" fill="white"/>
<path fill-rule="evenodd" clip-rule="evenodd" d="M3 0C1.34326 0 0 1.34314 0 3V19C0 20.6569 1.34326 22 3 22H19C20.6567 22 22 20.6569 22 19V3C22 1.34314 20.6567 0 19 0H3ZM19 2H3C2.44775 2 2 2.44772 2 3V17.8333L6.32715 12.785C6.69507 12.3557 7.34539 12.3166 7.76214 12.6986L13 17.5L11.5 14L15.84 9.22602C16.2065 8.82284 16.8284 8.78731 17.2384 9.14612L20 11.5625V3C20 2.44772 19.5522 2 19 2Z" transform="translate(3 3)" fill="white"/>
</svg>
