<svg width="35" height="35" viewBox="0 0 35 35" fill="none" xmlns="http://www.w3.org/2000/svg">
<path fill-rule="evenodd" clip-rule="evenodd" d="M17.5 6.66651C17.914 6.66651 18.25 6.33051 18.25 5.91651V0.749512C18.25 0.335512 17.914 -0.000488281 17.5 -0.000488281C17.086 -0.000488281 16.75 0.335512 16.75 0.749512V5.91651C16.75 6.33051 17.086 6.66651 17.5 6.66651ZM29.8742 6.18631L26.2212 9.83931C25.9282 10.1323 25.4532 10.1323 25.1602 9.83931C24.8672 9.54631 24.8672 9.07131 25.1602 8.77831L28.8142 5.12531C29.1062 4.83231 29.5812 4.83231 29.8742 5.12531C30.1672 5.41831 30.1672 5.89331 29.8742 6.18631ZM6.18601 5.12551C5.89401 4.83251 5.41801 4.83251 5.12501 5.12551C4.83201 5.41851 4.83201 5.89351 5.12501 6.18651L8.77901 9.83951C9.07201 10.1325 9.54701 10.1325 9.84001 9.83951C10.132 9.54651 10.132 9.07151 9.84001 8.77851L6.18601 5.12551ZM17.4648 10.1518C13.3918 10.1518 10.0898 13.4538 10.0898 17.5268C10.0898 21.5998 13.3918 24.9018 17.4648 24.9018C21.5378 24.9018 24.8398 21.5998 24.8398 17.5268C24.8398 13.4538 21.5378 10.1518 17.4648 10.1518ZM25.1602 25.1597C25.4532 24.8677 25.9282 24.8677 26.2212 25.1597L29.8742 28.8137C30.1672 29.1067 30.1672 29.5817 29.8742 29.8747C29.5812 30.1677 29.1062 30.1677 28.8142 29.8747L25.1602 26.2217C24.8672 25.9287 24.8672 25.4527 25.1602 25.1597ZM8.77881 25.1597L5.12581 28.8137C4.83281 29.1067 4.83281 29.5817 5.12581 29.8747C5.41881 30.1677 5.89381 30.1677 6.18581 29.8747L9.83981 26.2217C10.1328 25.9287 10.1328 25.4527 9.83981 25.1597C9.54681 24.8677 9.07181 24.8677 8.77881 25.1597ZM16.75 29.0835C16.75 28.6695 17.086 28.3335 17.5 28.3335C17.914 28.3335 18.25 28.6695 18.25 29.0835V34.2495C18.25 34.6635 17.914 34.9995 17.5 34.9995C17.086 34.9995 16.75 34.6635 16.75 34.2495V29.0835ZM6.66651 17.4995C6.66651 17.0855 6.33151 16.7495 5.91651 16.7495H0.749512C0.335512 16.7495 -0.000488281 17.0855 -0.000488281 17.4995C-0.000488281 17.9135 0.335512 18.2495 0.749512 18.2495H5.91651C6.33151 18.2495 6.66651 17.9135 6.66651 17.4995ZM29.083 16.7495H34.25C34.664 16.7495 35 17.0855 35 17.4995C35 17.9135 34.664 18.2495 34.25 18.2495H29.083C28.669 18.2495 28.333 17.9135 28.333 17.4995C28.333 17.0855 28.669 16.7495 29.083 16.7495Z" fill="#007aff"/>
</svg>
