<svg width="26" height="26" viewBox="0 0 26 26" version="1.1" xmlns="http://www.w3.org/2000/svg" xmlns:xlink="http://www.w3.org/1999/xlink">
<title>Close Icon</title>
<desc>Created using Figma</desc>
<g id="Canvas" transform="translate(1210 6638)">
<g id="Close Icon">
<use xlink:href="#path0_fill" transform="translate(-1210 -6638)" fill="#8A8A8F"/>
</g>
</g>
<defs>
<path id="path0_fill" fill-rule="evenodd" d="M 18.1647 16.2276C 18.7033 16.7662 18.707 17.6297 18.1684 18.1702C 17.6354 18.7032 16.7681 18.7069 16.2277 18.1665L 12.9981 14.9387L 9.77043 18.1665C 9.23001 18.7032 8.36829 18.7069 7.82972 18.1702C 7.29486 17.6335 7.29301 16.7699 7.83343 16.2276L 11.0611 12.9999L 7.83343 9.77217C 7.29858 9.23545 7.29301 8.37188 7.82972 7.83146C 8.36458 7.29474 9.22815 7.29288 9.77043 7.83146L 12.9981 11.0592L 16.2277 7.83146C 16.7644 7.2966 17.6317 7.29288 18.1684 7.83146C 18.7033 8.36631 18.707 9.22803 18.1647 9.77217L 14.9389 12.9999L 18.1647 16.2276ZM 13 0C 5.82214 0 0 5.82214 0 13C 0 20.1779 5.82214 26 13 26C 20.1797 26 26 20.1779 26 13C 26 5.82214 20.1797 0 13 0Z"/>
</defs>
</svg>
