<svg width="42" height="31" viewBox="0 0 42 31" fill="none" xmlns="http://www.w3.org/2000/svg">
<path fill-rule="evenodd" clip-rule="evenodd" d="M25.2 0H16.8C7.52222 0 0 6.40625 0 14.3076V16.6924C0 24.5947 7.52222 31 16.8 31H25.2C34.4778 31 42 24.5947 42 16.6924V14.3076C42 6.40625 34.4778 0 25.2 0ZM20.6946 23C18.6184 23 16.6641 22.2686 15.1985 20.8057C13.7329 19.3428 13 17.3921 13 15.3198C13 13.3691 13.855 11.4189 15.1985 9.95605C16.6641 8.49316 18.6184 7.76172 20.6946 7.76172C21.7939 7.76172 22.771 8.00537 23.748 8.37109C24.1145 8.49316 24.2366 8.98096 24.1145 9.22461C23.9924 9.59033 23.626 9.7124 23.2595 9.59033C22.4045 9.22461 21.5496 8.98096 20.6946 8.98096C18.9846 8.98096 17.397 9.7124 16.1755 10.9312C14.9541 12.0283 14.3435 13.7349 14.3435 15.3198C14.3435 18.855 17.1526 21.6587 20.6946 21.7808C22.4045 21.7808 23.9924 21.0493 25.0916 19.8301C26.313 18.6113 27.0459 17.0264 27.0459 15.3198V14.7104C27.0459 14.3447 27.29 14.1006 27.6565 14.1006C28.0229 14.1006 28.2671 14.3447 28.2671 14.7104V15.3198C28.2671 17.3921 27.5344 19.3428 26.0686 20.8057C24.603 22.2686 22.6489 23 20.6946 23ZM20.2061 17.8076C20.3281 17.9297 20.4504 18.0513 20.6946 18.0513C20.8167 18.0513 20.939 17.9297 21.061 17.8076L28.7556 10.1274C29 10.0059 29 9.88379 29 9.64014C29 9.56982 29 9.49951 28.9529 9.4292C28.9185 9.37744 28.8589 9.32568 28.7556 9.27441C28.5115 8.90869 28.145 8.90869 27.9006 9.27441L20.6946 16.4668L18.9846 14.7598C18.7405 14.5161 18.374 14.5161 18.1296 14.7598C17.8855 15.1255 17.8855 15.4912 18.1296 15.7354L20.2061 17.8076Z" fill="#007AFF"/>
</svg>
