<svg width="18" height="28" viewBox="0 0 18 28" fill="none" xmlns="http://www.w3.org/2000/svg">
<g filter="url(#filter0_d)">
<path d="M2 2C2 0.89543 2.89543 0 4 0H14C15.1046 0 16 0.895431 16 2V24L9 18L2 24V2Z" fill="#929292"/>
</g>
<path d="M5.89062 6.92383V6.92969H6.91016V6.92383C6.91016 5.92773 7.57812 5.26562 8.56836 5.26562C9.5 5.26562 10.2207 5.91602 10.2207 6.75977C10.2207 7.43945 9.95703 7.89648 8.86719 9.08008L5.94336 12.2734V13H11.416V12.0508H7.45508V11.957L9.48828 9.77148C10.877 8.2832 11.2754 7.59766 11.2754 6.71875C11.2754 5.37695 10.1152 4.3457 8.59766 4.3457C7.02734 4.3457 5.89062 5.42383 5.89062 6.92383Z" fill="white"/>
<defs>
<filter id="filter0_d" x="0" y="0" width="18" height="28" filterUnits="userSpaceOnUse" color-interpolation-filters="sRGB">
<feFlood flood-opacity="0" result="BackgroundImageFix"/>
<feColorMatrix in="SourceAlpha" type="matrix" values="0 0 0 0 0 0 0 0 0 0 0 0 0 0 0 0 0 0 127 0"/>
<feOffset dy="2"/>
<feGaussianBlur stdDeviation="1"/>
<feColorMatrix type="matrix" values="0 0 0 0 0 0 0 0 0 0 0 0 0 0 0 0 0 0 0.25 0"/>
<feBlend mode="normal" in2="BackgroundImageFix" result="effect1_dropShadow"/>
<feBlend mode="normal" in="SourceGraphic" in2="effect1_dropShadow" result="shape"/>
</filter>
</defs>
</svg>
