<svg width="26" height="26" viewBox="0 0 26 26" fill="none" xmlns="http://www.w3.org/2000/svg">
<path d="M25.6632 0H0.404145C0.202073 0 0 0.202073 0 0.404145V25.5959C0 25.7979 0.134715 26 0.404145 26H25.5959C25.7979 26 26 25.7979 26 25.5959V0.336788C26 0.134715 25.8653 0 25.6632 0ZM17.5803 22.1606C16.4352 22.1606 15.8964 21.8912 15.1554 21.0829C14.4145 20.2746 14.0777 19.3316 14.0777 17.9171C14.0777 16.9741 14.2124 15.0881 14.4819 12.1244L15.0207 6.46632H10.8446C10.5751 11.2487 10.3057 14.7513 9.90155 16.9741C9.49741 19.1969 9.09326 20.6114 8.62176 21.2176C8.15026 21.8912 7.54404 22.1606 6.73575 22.1606C6.12953 22.1606 5.65803 21.9585 5.18653 21.6218C4.78238 21.285 4.58031 20.8135 4.58031 20.2073C4.58031 19.6684 4.9171 18.9275 5.65803 17.9845C6.66839 16.5699 7.47668 15.1554 7.94819 13.6736C8.48705 12.1917 8.82383 9.76684 9.09326 6.53368H7.74611C6.66839 6.53368 5.8601 6.80311 5.25389 7.27461C4.71503 7.74611 4.17617 8.41969 3.63731 9.29534H2.96373C3.36788 7.88083 3.83938 6.73575 4.4456 5.8601C5.05181 4.98446 5.65803 4.37824 6.33161 4.10881C6.93782 3.83938 8.0829 3.70466 9.69948 3.70466H22.228V6.60104H17.6477L17.2435 12.5959C17.1762 13.6062 17.1088 14.5492 17.1088 15.2902C17.1088 17.1088 17.4456 18.3212 17.715 18.5907C17.9845 18.9275 18.3212 19.1969 18.9275 19.1969C20.2073 19.1969 21.285 18.3886 21.487 16.8394H22.1606C21.8238 20.342 20.0052 22.1606 17.5803 22.1606Z" fill="#4C79BB"/>
</svg>
