<svg width="25" height="27" viewBox="0 0 25 27" version="1.1" xmlns="http://www.w3.org/2000/svg" xmlns:xlink="http://www.w3.org/1999/xlink">
<g id="Canvas" fill="none">
<g id="Icon">
<g id="Layer x0020 1">
<g id="Vector">
<path d="M 5.71865 13.1484C 5.71865 11.212 6.45582 9.44291 7.63976 8.17589C 8.84604 6.90886 10.4768 6.11996 12.2862 6.11996C 14.0732 6.11996 15.7263 6.90886 16.9102 8.17589C 18.0942 9.44291 18.8313 11.212 18.8313 13.1484C 18.8313 15.0608 18.0942 16.8299 16.9102 18.0969C 15.7263 19.3639 14.0732 20.1528 12.2862 20.1528C 10.4768 20.1528 8.84604 19.3639 7.63976 18.0969C 6.45582 16.8299 5.71865 15.0608 5.71865 13.1484ZM 9.24813 9.89713C 8.48863 10.7338 7.99718 11.8813 7.99718 13.1484C 7.99718 14.3915 8.46629 15.539 9.24813 16.3757C 10.03 17.2124 11.1022 17.7144 12.2862 17.7144C 13.4478 17.7144 14.52 17.2124 15.3019 16.3757C 16.0837 15.539 16.5528 14.3915 16.5528 13.1484C 16.5528 11.8813 16.0837 10.7338 15.3019 9.89713C 14.52 9.06041 13.4478 8.55838 12.2862 8.55838C 11.1022 8.55838 10.03 9.06041 9.24813 9.89713ZM 19.4345 11.1402C 19.3451 10.8056 19.2334 10.447 19.0994 10.1123C 18.9654 9.7776 18.8313 9.44291 18.6526 9.13213C 18.4739 8.79745 18.3846 8.41495 18.3846 8.03245C 18.4069 7.67386 18.5186 7.29136 18.742 6.98058L 18.7197 6.98058L 19.5462 5.76137L 19.1664 5.37887L 18.0495 6.23949L 18.0272 6.23949C 17.7368 6.47855 17.4017 6.57418 17.0443 6.59808C 16.7092 6.62199 16.3518 6.52637 16.039 6.33512C 15.7263 6.14387 15.4136 5.97653 15.1008 5.83309C 14.7881 5.68965 14.4307 5.57012 14.0956 5.4745C 13.7382 5.37887 13.4254 5.16372 13.1797 4.90075C 12.9563 4.61388 12.7776 4.27919 12.7329 3.89669L 12.4872 2.43842L 11.9734 2.43842L 11.7277 3.9206C 11.683 4.3031 11.5043 4.66169 11.2809 4.92466C 11.0576 5.18762 10.7448 5.40278 10.4097 5.4984L 10.3874 5.4984C 10.0523 5.59403 9.73958 5.71356 9.42684 5.857C 9.1141 6.00043 8.80136 6.16777 8.48863 6.35902C 8.17589 6.55027 7.81847 6.6459 7.48339 6.62199C 7.12598 6.62199 6.76856 6.50246 6.47816 6.2634L 5.36124 5.40278L 4.98148 5.80918L 5.80801 7.02839C 6.00905 7.36308 6.12075 7.72167 6.14308 8.08026C 6.16542 8.46276 6.07607 8.84526 5.89736 9.17994C 5.71865 9.46682 5.56228 9.8015 5.45059 10.1601C 5.31656 10.4948 5.20487 10.8534 5.11551 11.212C 5.02616 11.5945 4.82511 11.9291 4.57939 12.1921C 4.31133 12.4312 3.97625 12.5985 3.64117 12.6702L 2.27853 12.9093L 2.27853 13.483L 3.66351 13.7221C 4.02093 13.7938 4.33367 13.9612 4.60173 14.2241C 4.84745 14.4632 5.0485 14.7979 5.13785 15.1565L 5.13785 15.1804C 5.22721 15.539 5.3389 15.8737 5.47293 16.2083C 5.60696 16.543 5.76333 16.8777 5.94204 17.2124C 6.12075 17.5471 6.2101 17.9296 6.18776 18.2882C 6.18776 18.6707 6.07607 19.0293 5.85268 19.3639L 5.0485 20.5592L 5.42825 20.9657L 6.56752 20.0811C 6.72389 19.9616 6.90259 19.866 7.0813 19.8182C 7.26001 19.7464 7.46106 19.7225 7.63976 19.7225C 7.79613 19.7225 7.9525 19.7464 8.10887 19.7943C 8.26524 19.8182 8.42161 19.8899 8.55564 19.9855C 8.84604 20.1528 9.15878 20.3202 9.47152 20.4636C 9.78426 20.6071 10.1193 20.7266 10.4321 20.7983C 10.7672 20.8939 11.0799 21.1091 11.3256 21.3721C 11.5713 21.6589 11.7277 21.9936 11.7947 22.3761L 12.0181 23.8344L 12.5319 23.8344L 12.7553 22.4C 12.8223 22.0175 12.9787 21.6589 13.2244 21.3721C 13.4701 21.1091 13.7828 20.8939 14.1403 20.7983C 14.453 20.7027 14.7881 20.5832 15.1008 20.4397C 15.4136 20.2963 15.7263 20.1528 16.0167 19.9616C 16.3294 19.7703 16.6869 19.6747 17.0443 19.6747C 17.3793 19.6986 17.7368 19.8182 18.0272 20.0333L 19.1664 20.9178L 19.5238 20.5114L 18.7197 19.2922C 18.5186 18.9575 18.4069 18.5989 18.3846 18.2404C 18.3846 17.8579 18.4516 17.4754 18.6303 17.1407C 18.809 16.8299 18.9654 16.4952 19.0994 16.1605C 19.2334 15.8258 19.3451 15.4672 19.4345 15.1087C 19.5238 14.7501 19.7025 14.4154 19.9706 14.1524C 20.2163 13.9134 20.5514 13.7221 20.9088 13.6504L 22.2715 13.4113L 22.2715 13.1005L 22.2715 12.8615L 20.9088 12.6224L 20.9088 12.5985C 20.5514 12.5507 20.2387 12.3834 19.9706 12.1204C 19.7249 11.8813 19.5238 11.5466 19.4345 11.1402ZM 21.1992 9.17994C 21.3333 9.53854 21.4673 9.89713 21.5566 10.2557L 23.4554 10.6143C 23.7905 10.6621 24.0586 10.8295 24.2373 11.0685C 24.4383 11.3076 24.55 11.6184 24.55 11.9531L 24.55 14.3198L 24.55 15.539L 23.8575 15.539C 23.7235 15.6107 23.5894 15.6346 23.4554 15.6585L 21.5566 16.0171C 21.445 16.3757 21.3333 16.7343 21.1992 17.0929C 21.0652 17.4515 20.9088 17.7861 20.7301 18.1208L 21.8694 19.8421C 22.0481 20.105 22.1151 20.4397 22.0928 20.7266C 22.0704 21.0374 21.9587 21.3481 21.7353 21.5872L 20.1717 23.2606L 20.1493 23.2606C 19.9929 23.428 19.8366 23.5236 19.6802 23.5953C 19.5015 23.6431 19.3675 23.667 19.2558 23.667C 19.1441 23.667 19.0101 23.6431 18.876 23.5953C 18.742 23.5475 18.6303 23.4758 18.5409 23.4041L 16.9326 22.1849C 16.6198 22.3761 16.3071 22.5435 15.972 22.6869C 15.6369 22.8303 15.3019 22.9738 14.9668 23.0694L 14.6317 25.1014C 14.587 25.46 14.4307 25.7469 14.2073 25.9381L 14.2073 25.962C 13.9616 26.1533 13.6712 26.2728 13.3808 26.2728L 11.1692 26.2728C 10.8565 26.2728 10.5661 26.1533 10.3427 25.9381C 10.1193 25.7469 9.96297 25.4361 9.91829 25.1014L 9.58321 23.0694C 9.27047 22.9738 8.9354 22.8542 8.62266 22.7108C 8.30992 22.5674 7.97484 22.4 7.68444 22.2327L 6.05373 23.4519L 5.98671 23.4997C 5.78567 23.6431 5.58462 23.7149 5.31656 23.7149C 5.22721 23.7149 5.09318 23.6909 4.91447 23.6431C 4.7581 23.5714 4.57939 23.4758 4.42302 23.3084L 2.85933 21.635C 2.63594 21.396 2.52425 21.1091 2.47957 20.7983C 2.45723 20.5114 2.52425 20.2007 2.70296 19.9377L 2.7253 19.8899L 3.84222 18.1925C 3.68585 17.8579 3.52948 17.5232 3.37311 17.1646C 3.23908 16.806 3.12739 16.4474 3.0157 16.0649L 1.07225 15.7302L 1.07225 15.7063C 0.759509 15.6585 0.491447 15.4912 0.312739 15.2521C 0.111692 15.013 0 14.7023 0 14.3676L 0 12.0248C 0 11.6901 0.111692 11.3793 0.312739 11.1402L 0.312739 11.1163C 0.513785 10.9012 0.781847 10.7099 1.09459 10.6621L 2.99336 10.3274C 3.08271 9.96884 3.1944 9.58635 3.32843 9.25166C 3.46247 8.89307 3.61884 8.55838 3.79754 8.19979L 2.65828 6.47855C 2.45723 6.21559 2.39022 5.8809 2.41256 5.57012C 2.4349 5.25934 2.56893 4.97247 2.79231 4.73341L 4.35601 3.05998C 4.49004 2.89264 4.66874 2.79701 4.82511 2.7253C 5.00382 2.67748 5.13785 2.65358 5.24955 2.65358C 5.38358 2.65358 5.51761 2.67748 5.6293 2.7253L 5.69631 2.7492C 5.78567 2.79701 5.89736 2.84483 5.98671 2.91654L 7.57275 4.11185C 7.88549 3.94451 8.19823 3.77716 8.5333 3.60982C 8.86838 3.46638 9.20346 3.34685 9.53854 3.22732L 9.87361 1.14749C 9.91829 0.812807 10.0747 0.54984 10.3204 0.334685C 10.5438 0.119531 10.8342 0 11.1246 0L 13.3361 0C 13.6488 0 13.9392 0.119531 14.1626 0.334685C 14.386 0.54984 14.5424 0.836714 14.6094 1.1714L 14.587 1.1714L 14.9221 3.20342C 15.2572 3.29904 15.6146 3.44248 15.9497 3.58592C 16.3071 3.72935 16.6198 3.89669 16.9549 4.08794L 18.5409 2.86873L 18.5856 2.84483L 18.6303 2.82092C 18.6973 2.77311 18.7643 2.7253 18.876 2.67748C 19.0101 2.65358 19.1441 2.60577 19.2781 2.60577C 19.4568 2.60577 19.8589 2.67748 20.1717 3.01217L 21.7353 4.6856C 21.9587 4.92466 22.0704 5.21153 22.0928 5.52231L 22.0928 5.54622C 22.1374 5.83309 22.0481 6.11996 21.9141 6.38293L 21.8694 6.45465L 20.7301 8.15198C 20.9088 8.48667 21.0652 8.82135 21.1992 9.17994Z" transform="translate(0.219727 0.112305)" fill="#FF9500"/>
</g>
</g>
</g>
</g>
</svg>

