<svg width="26" height="28" viewBox="0 0 26 28" version="1.1" xmlns="http://www.w3.org/2000/svg" xmlns:xlink="http://www.w3.org/1999/xlink">
<g id="Canvas" fill="none">
<g id="Icon">
<g id="Layer x0020 1">
<g id="Vector">
<path d="M 8.95627 13.7603C 8.92813 13.7151 8.88593 13.6699 8.82966 13.6097C 8.74526 13.5194 8.66085 13.4291 8.56238 13.3689C 8.35137 13.1882 8.12628 13.0075 7.91527 12.8419L 7.91527 12.8269L 7.21189 12.2548L 7.18376 12.2397C 5.86141 11.1407 4.45465 9.98153 3.14637 9.18363C 3.0479 9.12341 2.97756 9.0933 2.92129 9.07825L 2.90722 9.07825L 2.86502 9.10836C 2.79468 9.16858 2.72435 9.28902 2.65401 9.42451C 2.55553 9.60517 2.47113 9.81593 2.40079 10.0719L 2.38672 10.0719C 2.31639 10.3428 2.24605 10.6439 2.18978 10.9751C 2.06317 11.8784 2.0491 12.9022 2.17571 13.8657C 2.28825 14.7087 2.51333 15.4765 2.82282 16.0185C 2.96349 16.2594 3.11824 16.4099 3.30111 16.5002C 3.49806 16.6207 3.73721 16.6658 3.99042 16.6508C 4.38432 16.6508 4.82041 16.5303 5.27057 16.3497C 5.84734 16.1239 6.43818 15.7927 6.97275 15.4163C 7.35257 15.1754 7.71833 14.9044 8.05595 14.6335C 8.3373 14.4076 8.57645 14.1969 8.75932 14.0012C 8.84373 13.9108 8.91407 13.8355 8.95627 13.7603ZM 13.0218 15.4765C 13.4298 15.4314 13.7674 15.2356 14.0206 14.9496C 14.3019 14.6184 14.4707 14.1517 14.4848 13.6097L 14.4707 13.4742C 14.4145 13.0075 14.1753 12.6011 13.8658 12.3C 13.5704 12.044 13.2187 11.8784 12.9093 11.8784C 12.853 11.8935 12.7967 11.8935 12.7404 11.8935L 12.7264 11.8935L 12.7123 11.8935C 12.2621 11.9236 11.8542 12.1193 11.5869 12.4505L 11.5728 12.4505C 11.3056 12.7817 11.1227 13.2334 11.1227 13.7753C 11.1367 14.2721 11.3337 14.7087 11.6291 14.9948C 11.9105 15.2658 12.2762 15.4464 12.7123 15.4916C 12.7686 15.4765 12.8248 15.4765 12.8811 15.4765C 12.9374 15.4765 12.9796 15.4765 13.0218 15.4765ZM 15.554 16.4551C 15.3992 16.6357 15.2163 16.8164 15.0194 16.9669C 15.1319 17.1024 15.2445 17.268 15.357 17.4186C 15.6243 17.7949 15.9056 18.2315 16.1729 18.7133C 16.5949 19.4058 16.9748 20.1736 17.2421 20.9564C 17.4812 21.649 17.636 22.3565 17.6641 23.0491C 17.6782 23.6964 17.5656 24.3137 17.2843 24.8707C 17.031 25.3976 16.6372 25.8643 16.0885 26.2407C 15.3289 26.7525 14.3301 27.0837 13.2609 27.2493C 12.1637 27.4149 10.982 27.4149 9.92693 27.2343C 9.51897 27.159 9.12508 27.0536 8.78746 26.9482C 8.40764 26.8127 8.07001 26.6622 7.78866 26.4966C 7.47918 26.3009 7.19783 26.0751 6.97275 25.8041L 6.97275 25.8191C 6.71953 25.518 6.55072 25.1868 6.45225 24.8105C 6.38191 24.4943 6.38191 24.1631 6.43818 23.8018C 6.49445 23.5158 6.60699 23.2147 6.7758 22.8985C 7.18376 22.1307 7.67612 21.3328 8.21069 20.55C 8.74526 19.7521 9.27982 19.0144 9.81439 18.2918L 9.941 18.096C 10.1801 17.7799 10.4052 17.4637 10.7006 17.0422C 10.5318 16.9218 10.3771 16.7863 10.2224 16.6508C 10.0395 16.4701 9.88473 16.2744 9.74405 16.0637C 9.60338 16.1841 9.44863 16.3045 9.30796 16.425C 8.9422 16.711 8.53424 17.0121 8.08408 17.3132C 7.43697 17.7498 6.71953 18.1563 6.00208 18.4423C 5.35498 18.6982 4.67973 18.8789 4.0467 18.8939C 3.44179 18.909 2.86502 18.7886 2.33045 18.4875C 1.83809 18.2165 1.402 17.7949 1.06437 17.2078C 0.57201 16.4099 0.262524 15.326 0.107781 14.1818C -0.0469624 13.0226 -0.0328948 11.7429 0.135916 10.6289C 0.206254 10.1923 0.290659 9.78582 0.403199 9.3944C 0.51574 9.00298 0.656415 8.64166 0.825226 8.32551C 1.0081 7.99431 1.21912 7.69321 1.45827 7.45234C 1.73962 7.18135 2.0491 7.00069 2.40079 6.89531C 2.69621 6.82004 3.0057 6.82004 3.34332 6.89531C 3.6106 6.95553 3.89195 7.06091 4.1733 7.24157C 5.60819 8.11475 7.08529 9.31913 8.46391 10.4633L 8.49204 10.4783L 8.49204 10.4934L 9.18135 11.0655L 9.67372 11.4569C 9.78626 11.2762 9.91286 11.0956 10.0395 10.945C 10.2083 10.7493 10.3912 10.5687 10.5881 10.4181C 10.4756 10.2676 10.349 10.117 10.2364 9.95142C 9.96913 9.54495 9.68778 9.10836 9.4205 8.65672C 9.01254 7.9642 8.63272 7.19641 8.36543 6.42861C 8.11222 5.72104 7.95747 5.01347 7.94341 4.336C 7.92934 3.68865 8.04188 3.05635 8.30916 2.49932C 8.57645 1.97241 8.95627 1.50571 9.5049 1.12934C 10.2646 0.61748 11.2774 0.286276 12.3465 0.120674C 13.4298 -0.0449287 14.6114 -0.0449287 15.6665 0.150783C 16.0745 0.211002 16.4543 0.316385 16.82 0.436823L 16.82 0.421768C 17.1717 0.542206 17.5093 0.707809 17.8048 0.873411L 17.8048 0.888466C 18.1283 1.06912 18.4097 1.29494 18.6207 1.56593L 18.6347 1.55087C 18.8739 1.85197 19.0568 2.18317 19.1412 2.55954C 19.2115 2.87569 19.2256 3.22195 19.1552 3.56821C 19.099 3.86931 18.9864 4.15535 18.8317 4.4715C 18.4237 5.23929 17.9173 6.03719 17.3827 6.82004C 16.8482 7.61794 16.3136 8.35562 15.7931 9.07825L 15.2585 9.83099L 14.8928 10.3428C 15.0053 10.4181 15.1179 10.5085 15.2163 10.6138C 15.4555 10.8246 15.6665 11.0655 15.8494 11.3365C 15.99 11.201 16.1448 11.0805 16.2995 10.945L 16.2995 10.9601C 16.6794 10.659 17.0873 10.3579 17.5093 10.0719C 18.1564 9.63527 18.8739 9.2288 19.6054 8.94276C 20.2525 8.68683 20.9137 8.50617 21.5608 8.49111C 22.1516 8.47606 22.7284 8.5965 23.263 8.89759L 23.263 8.88254C 23.7553 9.16858 24.1914 9.57506 24.5431 10.1772L 24.5431 10.1622C 25.0214 10.9751 25.345 12.0591 25.4856 13.2032C 25.6404 14.3625 25.6404 15.6271 25.4716 16.7562C 25.4012 17.2078 25.3168 17.6293 25.2043 17.9907C 25.0777 18.3821 24.937 18.7434 24.7823 19.0595C 24.5994 19.3908 24.3884 19.6918 24.1492 19.9327C 23.8679 20.2037 23.5584 20.3844 23.2067 20.4747C 22.9113 20.565 22.5877 20.565 22.2642 20.4897C 21.9969 20.4295 21.7155 20.3241 21.4201 20.1435C 20.7027 19.7069 19.9571 19.1649 19.2256 18.6079C 18.48 18.0358 17.7907 17.4487 17.1154 16.8917L 17.0029 16.8013C 16.6653 16.5303 16.3558 16.2594 15.9338 15.9282C 15.8212 16.1088 15.6946 16.2895 15.554 16.4551ZM 14.1472 7.72332C 14.6677 6.98564 15.2163 6.2329 15.6946 5.51027C 16.187 4.8027 16.6372 4.06502 17.017 3.35744C 17.0732 3.26712 17.1014 3.19184 17.1154 3.11657C 17.1154 3.11657 17.1154 3.11657 17.1154 3.10151L 17.0873 3.05635C 17.017 2.98108 16.9185 2.9058 16.7919 2.83053C 16.6231 2.72515 16.4121 2.63482 16.187 2.55954C 15.9338 2.46921 15.6524 2.409 15.3429 2.34878C 14.4989 2.19823 13.5282 2.19823 12.6279 2.33372C 11.8401 2.45416 11.1227 2.67998 10.6303 3.02624C 10.4052 3.17679 10.2505 3.34239 10.1661 3.52305C 10.0676 3.74887 10.0254 4.0048 10.0254 4.27578C 10.0395 4.69732 10.152 5.16401 10.3208 5.64577C 10.5318 6.24796 10.8413 6.88026 11.193 7.46739C 11.4322 7.88892 11.6713 8.28035 11.9105 8.61155L 11.9245 8.61155C 12.1215 8.91265 12.3325 9.16858 12.5013 9.36429L 12.5154 9.36429C 12.5998 9.45462 12.6701 9.52989 12.7404 9.59011C 12.7826 9.56 12.8248 9.49978 12.8811 9.45462C 12.9655 9.36429 13.0359 9.25891 13.1062 9.16858L 13.5986 8.47606L 13.5986 8.461L 14.1472 7.72332ZM 23.4036 16.4099C 23.5443 15.5066 23.5443 14.4678 23.4177 13.5194C 23.3052 12.6763 23.0942 11.9085 22.7847 11.3666C 22.644 11.1257 22.4752 10.9751 22.3064 10.8698C 22.1094 10.7644 21.8703 10.7192 21.603 10.7192C 21.2232 10.7343 20.773 10.8547 20.3229 11.0354C 19.7601 11.2612 19.1693 11.5924 18.6207 11.9688C 18.2409 12.2247 17.8751 12.4957 17.5515 12.7366L 17.5515 12.7516C 17.2843 12.9624 17.0451 13.1731 16.8482 13.3839C 16.7638 13.4742 16.6934 13.5495 16.6372 13.6248C 16.6794 13.6699 16.7216 13.7151 16.7778 13.7753C 16.8622 13.8807 16.9607 13.956 17.031 14.0162L 17.0451 14.0162C 17.2702 14.1969 17.7626 14.6184 18.2831 15.0399L 18.3815 15.1303C 19.0708 15.6873 19.7742 16.2744 20.4495 16.7863C 21.1247 17.3132 21.7999 17.7949 22.4611 18.2014C 22.5455 18.2616 22.6299 18.2918 22.6862 18.3068L 22.7003 18.3068L 22.7425 18.2767C 22.8128 18.2014 22.8831 18.096 22.9535 17.9606C 23.052 17.7648 23.1364 17.5541 23.2067 17.3132C 23.2911 17.0272 23.3614 16.7261 23.4036 16.4099ZM 15.568 23.0942C 15.568 22.6727 15.4555 22.206 15.2867 21.7242C 15.0757 21.122 14.7521 20.4897 14.4145 19.9026C 14.1753 19.5112 13.9362 19.1198 13.683 18.7585C 13.472 18.4574 13.275 18.2014 13.0921 18.0057C 13.0077 17.9154 12.9374 17.8401 12.867 17.7799C 12.8248 17.8251 12.7686 17.8702 12.7264 17.9304C 12.642 18.0057 12.5576 18.1111 12.4872 18.2014C 12.3325 18.4272 11.9667 18.9542 11.5869 19.466L 11.4603 19.6467C 10.9257 20.3844 10.3912 21.1371 9.8988 21.8597C 9.4205 22.5824 8.95627 23.305 8.59051 24.0126C 8.53424 24.1029 8.50611 24.1932 8.49204 24.2534L 8.47797 24.2685L 8.52018 24.3137C 8.57645 24.3889 8.67492 24.4642 8.80153 24.5395L 8.81559 24.5395C 8.98441 24.6449 9.19542 24.7352 9.4205 24.8105C 9.68778 24.9008 9.96913 24.9761 10.2646 25.0212C 11.1086 25.1718 12.0652 25.1718 12.9655 25.0363C 13.7533 24.9158 14.4707 24.69 14.9772 24.3438C 15.1882 24.1932 15.3429 24.0276 15.4414 23.847L 15.4273 23.847C 15.5399 23.6211 15.5821 23.3652 15.568 23.0942Z" transform="translate(0.201172 0.0288086)" fill="#8A8A8F"/>
</g>
</g>
</g>
</g>
</svg>

