<svg width="11" height="27" viewBox="0 0 11 27" version="1.1" xmlns="http://www.w3.org/2000/svg" xmlns:xlink="http://www.w3.org/1999/xlink">
<g id="Canvas" fill="none">
<g id="Icon">
<g id="Layer x0020 1">
<g id="Vector">
<path fill-rule="evenodd" clip-rule="evenodd" d="M 3.74016 16.8682L 2.67154 16.8682C 2.40439 16.8682 2.13724 16.5823 2.13724 16.2964C 2.13724 16.0105 2.40439 15.7246 2.67154 15.4387L 3.74016 15.4387C 4.00732 15.4387 4.00732 15.4387 4.00732 15.4387C 4.00732 15.4387 4.00732 15.4387 4.27447 15.4387C 4.27447 15.7246 4.54162 16.0105 4.54162 16.2964C 4.54162 16.5823 4.27447 16.5823 4.00732 16.8682C 4.00732 16.8682 4.00732 16.8682 3.74016 16.8682ZM 3.74016 18.2977L 0.534309 18.2977C 0.267154 18.2977 0 18.5836 0 18.8695C 0 19.1554 0 19.4413 0.267154 19.4413C 0.534309 19.4413 0.534309 19.7272 0.534309 19.7272L 3.74016 19.7272C 4.27447 19.7272 4.54162 19.1554 4.54162 18.8695C 4.54162 18.5836 4.27447 18.2977 3.74016 18.2977ZM 3.74016 14.0092L 2.67154 14.0092C 2.40439 14.0092 2.13724 13.7233 2.13724 13.4374C 2.13724 13.1515 2.40439 12.8656 2.67154 12.8656L 3.74016 12.8656C 4.00732 12.8656 4.00732 12.8656 4.00732 12.8656C 4.00732 12.8656 4.00732 12.8656 4.27447 12.8656C 4.27447 12.8656 4.54162 13.1515 4.54162 13.4374C 4.54162 13.7233 4.27447 14.0092 4.00732 14.0092C 4.00732 14.0092 4.00732 14.0092 3.74016 14.0092ZM 0.534309 11.4361L 3.74016 11.4361C 4.27447 11.4361 4.54162 11.1502 4.54162 10.5784C 4.54162 10.2925 4.27447 10.0066 3.74016 10.0066L 0.534309 10.0066L 0.267154 10.0066C 0.267154 10.0066 0.267154 10.0066 0.267154 10.2925C 0 10.2925 0 10.5784 0 10.5784C 0 11.1502 0.267154 11.4361 0.534309 11.4361ZM 2.67154 7.14755L 3.74016 7.14755C 4.00732 7.14755 4.00732 7.14755 4.00732 7.14755C 4.00732 7.43345 4.00732 7.43345 4.00732 7.43345C 4.27447 7.43345 4.54162 7.71935 4.54162 8.00526C 4.54162 8.29116 4.27447 8.57706 3.74016 8.57706L 2.67154 8.57706C 2.40439 8.57706 2.13724 8.29116 2.13724 8.00526C 2.13724 7.71935 2.40439 7.43345 2.67154 7.14755ZM 3.74016 6.00394L 2.67154 6.00394L 2.67154 5.71804C 2.40439 5.71804 2.13724 5.43214 2.13724 5.14624C 2.13724 4.86033 2.40439 4.57443 2.67154 4.57443L 3.74016 4.57443C 4.27447 4.57443 4.54162 4.86033 4.54162 5.14624C 4.54162 5.43214 4.27447 5.71804 4.00732 5.71804C 4.00732 5.71804 4.00732 6.00394 3.74016 6.00394ZM 3.74016 3.14492L 0.534309 3.14492C 0.534309 3.14492 0.267154 3.14492 0.267154 2.85902C 0 2.85902 0 2.57312 0 2.28722C 0 2.28722 0 2.00131 0.267154 2.00131C 0.267154 1.71541 0.534309 1.71541 0.534309 1.71541L 3.74016 1.71541C 4.00732 1.71541 4.00732 1.71541 4.00732 1.71541C 4.27447 2.00131 4.54162 2.28722 4.54162 2.28722C 4.54162 2.57312 4.27447 2.85902 4.00732 3.14492C 4.00732 3.14492 4.00732 3.14492 3.74016 3.14492ZM 8.28179 19.7272L 8.28179 1.42951C 8.28179 0.857706 7.74748 0 6.94601 0C 6.41171 0 5.8774 0.857706 5.8774 1.42951L 5.8774 19.7272C 2.9387 21.1567 4.00732 25.4453 6.94601 25.4453C 10.1519 25.4453 10.9533 21.1567 8.28179 19.7272ZM 6.94601 9.72067C 7.21317 9.72067 7.48032 10.0066 7.48032 10.2925L 7.48032 21.4427C 8.54894 22.0145 8.01463 23.444 6.94601 23.444C 5.8774 23.444 5.61024 22.0145 6.67886 21.4427L 6.67886 10.2925C 6.67886 10.0066 6.67886 9.72067 6.94601 9.72067Z" transform="translate(0.524658 0.702148)" fill="#8A8A8F"/>
</g>
</g>
</g>
</g>
</svg>

