<svg width="29" height="29" viewBox="0 0 29 29" fill="none" xmlns="http://www.w3.org/2000/svg">
<path d="M4 1H25C26.6569 1 28 2.34315 28 4V25C28 26.6569 26.6569 28 25 28H4C2.34315 28 1 26.6569 1 25V4C1 2.34315 2.34315 1 4 1Z" fill="#FFCC00" stroke="white" stroke-width="2"/>
<path d="M14.6947 21.9998C12.6183 21.9998 10.6641 21.2684 9.19847 19.8055C7.73282 18.3427 7 16.3922 7 14.3198C7 12.3693 7.85496 10.4189 9.19847 8.956C10.6641 7.49315 12.6183 6.76172 14.6947 6.76172C15.7939 6.76172 16.771 7.00553 17.7481 7.37124C18.1145 7.49315 18.2366 7.98077 18.1145 8.22458C17.9924 8.59029 17.626 8.71219 17.2595 8.59029C16.4046 8.22458 15.5496 7.98077 14.6947 7.98077C12.9847 7.98077 11.3969 8.71219 10.1756 9.93124C8.9542 11.0284 8.34351 12.7351 8.34351 14.3198C8.34351 17.8551 11.1527 20.6589 14.6947 20.7808C16.4046 20.7808 17.9924 20.0493 19.0916 18.8303C20.313 17.6112 21.0458 16.0265 21.0458 14.3198V13.7103C21.0458 13.3446 21.2901 13.1008 21.6565 13.1008C22.0229 13.1008 22.2672 13.3446 22.2672 13.7103V14.3198C22.2672 16.3922 21.5343 18.3427 20.0687 19.8055C18.6031 21.2684 16.6489 21.9998 14.6947 21.9998Z" fill="white"/>
<path d="M19.7101 13.9722L19.718 12.0206C19.7206 11.3798 20.3169 10.9068 20.9415 11.05L22.8437 11.4861" stroke="white"/>
</svg>
