<svg width="29" height="29" viewBox="0 0 29 29" fill="none" xmlns="http://www.w3.org/2000/svg">
<path d="M4 1H25C26.6569 1 28 2.34315 28 4V25C28 26.6569 26.6569 28 25 28H4C2.34315 28 1 26.6569 1 25V4C1 2.34315 2.34315 1 4 1Z" fill="#007AFF" stroke="white" stroke-width="2"/>
<path fill-rule="evenodd" clip-rule="evenodd" d="M20.2515 10.2038C19.8533 9.81236 19.2152 9.81076 18.815 10.2003L13.6097 15.2662C12.8452 16.0102 11.6291 16.0159 10.8578 15.2791L10.183 14.6346C9.77321 14.2432 9.12511 14.2536 8.72806 14.6578V14.6578C8.32631 15.0668 8.33307 15.7243 8.74315 16.125L12.1904 19.4932C12.1946 19.4972 12.2001 19.4995 12.2059 19.4995V19.4995C12.2117 19.4995 12.2172 19.4973 12.2213 19.4932L20.2483 11.6721C20.6608 11.2702 20.6623 10.6076 20.2515 10.2038V10.2038Z" fill="white"/>
</svg>
