<svg width="29" height="29" viewBox="0 0 29 29" fill="none" xmlns="http://www.w3.org/2000/svg">
<path d="M1 4C1 2.34315 2.34315 1 4 1H25C26.6569 1 28 2.34315 28 4V25C28 26.6569 26.6569 28 25 28H4C2.34315 28 1 26.6569 1 25V4Z" fill="#5AC8FA" stroke="white" stroke-width="2"/>
<path d="M4.45912 17H3.33022V11.3633H4.31459L6.94741 15.0352H6.97866V11.3633H8.10756V17H7.131L4.49428 13.3086H4.45912V17ZM12.5655 12.7734C12.2921 12.4245 11.9249 12.25 11.4639 12.25C11.003 12.25 10.6345 12.4245 10.3585 12.7734C10.0824 13.1224 9.94571 13.5911 9.94831 14.1797C9.94831 14.7682 10.085 15.237 10.3585 15.5859C10.6293 15.9349 10.9965 16.1094 11.46 16.1094C11.9236 16.1094 12.2921 15.9349 12.5655 15.5859C12.8389 15.237 12.9757 14.7682 12.9757 14.1797C12.9757 13.5911 12.8389 13.1224 12.5655 12.7734ZM9.47566 12.0508C9.96524 11.5273 10.628 11.2656 11.4639 11.2656C12.2999 11.2656 12.9626 11.5273 13.4522 12.0508C13.9418 12.5742 14.1853 13.2839 14.1827 14.1797C14.1827 15.0755 13.9379 15.7865 13.4483 16.3125C12.9561 16.8359 12.2934 17.0977 11.46 17.0977C10.6267 17.0977 9.96524 16.8359 9.47566 16.3125C8.98607 15.7865 8.74258 15.0755 8.74519 14.1797C8.74258 13.2839 8.98607 12.5742 9.47566 12.0508ZM15.9961 14.9375V17H14.8164V11.3633H17.1445C17.7852 11.3659 18.2852 11.526 18.6445 11.8438C19.0039 12.1615 19.1836 12.6003 19.1836 13.1602C19.1836 13.5273 19.0924 13.8542 18.9102 14.1406C18.7279 14.4271 18.4779 14.6341 18.1602 14.7617L19.3477 17H18.0117L16.9609 14.9375H15.9961ZM15.9961 12.2852V14.082H17.0312C17.3255 14.082 17.556 14.0026 17.7227 13.8438C17.8893 13.6823 17.9727 13.4635 17.9727 13.1875C17.9727 12.9115 17.8867 12.6927 17.7148 12.5312C17.543 12.3698 17.3112 12.2878 17.0195 12.2852H15.9961ZM25.7978 11.3633V17H24.747V13.1953H24.7158L23.1845 16.9453H22.4423L20.9111 13.1953H20.8798V17H19.829V11.3633H21.1962L22.7978 15.3594H22.829L24.4306 11.3633H25.7978Z" fill="white"/>
</svg>
