<svg width="29" height="29" viewBox="0 0 29 29" fill="none" xmlns="http://www.w3.org/2000/svg">
<path d="M4 1H25C26.6569 1 28 2.34315 28 4V25C28 26.6569 26.6569 28 25 28H4C2.34315 28 1 26.6569 1 25V4C1 2.34315 2.34315 1 4 1Z" fill="#FF9500" stroke="white" stroke-width="2"/>
<path d="M9.22452 18H7.89738V15.3281H5.04093V18H3.71378V11.6587H5.04093V14.2339H7.89738V11.6587H9.22452V18ZM14.3364 16.9014V18H10.1352V11.6587H14.3364V12.7529H11.4624V14.2822H14.1738V15.3018H11.4624V16.9014H14.3364ZM19.3516 16.9014V18H15.1504V11.6587H19.3516V12.7529H16.4775V14.2822H19.189V15.3018H16.4775V16.9014H19.3516ZM21.4927 12.7529V16.9014H22.4507C23.0484 16.9014 23.5025 16.7227 23.813 16.3652C24.1236 16.0078 24.2789 15.4951 24.2789 14.8271C24.2789 14.1533 24.1206 13.6392 23.8042 13.2847C23.4878 12.9302 23.0367 12.7529 22.4507 12.7529H21.4927ZM20.1656 11.6587H22.6089C23.564 11.6587 24.3067 11.9326 24.837 12.4805C25.3672 13.0312 25.6324 13.8076 25.6324 14.8096C25.6324 15.8115 25.3658 16.5938 24.8326 17.1562C24.2994 17.7188 23.5581 18 22.6089 18H20.1656V11.6587Z" fill="white"/>
</svg>
