<svg width="18" height="18" viewBox="0 0 18 18" fill="none" xmlns="http://www.w3.org/2000/svg">
<path d="M7.92 9.36H8.64V8.64V3.6V2.88H9.36V3.6V9.36V10.08H8.64H5.04H4.32V9.36H5.04H7.92Z" fill="#979797"/>
<path fill-rule="evenodd" clip-rule="evenodd" d="M9 18C13.9706 18 18 13.9706 18 9C18 4.02943 13.9706 0 9 0C4.02943 0 0 4.02943 0 9C0 13.9706 4.02943 18 9 18ZM17.28 9C17.28 13.5729 13.5729 17.28 9 17.28C4.42705 17.28 0.72 13.5729 0.72 9C0.72 4.42705 4.42705 0.72 9 0.72C13.5729 0.72 17.28 4.42705 17.28 9Z" fill="#979797"/>
</svg>
