<svg width="16" height="16" viewBox="0 0 16 16" fill="none" xmlns="http://www.w3.org/2000/svg">
<path d="M4 1H12C13.6569 1 15 2.34315 15 4V12C15 13.6569 13.6569 15 12 15H4C2.34315 15 1 13.6569 1 12V4C1 2.34315 2.34315 1 4 1Z" stroke="#FF9500" stroke-width="2"/>
<path d="M0.998867 8V4.32324H1.42367V5.79541H1.43344C1.59945 5.4943 1.87777 5.34375 2.2684 5.34375C2.55486 5.34375 2.78109 5.43245 2.94711 5.60986C3.11312 5.78727 3.19613 6.02409 3.19613 6.32031V8H2.77133V6.396C2.77133 6.18278 2.71762 6.01758 2.6102 5.90039C2.50277 5.7832 2.34245 5.7238 2.12924 5.72217C1.91602 5.72217 1.74512 5.79134 1.61654 5.92969C1.48796 6.06803 1.42367 6.25358 1.42367 6.48633V8H0.998867ZM4.7592 8.02441C4.38973 8.02441 4.09595 7.90479 3.87785 7.66553C3.65975 7.42627 3.55152 7.10238 3.55314 6.69385C3.55314 6.28532 3.66138 5.95817 3.87785 5.7124C4.09432 5.46663 4.37997 5.34375 4.73479 5.34375C5.0896 5.34375 5.36955 5.45931 5.57463 5.69043C5.77971 5.92155 5.88225 6.23649 5.88225 6.63525V6.80127H3.9926V6.82568C3.9926 7.07633 4.0634 7.27653 4.205 7.42627C4.3466 7.57601 4.53459 7.65088 4.76896 7.65088C4.93335 7.64925 5.07577 7.61263 5.19621 7.54102C5.31665 7.4694 5.39478 7.37174 5.43059 7.24805H5.85051C5.8147 7.47266 5.69426 7.6582 5.48918 7.80469C5.2841 7.95117 5.04077 8.02441 4.7592 8.02441ZM5.24016 5.92236C5.10995 5.78564 4.94068 5.71729 4.73234 5.71729C4.52401 5.71729 4.35311 5.78564 4.21965 5.92236C4.08293 6.05908 4.00725 6.23893 3.9926 6.46191H5.44035C5.4371 6.23893 5.37036 6.05908 5.24016 5.92236ZM7.32568 8.02441C6.95622 8.02441 6.66243 7.90479 6.44434 7.66553C6.22624 7.42627 6.118 7.10238 6.11963 6.69385C6.11963 6.28532 6.22786 5.95817 6.44434 5.7124C6.66081 5.46663 6.94645 5.34375 7.30127 5.34375C7.65609 5.34375 7.93604 5.45931 8.14111 5.69043C8.34619 5.92155 8.44873 6.23649 8.44873 6.63525V6.80127H6.55908V6.82568C6.55908 7.07633 6.62988 7.27653 6.77148 7.42627C6.91309 7.57601 7.10107 7.65088 7.33545 7.65088C7.49984 7.64925 7.64225 7.61263 7.7627 7.54102C7.88314 7.4694 7.96126 7.37174 7.99707 7.24805H8.41699C8.38118 7.47266 8.26074 7.6582 8.05566 7.80469C7.85059 7.95117 7.60726 8.02441 7.32568 8.02441ZM7.80664 5.92236C7.67643 5.78564 7.50716 5.71729 7.29883 5.71729C7.09049 5.71729 6.9196 5.78564 6.78613 5.92236C6.64941 6.05908 6.57373 6.23893 6.55908 6.46191H8.00684C8.00358 6.23893 7.93685 6.05908 7.80664 5.92236ZM10.4439 5.98828C10.3023 5.81087 10.1168 5.72217 9.88729 5.72217C9.65779 5.72217 9.47306 5.81006 9.33309 5.98584C9.19311 6.16325 9.12231 6.39681 9.12068 6.68652C9.12231 6.97624 9.19311 7.20898 9.33309 7.38477C9.47306 7.56055 9.65779 7.64762 9.88729 7.646C10.1168 7.646 10.3023 7.55729 10.4439 7.37988C10.5855 7.20247 10.6563 6.97054 10.6563 6.68408C10.6563 6.39762 10.5855 6.16569 10.4439 5.98828ZM9.00105 7.65332C8.79109 7.40918 8.68611 7.08691 8.68611 6.68652C8.68611 6.28613 8.79028 5.96224 8.99861 5.71484C9.20695 5.46745 9.4755 5.34375 9.80428 5.34375C9.99145 5.34375 10.1583 5.38281 10.3048 5.46094C10.4513 5.53906 10.5644 5.65055 10.6441 5.79541H10.6539V4.32324H11.0787V8H10.6734V7.55566H10.6661C10.4887 7.86816 10.2047 8.02441 9.81404 8.02441C9.48201 8.02441 9.21102 7.90072 9.00105 7.65332Z" transform="translate(2 2)" fill="#FF9500"/>
</svg>
