<svg width="16" height="16" viewBox="0 0 16 16" fill="none" xmlns="http://www.w3.org/2000/svg">
<path d="M4 1H12C13.6569 1 15 2.34315 15 4V12C15 13.6569 13.6569 15 12 15H4C2.34315 15 1 13.6569 1 12V4C1 2.34315 2.34315 1 4 1Z" stroke="#FF3B30" stroke-width="2"/>
<path d="M3.44178 7.29932C3.44178 7.53369 3.54106 7.65088 3.73963 7.65088C3.8324 7.65088 3.9032 7.64681 3.95203 7.63867V7.99756C3.89018 8.01221 3.79904 8.01953 3.67859 8.01953C3.44096 8.01953 3.27169 7.96582 3.17078 7.8584C3.06987 7.75098 3.0186 7.57031 3.01697 7.31641V5.71973H2.65076V5.36816H3.01697V4.7749H3.44178V5.36816H3.95447V5.71973H3.44178V7.29932ZM5.35641 7.646C5.60055 7.64437 5.7926 7.55892 5.93258 7.38965C6.0693 7.22038 6.13766 6.98438 6.13766 6.68164C6.13766 6.37891 6.0693 6.14372 5.93258 5.97607C5.79586 5.8068 5.6038 5.72217 5.35641 5.72217C5.10901 5.7238 4.91695 5.80924 4.78023 5.97852C4.64352 6.14779 4.57516 6.38298 4.57516 6.68408C4.57516 6.98519 4.64433 7.22038 4.78268 7.38965C4.92102 7.55892 5.11227 7.64437 5.35641 7.646ZM6.2402 7.66064C6.02047 7.90316 5.72587 8.02441 5.35641 8.02441C4.98694 8.02441 4.69234 7.90316 4.47262 7.66064C4.25289 7.41813 4.14303 7.09261 4.14303 6.68408C4.14303 6.27555 4.25289 5.95003 4.47262 5.70752C4.69234 5.46501 4.98694 5.34375 5.35641 5.34375C5.72587 5.34375 6.02047 5.46501 6.2402 5.70752C6.45992 5.95003 6.56979 6.27555 6.56979 6.68408C6.56979 7.09261 6.45992 7.41813 6.2402 7.66064ZM8.12797 7.646C8.35909 7.64762 8.54464 7.56055 8.68461 7.38477C8.82458 7.20898 8.89457 6.97624 8.89457 6.68652C8.89457 6.39681 8.82458 6.16325 8.68461 5.98584C8.54464 5.81006 8.35909 5.72217 8.12797 5.72217C7.89848 5.72217 7.71293 5.81087 7.57133 5.98828C7.42973 6.16569 7.35893 6.39762 7.35893 6.68408C7.36055 6.97054 7.43135 7.20247 7.57133 7.37988C7.7113 7.55729 7.89685 7.646 8.12797 7.646ZM8.20121 5.34375C8.5365 5.34375 8.80831 5.46745 9.01664 5.71484C9.22497 5.96224 9.32914 6.28532 9.32914 6.68408C9.32914 7.08285 9.22579 7.40592 9.01908 7.65332C8.81238 7.90072 8.54301 8.02441 8.21098 8.02441C8.02543 8.02441 7.85941 7.98535 7.71293 7.90723C7.56645 7.8291 7.45251 7.71761 7.37113 7.57275H7.36137V8.87891H6.93656V5.36816H7.33939V5.79541H7.34916C7.42566 5.65706 7.54122 5.5472 7.69584 5.46582C7.85046 5.38444 8.01892 5.34375 8.20121 5.34375Z" transform="translate(2 2)" fill="#FF3B30"/>
</svg>
