<svg width="22" height="23" viewBox="0 0 22 23" fill="none" xmlns="http://www.w3.org/2000/svg">
<path fill-rule="evenodd" clip-rule="evenodd" d="M4 0L0 5.5V13.5V14.5V22.5H22V14.5V13.5V5.5L18 0H4ZM21 13.5V6.5H14.4658C14.2275 8.19556 12.7712 9.5 11.01 9.5H10.99C9.22876 9.5 7.77246 8.19556 7.53418 6.5H1V13.5H1.23657H8.5H13.5H20.7634H21ZM13.4519 14.5H8.5481C8.77563 15.6406 9.78247 16.5 10.99 16.5H11.01C12.2175 16.5 13.2244 15.6406 13.4519 14.5ZM7.53418 14.5H1V21.5H21V14.5H14.4658C14.2275 16.1956 12.7712 17.5 11.01 17.5H10.99C9.22876 17.5 7.77246 16.1956 7.53418 14.5ZM8.5 6V5.5H1.23657L4.50928 1H17.4907L20.7634 5.5H13.5V6.01001C13.5 7.38525 12.3853 8.5 11.01 8.5H10.99C9.61475 8.5 8.5 7.38525 8.5 6.01001V6Z" fill="#157EFB"/>
</svg>
