<svg width="25" height="25" viewBox="0 0 25 25" version="1.1" xmlns="http://www.w3.org/2000/svg" xmlns:xlink="http://www.w3.org/1999/xlink">
<title>Log-icon</title>
<desc>Created using Figma</desc>
<g id="Canvas" transform="translate(1127 10086)">
<g id="Log-icon">
<g id="Layer x0020 1">
<g id="Vector">
<use xlink:href="#path0_fill" transform="translate(-1127 -10086)" fill="#FFFFFF"/>
</g>
</g>
</g>
</g>
<defs>
<path id="path0_fill" d="M 23.542 22.7952C 23.542 23.1863 23.1863 23.542 22.7952 23.542L 20.5903 23.542L 20.5903 14.0114C 20.5903 12.8023 19.6302 11.8065 18.4211 11.8065L 6.57895 11.8065C 5.36984 11.8065 4.40967 12.8023 4.40967 14.0114L 4.40967 23.542L 2.20484 23.542C 1.77809 23.542 1.45804 23.1863 1.45804 22.7952L 1.45804 2.20484C 1.45804 1.77809 1.77809 1.45804 2.20484 1.45804L 5.86771 1.45804L 5.86771 6.57895C 5.86771 7.78805 6.82788 8.78378 8.07255 8.78378L 16.9275 8.78378C 18.1366 8.78378 19.1323 7.78805 19.1323 6.57895L 19.1323 1.45804L 19.2745 1.45804C 19.4523 1.45804 19.6302 1.52916 19.7724 1.67141L 23.3286 5.2276C 23.4708 5.36984 23.542 5.54765 23.542 5.72546L 23.542 22.7952ZM 5.86771 23.542L 5.86771 16.2162L 19.1323 16.2162L 19.1323 23.542L 5.86771 23.542ZM 19.1323 14.7582L 5.86771 14.7582L 5.86771 14.0114C 5.86771 13.6202 6.18777 13.2646 6.57895 13.2646L 18.4211 13.2646C 18.8122 13.2646 19.1323 13.6202 19.1323 14.0114L 19.1323 14.7582ZM 14.7582 1.45804L 14.7582 5.12091C 14.7582 5.54765 15.0782 5.86771 15.4694 5.86771C 15.8962 5.86771 16.2162 5.54765 16.2162 5.12091L 16.2162 1.45804L 17.6743 1.45804L 17.6743 6.57895C 17.6743 7.00569 17.3542 7.32575 16.9275 7.32575L 8.07255 7.32575C 7.6458 7.32575 7.32575 7.00569 7.32575 6.57895L 7.32575 1.45804L 14.7582 1.45804ZM 24.3599 4.1963L 20.8037 0.640114C 20.4125 0.213371 19.8435 0 19.2745 0C 18.8122 0 7.11238 0 6.57895 0L 2.20484 0C 0.995733 0 0 0.995733 0 2.20484L 0 22.7952C 0 24.0043 0.995733 25 2.20484 25C 3.27169 25 21.9417 25 22.7952 25C 24.0043 25 25 24.0043 25 22.7952L 25 5.72546C 25 5.15647 24.7511 4.58748 24.3599 4.1963Z"/>
</defs>
</svg>
