<svg width="25" height="25" viewBox="0 0 25 25" version="1.1" xmlns="http://www.w3.org/2000/svg" xmlns:xlink="http://www.w3.org/1999/xlink">
<title>Vector</title>
<desc>Created using Figma</desc>
<g id="Canvas" transform="translate(1128 10030)">
<g id="Vector">
<use xlink:href="#path0_fill" transform="translate(-1128 -10030)" fill="#FFFFFF"/>
</g>
</g>
<defs>
<path id="path0_fill" d="M 5.82348 12.5114C 5.82348 10.6688 6.57416 8.98544 7.7798 7.7798C 9.00819 6.57416 10.6688 5.82348 12.5114 5.82348C 14.3312 5.82348 16.0146 6.57416 17.2202 7.7798C 18.4258 8.98544 19.1765 10.6688 19.1765 12.5114C 19.1765 14.3312 18.4258 16.0146 17.2202 17.2202C 16.0146 18.4258 14.3312 19.1765 12.5114 19.1765C 10.6688 19.1765 9.00819 18.4258 7.7798 17.2202C 6.57416 16.0146 5.82348 14.3312 5.82348 12.5114ZM 9.41765 9.41765C 8.64422 10.2138 8.14377 11.3057 8.14377 12.5114C 8.14377 13.6943 8.62147 14.7862 9.41765 15.5823C 10.2138 16.3785 11.3057 16.8562 12.5114 16.8562C 13.6943 16.8562 14.7862 16.3785 15.5823 15.5823C 16.3785 14.7862 16.8562 13.6943 16.8562 12.5114C 16.8562 11.3057 16.3785 10.2138 15.5823 9.41765C 14.7862 8.62147 13.6943 8.14377 12.5114 8.14377C 11.3057 8.14377 10.2138 8.62147 9.41765 9.41765ZM 19.7907 10.6005C 19.6997 10.2821 19.586 9.94086 19.4495 9.62238C 19.313 9.30391 19.1765 8.98544 18.9945 8.68972C 18.8126 8.37125 18.7216 8.00728 18.7216 7.64331C 18.7443 7.30209 18.8581 6.93813 19.0855 6.6424L 19.0628 6.6424L 19.9045 5.48226L 19.5177 5.11829L 18.3803 5.93722L 18.3576 5.93722C 18.0619 6.1647 17.7207 6.25569 17.3567 6.27844C 17.0155 6.30118 16.6515 6.21019 16.333 6.02821C 16.0146 5.84622 15.6961 5.68699 15.3776 5.5505C 15.0591 5.41401 14.6952 5.30027 14.354 5.20928C 13.99 5.11829 13.6715 4.91356 13.4213 4.66333C 13.1938 4.39036 13.0118 4.07188 12.9663 3.70792L 12.7161 2.32029L 12.1929 2.32029L 11.9427 3.73066C 11.8972 4.09463 11.7152 4.43585 11.4877 4.68608C 11.2602 4.93631 10.9418 5.14104 10.6005 5.23203L 10.5778 5.23203C 10.2366 5.32302 9.91811 5.43676 9.59964 5.57325C 9.28117 5.70974 8.96269 5.86897 8.64422 6.05096C 8.32575 6.23294 7.96178 6.32393 7.62056 6.30118C 7.2566 6.30118 6.89263 6.18744 6.59691 5.95996L 5.45951 5.14104L 5.07279 5.52775L 5.91447 6.6879C 6.1192 7.00637 6.23294 7.34759 6.25569 7.68881C 6.27844 8.05278 6.18744 8.41674 6.00546 8.73521C 5.82348 9.00819 5.66424 9.32666 5.5505 9.66788C 5.41401 9.98635 5.30027 10.3276 5.20928 10.6688C 5.11829 11.0328 4.91356 11.3512 4.66333 11.6015C 4.39036 11.8289 4.04914 11.9882 3.70792 12.0564L 2.32029 12.2839L 2.32029 12.8298L 3.73066 13.0573C 4.09463 13.1256 4.4131 13.2848 4.68608 13.535C 4.93631 13.7625 5.14104 14.081 5.23203 14.4222L 5.23203 14.445C 5.32302 14.7862 5.43676 15.1046 5.57325 15.4231C 5.70974 15.7416 5.86897 16.0601 6.05096 16.3785C 6.23294 16.697 6.32393 17.061 6.30118 17.4022C 6.30118 17.7662 6.18744 18.1074 5.95996 18.4258L 5.14104 19.5632L 5.52775 19.95L 6.6879 19.1083C 6.84713 18.9945 7.02912 18.9035 7.2111 18.8581C 7.39309 18.7898 7.59782 18.7671 7.7798 18.7671C 7.93904 18.7671 8.09827 18.7898 8.25751 18.8353C 8.41674 18.8581 8.57598 18.9263 8.71247 19.0173C 9.00819 19.1765 9.32666 19.3358 9.64513 19.4722C 9.9636 19.6087 10.3048 19.7225 10.6233 19.7907C 10.9645 19.8817 11.283 20.0864 11.5332 20.3367C 11.7834 20.6096 11.9427 20.9281 12.0109 21.2921L 12.2384 22.6797L 12.7616 22.6797L 12.9891 21.3148C 13.0573 20.9509 13.2166 20.6096 13.4668 20.3367C 13.717 20.0864 14.0355 19.8817 14.3995 19.7907C 14.7179 19.6997 15.0591 19.586 15.3776 19.4495C 15.6961 19.313 16.0146 19.1765 16.3103 18.9945C 16.6288 18.8126 16.9927 18.7216 17.3567 18.7216C 17.6979 18.7443 18.0619 18.8581 18.3576 19.0628L 19.5177 19.9045L 19.8817 19.5177L 19.0628 18.3576C 18.8581 18.0391 18.7443 17.6979 18.7216 17.3567C 18.7216 16.9927 18.7898 16.6288 18.9718 16.3103C 19.1538 16.0146 19.313 15.6961 19.4495 15.3776C 19.586 15.0591 19.6997 14.7179 19.7907 14.3767C 19.8817 14.0355 20.0637 13.717 20.3367 13.4668C 20.5869 13.2393 20.9281 13.0573 21.2921 12.9891L 22.6797 12.7616L 22.6797 12.4659L 22.6797 12.2384L 21.2921 12.0109L 21.2921 11.9882C 20.9281 11.9427 20.6096 11.7834 20.3367 11.5332C 20.0864 11.3057 19.8817 10.9873 19.7907 10.6005ZM 21.5878 8.73521C 21.7243 9.07643 21.8608 9.41765 21.9518 9.75887L 23.8854 10.1001C 24.2266 10.1456 24.4995 10.3048 24.6815 10.5323C 24.8863 10.7598 25 11.0555 25 11.374L 25 13.626L 25 14.7862L 24.2948 14.7862C 24.1583 14.8544 24.0218 14.8772 23.8854 14.8999L 21.9518 15.2411C 21.838 15.5823 21.7243 15.9236 21.5878 16.2648C 21.4513 16.606 21.2921 16.9245 21.1101 17.243L 22.2702 18.8808C 22.4522 19.131 22.5205 19.4495 22.4977 19.7225C 22.475 20.0182 22.3612 20.3139 22.1338 20.5414L 20.5414 22.1338L 20.5187 22.1338C 20.3594 22.293 20.2002 22.384 20.0409 22.4522C 19.859 22.4977 19.7225 22.5205 19.6087 22.5205C 19.495 22.5205 19.3585 22.4977 19.222 22.4522C 19.0855 22.4067 18.9718 22.3385 18.8808 22.2702L 17.243 21.1101C 16.9245 21.2921 16.606 21.4513 16.2648 21.5878C 15.9236 21.7243 15.5823 21.8608 15.2411 21.9518L 14.8999 23.8854C 14.8544 24.2266 14.6952 24.4995 14.4677 24.6815L 14.4677 24.7043C 14.2175 24.8863 13.9217 25 13.626 25L 11.374 25C 11.0555 25 10.7598 24.8863 10.5323 24.6815C 10.3048 24.4995 10.1456 24.2038 10.1001 23.8854L 9.75887 21.9518C 9.4404 21.8608 9.09918 21.747 8.78071 21.6106C 8.46224 21.4741 8.12102 21.3148 7.8253 21.1556L 6.1647 22.3157L 6.09645 22.3612C 5.89172 22.4977 5.68699 22.566 5.41401 22.566C 5.32302 22.566 5.18653 22.5432 5.00455 22.4977C 4.84531 22.4295 4.66333 22.3385 4.5041 22.1793L 2.91174 20.5869C 2.68426 20.3594 2.57052 20.0864 2.52502 19.7907C 2.50227 19.5177 2.57052 19.222 2.7525 18.9718L 2.77525 18.9263L 3.91265 17.3112C 3.75341 16.9927 3.59418 16.6742 3.43494 16.333C 3.29845 15.9918 3.18471 15.6506 3.07097 15.2866L 1.0919 14.9682L 1.0919 14.9454C 0.77343 14.8999 0.500455 14.7407 0.318471 14.5132C 0.11374 14.2857 0 13.99 0 13.6715L 0 11.4422C 0 11.1237 0.11374 10.828 0.318471 10.6005L 0.318471 10.5778C 0.523203 10.3731 0.796178 10.1911 1.11465 10.1456L 3.04823 9.82712C 3.13922 9.4859 3.25296 9.12193 3.38945 8.80346C 3.52593 8.46224 3.68517 8.14377 3.86715 7.80255L 2.70701 6.1647C 2.50227 5.91447 2.43403 5.596 2.45678 5.30027C 2.47953 5.00455 2.61601 4.73157 2.84349 4.5041L 4.43585 2.91174C 4.57234 2.7525 4.75432 2.66151 4.91356 2.59327C 5.09554 2.54777 5.23203 2.52502 5.34577 2.52502C 5.48226 2.52502 5.61874 2.54777 5.73248 2.59327L 5.80073 2.61601C 5.89172 2.66151 6.00546 2.70701 6.09645 2.77525L 7.71156 3.91265C 8.03003 3.75341 8.3485 3.59418 8.68972 3.43494C 9.03094 3.29845 9.37216 3.18471 9.71338 3.07097L 10.0546 1.0919C 10.1001 0.77343 10.2593 0.523203 10.5096 0.318471C 10.737 0.11374 11.0328 0 11.3285 0L 13.5805 0C 13.899 0 14.1947 0.11374 14.4222 0.318471C 14.6497 0.523203 14.8089 0.796178 14.8772 1.11465L 14.8544 1.11465L 15.1956 3.04823C 15.5369 3.13922 15.9008 3.27571 16.242 3.41219C 16.606 3.54868 16.9245 3.70792 17.2657 3.8899L 18.8808 2.72975L 18.9263 2.70701L 18.9718 2.68426C 19.04 2.63876 19.1083 2.59327 19.222 2.54777C 19.3585 2.52502 19.495 2.47953 19.6315 2.47953C 19.8135 2.47953 20.2229 2.54777 20.5414 2.86624L 22.1338 4.4586C 22.3612 4.68608 22.475 4.95905 22.4977 5.25478L 22.4977 5.27752C 22.5432 5.5505 22.4522 5.82348 22.3157 6.0737L 22.2702 6.14195L 21.1101 7.75705C 21.2921 8.07552 21.4513 8.394 21.5878 8.73521Z"/>
</defs>
</svg>
