<svg width="19" height="27" viewBox="0 0 19 27" fill="none" xmlns="http://www.w3.org/2000/svg">
<path fill-rule="evenodd" clip-rule="evenodd" d="M13.732 22.3441L13.355 21.9421C13.263 21.8461 13.116 21.8441 13.0265 21.9371L10 25.0011L10 9.9956H8.9995L8.9995 25.131L5.7465 21.8776C5.658 21.7861 5.5125 21.7881 5.421 21.8831L5.0075 22.2786C4.916 22.3731 4.914 22.5246 5.003 22.6166L8.76977 26.3834C8.77683 26.4347 8.79963 26.4846 8.838 26.5246L9.215 26.9266C9.3075 27.0226 9.4545 27.0246 9.5435 26.9316L13.7375 22.6856C13.827 22.5926 13.824 22.4396 13.732 22.3441ZM18 1.4956L18 18.4956H12V19.4956H19L19 0.495602L0 0.495602L0 19.4956H7V18.4956H1L1 1.4956L18 1.4956Z" fill="white"/>
</svg>
