<svg width="14" height="14" viewBox="0 0 14 14" version="1.1" xmlns="http://www.w3.org/2000/svg" xmlns:xlink="http://www.w3.org/1999/xlink">
<title>Search Glyph</title>
<desc>Created using Figma</desc>
<g id="Canvas" transform="translate(1539 10323)">
<g id="Bars/Search Bar/_Resources/Search Glyph">
<g id="Search">
<use xlink:href="#path0_fill" transform="translate(-1539 -10323)" fill="#8C8C8C"/>
</g>
</g>
</g>
<defs>
<path id="path0_fill" fill-rule="evenodd" d="M 13.7431 12.5741L 9.91009 8.73956C 10.5972 7.80246 10.9652 6.66953 10.9601 5.50756C 10.947 2.47441 8.49372 0.0175744 5.46059 5.57178e-05C 4.00907 -0.00651157 2.61522 0.567712 1.58953 1.59481C 0.563845 2.6219 -0.00846493 4.01655 9.46502e-05 5.46806C 0.0132044 8.50148 2.4667 10.9585 5.50009 10.9761C 6.6668 10.9811 7.80387 10.6088 8.74159 9.91456L 8.74559 9.91156L 12.5751 13.7431C 12.7821 13.9603 13.0907 14.0482 13.3811 13.9728C 13.6716 13.8973 13.8983 13.6704 13.9735 13.3799C 14.0487 13.0894 13.9605 12.7809 13.7431 12.5741ZM 5.49602 9.87819C 3.06943 9.86423 1.10667 7.8988 1.09602 5.47219C 1.08947 4.31114 1.54735 3.19564 2.36775 2.37403C 3.18814 1.55242 4.30295 1.09287 5.46402 1.09769C 7.8906 1.11165 9.85336 3.07709 9.86402 5.50369C 9.87057 6.66475 9.41268 7.78024 8.59229 8.60186C 7.77189 9.42347 6.65708 9.88302 5.49602 9.87819Z"/>
</defs>
</svg>
