<svg width="24" height="25" viewBox="0 0 24 25" version="1.1" xmlns="http://www.w3.org/2000/svg" xmlns:xlink="http://www.w3.org/1999/xlink">
<title>Attachement</title>
<desc>Created using Figma</desc>
<g id="Canvas" transform="translate(-2283 6240)">
<g id="Attachement">
<g id="Group">
<g id="Group">
<g id="Vector">
<use xlink:href="#path0_fill" transform="translate(2283 -6239.44)" fill="#828282"/>
</g>
</g>
</g>
</g>
</g>
<defs>
<path id="path0_fill" d="M 23.6863 8.74073C 23.2697 8.35124 22.596 8.35297 22.1816 8.74453L 9.39117 20.8308C 7.73177 22.3904 5.03666 22.3904 3.37417 20.8287C 1.71292 19.2665 1.71292 16.7335 3.37436 15.172L 16.5434 2.72987C 17.5794 1.75621 19.2637 1.75621 20.3027 2.73198C 21.3414 3.70822 21.3414 5.29108 20.3025 6.2676L 9.39317 16.5208C 9.39247 16.5214 9.39187 16.5222 9.39117 16.5228C 8.97556 16.9113 8.30389 16.9108 7.88913 16.521C 7.47367 16.1305 7.47367 15.4976 7.88913 15.1071L 13.155 10.1569C 13.5704 9.76638 13.5704 9.13318 13.1548 8.7427C 12.7393 8.35222 12.0655 8.35227 11.6501 8.74284L 6.38429 13.6929C 5.13786 14.8644 5.13786 16.7636 6.38439 17.9352C 7.63087 19.1067 9.65162 19.1067 10.8982 17.9352C 10.8996 17.9338 10.9007 17.9324 10.9021 17.931L 21.8072 7.68175C 23.6772 5.92419 23.6772 3.07497 21.8072 1.3174C 19.9369 -0.439134 16.9056 -0.439134 15.0367 1.3174L 1.86763 13.7596C -0.622843 16.1003 -0.622843 19.8994 1.86943 22.2429C 4.36334 24.5857 8.40554 24.5857 10.898 22.2431L 23.6904 10.155C 24.1048 9.76338 24.1029 9.13022 23.6863 8.74073Z"/>
</defs>
</svg>
