<svg width="9" height="9" viewBox="0 0 9 9" version="1.1" xmlns="http://www.w3.org/2000/svg" xmlns:xlink="http://www.w3.org/1999/xlink">
<title>Active</title>
<desc>Created using Figma</desc>
<g id="Canvas" transform="translate(1816 9103)">
<g id="Active">
<use xlink:href="#path0_fill" transform="translate(-1815 -9102)" fill="#000000" fill-opacity="0.3"/>
<use xlink:href="#path1_stroke" transform="translate(-1815 -9102)" fill="#979797"/>
</g>
</g>
<defs>
<path id="path0_fill" fill-rule="evenodd" d="M 3.5 7C 5.433 7 7 5.433 7 3.5C 7 1.567 5.433 0 3.5 0C 1.567 0 0 1.567 0 3.5C 0 5.433 1.567 7 3.5 7Z"/>
<path id="path1_stroke" d="M 3.5 7.5C 5.70914 7.5 7.5 5.70914 7.5 3.5L 6.5 3.5C 6.5 5.15685 5.15685 6.5 3.5 6.5L 3.5 7.5ZM 7.5 3.5C 7.5 1.29086 5.70914 -0.5 3.5 -0.5L 3.5 0.5C 5.15685 0.5 6.5 1.84315 6.5 3.5L 7.5 3.5ZM 3.5 -0.5C 1.29086 -0.5 -0.5 1.29086 -0.5 3.5L 0.5 3.5C 0.5 1.84315 1.84315 0.5 3.5 0.5L 3.5 -0.5ZM -0.5 3.5C -0.5 5.70914 1.29086 7.5 3.5 7.5L 3.5 6.5C 1.84315 6.5 0.5 5.15685 0.5 3.5L -0.5 3.5Z"/>
</defs>
</svg>
