<svg width="16" height="16" viewBox="0 0 16 16" fill="none" xmlns="http://www.w3.org/2000/svg">
<path d="M4 1H12C13.6569 1 15 2.34315 15 4V12C15 13.6569 13.6569 15 12 15H4C2.34315 15 1 13.6569 1 12V4C1 2.34315 2.34315 1 4 1Z" fill="white" stroke="#4CD964" stroke-width="2"/>
<path fill-rule="evenodd" clip-rule="evenodd" d="M6.36412 0L2.33924 3.9171L0.796689 2.44378L0 3.25487L2.31548 5.51724H2.32543L7.17241 0.794558L6.36412 0Z" transform="translate(6.62073 5.24121)" fill="#4CD964"/>
<path fill-rule="evenodd" clip-rule="evenodd" d="M6.36412 0L2.33924 3.9171L0.796689 2.44378L0 3.25487L2.31548 5.51724H2.32543L7.17241 0.794558L6.36412 0Z" transform="translate(3.86206 5.24121)" fill="#4CD964"/>
</svg>
