<svg width="56" height="56" viewBox="0 0 56 56" fill="none" xmlns="http://www.w3.org/2000/svg">
<path d="M1 4C1 2.34315 2.34315 1 4 1H52C53.6569 1 55 2.34315 55 4V52C55 53.6569 53.6569 55 52 55H4C2.34315 55 1 53.6569 1 52V4Z" fill="#FFCC00" stroke="white" stroke-width="2"/>
<path d="M28.3757 42.4824C24.3663 42.4824 20.5926 41.07 17.7624 38.2452C14.9322 35.4203 13.5171 31.6539 13.5171 27.6521C13.5171 23.8856 15.1681 20.1192 17.7624 17.2944C20.5926 14.4695 24.3663 13.0571 28.3757 13.0571C30.4984 13.0571 32.3852 13.5279 34.272 14.2341C34.9796 14.4695 35.2154 15.4112 34.9796 15.882C34.7437 16.5882 34.0362 16.8236 33.3286 16.5882C31.6777 15.882 30.0267 15.4112 28.3757 15.4112C25.0738 15.4112 22.0077 16.8236 19.6492 19.1776C17.2907 21.2962 16.1115 24.5918 16.1115 27.6521C16.1115 34.4787 21.536 39.893 28.3757 40.1284C31.6777 40.1284 34.7437 38.716 36.8664 36.362C39.2249 34.0079 40.64 30.9477 40.64 27.6521V26.4751C40.64 25.7689 41.1117 25.298 41.8193 25.298C42.5268 25.298 42.9985 25.7689 42.9985 26.4751V27.6521C42.9985 31.6539 41.5834 35.4203 38.7532 38.2452C35.923 41.07 32.1494 42.4824 28.3757 42.4824Z" fill="white"/>
<path d="M38.061 26.9807L38.081 22.0484C38.0836 21.4075 38.6798 20.9345 39.3045 21.0777L44.1121 22.18" stroke="white" stroke-width="2"/>
</svg>
