<svg width="24" height="23" viewBox="0 0 24 23" version="1.1" xmlns="http://www.w3.org/2000/svg" xmlns:xlink="http://www.w3.org/1999/xlink">
<g id="Canvas" fill="none">
<g id="Icon">
<path fill-rule="evenodd" clip-rule="evenodd" d="M 8.01929 2.54492C 9.35303 0.960938 11.3557 0 13.4895 0C 16.5793 0 19.2229 1.91211 20.196 4.69629C 22.4619 5.64746 24 7.8584 24 10.3691C 24 13.7725 21.1934 16.541 17.7429 16.541L 16.0208 16.541L 16.0208 14.5654L 17.7429 14.5654C 20.093 14.5654 21.9973 12.6865 21.9973 10.3691C 21.9973 8.31738 20.5024 6.61523 18.53 6.25098C 18.1565 3.83105 16.0457 1.97559 13.4895 1.97559C 11.4448 1.97559 9.68652 3.16406 8.87134 4.87598C 8.48096 4.6377 8.02539 4.49414 7.53369 4.49414C 6.12402 4.49414 4.98047 5.62109 4.98047 7.01172C 4.98047 7.0293 4.98291 7.04688 4.9856 7.06348C 4.98779 7.0791 4.98999 7.09375 4.99048 7.11035C 3.28223 7.48926 2.00269 8.98828 2.00269 10.7891C 2.00269 12.875 3.7168 14.5654 5.83154 14.5654L 8.01025 14.5654L 8.01025 16.541L 5.83154 16.541C 2.61646 16.541 0 13.9609 0 10.7891C 0 8.57031 1.25757 6.62012 3.18823 5.66309C 3.76978 3.84277 5.49805 2.51855 7.53369 2.51855C 7.69604 2.51855 7.85815 2.52734 8.01929 2.54492ZM 10.9998 11.4893L 9.56689 12.8467C 9.16943 13.2236 8.53564 13.2109 8.1521 12.8193C 7.76855 12.4248 7.78149 11.7998 8.18018 11.4229L 11.2932 8.47168L 11.3071 8.45898C 11.3325 8.43555 11.3618 8.41895 11.3909 8.40332L 11.4404 8.37402L 11.4907 8.33887C 11.5322 8.30859 11.5737 8.27832 11.6226 8.25879C 11.7437 8.20996 11.8718 8.18359 12.001 8.18359C 12.1301 8.18359 12.2583 8.20996 12.3796 8.25879C 12.4226 8.27637 12.459 8.30273 12.4954 8.3291L 12.5479 8.36523C 12.5654 8.37695 12.5835 8.38672 12.6016 8.39648C 12.634 8.41504 12.6665 8.43262 12.6948 8.45898L 15.821 11.4229C 16.2195 11.7998 16.2314 12.4248 15.8479 12.8193C 15.4666 13.2109 14.8318 13.2236 14.4331 12.8467L 13.0024 11.4893L 13.0024 22.0127C 13.0024 22.5576 12.5537 23 12.001 23C 11.4473 23 10.9998 22.5576 10.9998 22.0127L 10.9998 11.4893Z" fill="black"/>
</g>
</g>
</svg>

