<svg width="21" height="26" viewBox="0 0 21 26" version="1.1" xmlns="http://www.w3.org/2000/svg" xmlns:xlink="http://www.w3.org/1999/xlink">
<g id="Canvas" fill="none">
<g id="Icon">
<path fill-rule="evenodd" clip-rule="evenodd" d="M 16.0461 24.0287L 4.95307 24.0287L 4.04907 5.29883L 16.9511 5.29883L 16.0461 24.0287ZM 7.19995 3.32713L 13.17 3.32713L 13.17 1.97168L 7.19995 1.97168L 7.19995 3.32713ZM 20 3.32701L 15.17 3.32701L 15.17 1.97156C 15.17 0.884246 14.273 0 13.17 0L 7.2 0C 6.097 0 5.2 0.884246 5.2 1.97156L 5.2 3.32701L 0.999 3.32701C 0.447 3.32701 0 3.76864 0 4.3128C 0 4.85695 0.447 5.29858 0.999 5.29858L 2.046 5.29858L 2.955 24.1221C 3.006 25.1749 3.884 26 4.953 26L 16.046 26C 17.115 26 17.993 25.1749 18.044 24.1221L 18.953 5.29858L 20 5.29858C 20.552 5.29858 21 4.85695 21 4.3128C 21 3.76864 20.552 3.32701 20 3.32701ZM 7.50065 22.8478C 7.51665 22.8478 7.53265 22.8478 7.54865 22.8468C 8.10065 22.8211 8.52665 22.3588 8.50065 21.8156L 7.83165 7.95751C 7.80465 7.41238 7.32965 7.00229 6.78465 7.01905C 6.23265 7.04468 5.80765 7.50701 5.83365 8.05018L 6.50265 21.9083C 6.52865 22.4367 6.97065 22.8478 7.50065 22.8478ZM 13.4502 22.8473C 13.4662 22.8473 13.4822 22.8482 13.4982 22.8482C 14.0292 22.8482 14.4712 22.4372 14.4962 21.9088L 15.1662 8.05068C 15.1922 7.50751 14.7662 7.04518 14.2142 7.01955C 13.6692 7.01659 13.1952 7.41386 13.1682 7.95801L 12.4982 21.8161C 12.4722 22.3593 12.8982 22.8216 13.4502 22.8473ZM 10.4995 22.746C 11.0515 22.746 11.4995 22.3043 11.4995 21.7602L 11.4995 7.87348C 11.4995 7.32933 11.0515 6.8877 10.4995 6.8877C 9.94751 6.8877 9.49951 7.32933 9.49951 7.87348L 9.49951 21.7602C 9.49951 22.3043 9.94751 22.746 10.4995 22.746Z" fill="black"/>
</g>
</g>
</svg>

