<svg width="23" height="23" viewBox="0 0 23 23" fill="none" xmlns="http://www.w3.org/2000/svg">
<path d="M21.75 3.58582L19.25 1.08582L20.0428 0.292969C20.4335 -0.0976562 21.0665 -0.0976562 21.4572 0.292969L22.5428 1.37866C22.9335 1.76929 22.9335 2.40234 22.5428 2.79297L21.75 3.58582Z" transform="translate(0.0800781 0.164062)" fill="white"/>
<path d="M8.75 11.5858L7.75 15.0858L11.25 14.0858L21 4.33582L20.25 3.58582L11 12.8358L10 11.8358L19.25 2.58582L18.5 1.83582L8.75 11.5858Z" transform="translate(0.0800781 0.164062)" fill="white"/>
<path d="M14 4.83582L15 3.83582H0V22.8358H19V7.83582L18 8.83582V21.8358H1V4.83582H14Z" transform="translate(0.0800781 0.164062)" fill="white"/>
</svg>
