<svg width="29" height="27" viewBox="0 0 29 27" version="1.1" xmlns="http://www.w3.org/2000/svg" xmlns:xlink="http://www.w3.org/1999/xlink">
<g id="Canvas" fill="none">
<g id="Star (Stroke)">
<path fill-rule="evenodd" clip-rule="evenodd" d="M 17.0458 10.0193L 14.3161 1.61803L 13.7903 0L 13.2646 1.61803L 10.5349 10.0193L 1.7013 10.0193L 0 10.0193L 1.37638 11.0193L 8.52289 16.2115L 5.79316 24.6127L 5.26743 26.2307L 6.64381 25.2307L 13.7903 20.0385L 20.9368 25.2307L 22.3132 26.2307L 21.7875 24.6127L 19.0578 16.2115L 26.2043 11.0193L 27.5806 10.0193L 25.8793 10.0193L 17.0458 10.0193ZM 24.503 11.0193L 17.0458 11.0193L 16.3192 11.0193L 16.0947 10.3283L 13.7903 3.23607L 11.4859 10.3283L 11.2614 11.0193L 10.5349 11.0193L 3.07768 11.0193L 9.11067 15.4025L 9.69846 15.8295L 9.47394 16.5205L 7.16955 23.6127L 13.2025 19.2295L 13.7903 18.8024L 14.3781 19.2295L 20.4111 23.6127L 18.1067 16.5205L 17.8822 15.8295L 18.47 15.4025L 24.503 11.0193Z" transform="translate(0.789795 0)" fill="white"/>
</g>
</g>
</svg>

