<svg width="41" height="39" viewBox="0 0 41 39" fill="none" xmlns="http://www.w3.org/2000/svg">
<path fill-rule="evenodd" clip-rule="evenodd" d="M27.9992 3.56445H24.1592C19.8072 8.77642 18.0925 12.6489 16.916 18.055C17.4971 16.3003 18.0706 15.3737 19.1475 13.6337C19.2591 13.4533 19.3761 13.2641 19.4992 13.0645C17.9479 17.3018 17.9549 18.1152 17.9886 22.0421C17.9917 22.3974 17.995 22.7783 17.9973 23.1895L18.0308 23.1914C18.4811 18.0939 19.4673 15.5589 21.9992 11.5645C20.7908 15.9405 20.4043 18.5442 20.2302 23.3155L21.0065 23.3594C21.2323 17.4629 22.6934 12.094 25.9992 8.56445C24.1974 12.906 23.3297 18.3751 23.497 23.5L24.6392 23.5645C24.8921 15.4947 25.715 11.1422 27.9992 3.56445Z" fill="#007AFF"/>
<path fill-rule="evenodd" clip-rule="evenodd" d="M20 38.564C31.0457 38.564 40 34.0869 40 28.564C40 23.9044 33.6261 19.9892 25 18.8791V23.1979C25.6334 23.738 26 24.378 26 25.064C26 26.997 23.0899 28.564 19.5 28.564C15.9101 28.564 13 26.997 13 25.064C13 23.6081 14.651 22.3597 17 21.8323V18.6758C7.37747 19.3995 0 23.551 0 28.564C0 34.0869 8.9543 38.564 20 38.564ZM6.5 28.564C6.77982 31.642 10.2688 33.7804 12.3678 35.0669C14.0195 36.0792 14.8105 36.564 12.5 36.564C7.25329 36.564 3 33.2062 3 29.064C3 24.9219 7.25329 21.564 12.5 21.564C14.4609 21.564 14.118 21.7037 12.9193 22.1919C10.9109 23.0099 6.5 24.8065 6.5 28.564ZM32.4343 23.1651C33.3566 24.4047 35.6379 27.471 34.0052 31.0677C32.1523 34.4688 28.044 35.3709 25.5517 35.9182C23.6081 36.345 22.6471 36.556 24.5049 37.5681C30.5 37.5681 34.0052 36.064 37.5002 33.0641C39.7769 28.8851 37.6528 25.514 33.4128 23.204C31.8161 22.3342 31.8773 22.4164 32.4343 23.1651ZM33 28.0654C33 31.6553 27.4036 34.5654 20.5 34.5654C13.5964 34.5654 8 31.6542 8 28.0644C8 26.6878 8.28893 26.9551 9.21098 27.8078C10.6935 29.179 13.813 32.064 20 32.064C26.4001 32.3731 29.8552 29.4004 31.5606 27.9331C32.6141 27.0267 33 26.6947 33 28.0654Z" fill="#007AFF"/>
<path d="M22 3.57815C18.7809 6.68335 15.5 17.0837 15.5 17.0837V18.0645C15.1078 17.4769 4.18998 19.5051 0 23.583C6.23845 6.08226 16.597 -4.11446 22 3.57815Z" fill="#007AFF"/>
<path d="M26 17.5623C30.7343 -5.0589 33.7768 -7.64845 40.5 20.5623V24.5623C37.2745 21.3329 34.0558 19.922 26 18.0623V17.5623Z" fill="#007AFF"/>
</svg>
