<svg width="46" height="35" viewBox="0 0 46 35" fill="none" xmlns="http://www.w3.org/2000/svg">
<path fill-rule="evenodd" clip-rule="evenodd" d="M5.21321 9.03641L19.7109 6.04138C21.0131 5.78094 20.7527 6.77928 20.7527 8.21169C20.7527 13.7243 20.7527 13.4639 20.7527 25.0967C20.6659 26.4423 19.4505 27.6577 17.801 27.9616C15.8912 28.2654 14.1115 27.2237 13.8511 25.6176C13.417 23.3171 16.0214 21.7545 18.1483 22.1451V10.6859L6.99287 13.0298V27.4841C6.86265 28.8297 5.69068 30.0451 4.04124 30.3489C2.13136 30.6527 0.351701 29.611 0.0478567 28.005C-0.386206 25.7044 2.21817 24.1418 4.38849 24.5325V9.90454C4.38849 9.47047 4.38849 9.21004 5.21321 9.03641Z" fill="white"/>
<text fill="white" xml:space="preserve" style="white-space: pre" font-family="Antonio-Regular" font-size="24" letter-spacing="0em"><tspan x="24.5469" y="27.6367">3</tspan></text>
</svg>
