<svg width="35" height="34" viewBox="0 0 35 34" fill="none" xmlns="http://www.w3.org/2000/svg">
<path d="M11.1338 19.968C11.0777 21.5665 11.3862 24.0064 13.8822 24.0064C14.1346 24.0064 14.4712 23.9784 14.8077 23.9223C14.359 23.0529 14.0224 22.2396 13.9103 21.6506C13.3494 18.9583 14.6955 17.6963 16.266 16.5184C14.8357 15.3125 13.742 13.7981 14.5272 10.8534C14.5833 10.629 15.5088 8.38542 16.4623 6.11378C16.5465 5.91747 16.6026 5.7492 16.6867 5.58093C16.2099 4.40305 15.7332 3.3093 15.4247 2.49599C15.2845 2.46795 15.1442 2.4399 15.0321 2.38381C14.3309 2.15946 13.8822 1.79487 13.8822 1.3742C13.8822 0.953526 14.3309 0.588942 15.0321 0.364583C15.6771 0.140224 16.5465 0 17.5 0C18.4535 0 19.3229 0.140224 19.9399 0.364583C20.641 0.588942 21.0897 0.953526 21.0897 1.3742C21.0897 1.79487 20.641 2.15946 19.9399 2.38381C19.8277 2.4399 19.6875 2.46795 19.5192 2.52404C19.2107 3.3093 18.762 4.40305 18.2853 5.55289C18.3694 5.7492 18.4535 5.91747 18.5096 6.11378C19.4912 8.38542 20.4167 10.629 20.4728 10.8534C21.2861 13.7981 20.1643 15.3125 18.7059 16.5184C20.2484 17.6963 21.5946 18.9864 21.0337 21.6506C20.9215 22.2396 20.5849 23.0529 20.1362 23.9223C20.5008 23.9784 20.8373 24.0064 21.0897 24.0064C23.5857 24.0064 23.9223 21.5665 23.8662 19.968C23.1931 19.8558 22.5761 19.5192 22.1274 19.0425C21.5104 18.4535 21.1458 17.6122 21.1458 16.6867H22.7163C22.5481 16.3782 22.3798 16.0417 22.3798 15.5929C22.3798 15.004 22.6042 14.4992 22.9968 14.1066C23.3614 13.742 23.8942 13.4896 24.4551 13.4896C25.0441 13.4896 25.5769 13.742 25.9415 14.1066C26.3341 14.4992 26.5585 15.004 26.5585 15.5929C26.5585 16.0697 26.4183 16.3782 26.222 16.6867H27.7925C27.7925 17.6122 27.4279 18.4535 26.8109 19.0425C26.4463 19.4351 25.9696 19.7155 25.4367 19.8838V22.9407C25.4367 24.6795 25.7452 25.6611 26.1939 26.1939C26.6146 26.6426 27.6803 26.7548 28.2973 26.7548C30.7933 26.7548 31.1018 24.343 31.0457 22.7444C30.3726 22.6322 29.7837 22.2957 29.3069 21.8189C28.7179 21.23 28.3253 20.3886 28.3253 19.4631H29.9239C29.7276 19.1546 29.5873 18.8181 29.5873 18.3694C29.5873 17.7805 29.8117 17.2476 30.1763 16.883C30.5689 16.5184 31.0737 16.266 31.6627 16.266C32.2516 16.266 32.7564 16.5184 33.149 16.883C33.5136 17.2476 33.738 17.7805 33.738 18.3694C33.738 18.8462 33.5978 19.1546 33.4295 19.4631H35C35 20.3886 34.6074 21.23 34.0184 21.8189C33.6258 22.2396 33.0929 22.52 32.5321 22.6883C32.6442 24.6514 32.3077 28.2412 28.2973 28.2412C27.6803 28.2412 26.867 28.1571 26.1659 27.8766C24.2308 28.8582 22.2676 29.4752 20.2764 29.7837C20.3325 29.98 20.3606 30.2324 20.3606 30.4567C20.3606 31.242 20.0521 31.9431 19.5192 32.476C18.9864 32.9808 18.2853 33.2893 17.5 33.2893C16.6867 33.2893 15.9856 32.9808 15.4527 32.476C14.9479 31.9431 14.6114 31.242 14.6114 30.4567C14.6114 30.2043 14.6394 29.9519 14.7236 29.6995C12.7885 29.391 10.8534 28.774 8.86218 27.8766C8.13301 28.1571 7.31971 28.2412 6.70272 28.2412C2.69231 28.2412 2.35577 24.6514 2.46795 22.6883C1.87901 22.52 1.3742 22.2396 0.981571 21.8189C0.364583 21.23 0 20.3886 0 19.4631H1.57051C1.40224 19.1546 1.23397 18.8462 1.23397 18.3694C1.23397 17.7805 1.48638 17.2476 1.85096 16.883C2.24359 16.5184 2.7484 16.266 3.33734 16.266C3.89824 16.266 4.43109 16.5184 4.79567 16.883C5.1883 17.2476 5.41266 17.7805 5.41266 18.3694C5.41266 18.8181 5.24439 19.1546 5.07612 19.4631H6.64663C6.64663 20.3886 6.28205 21.23 5.69311 21.8189C5.21635 22.2957 4.59936 22.6322 3.92628 22.7444C3.89824 24.343 4.20673 26.7548 6.70272 26.7548C7.31971 26.7548 8.38542 26.6426 8.77804 26.1939C9.25481 25.6611 9.5633 24.6795 9.5633 22.9407V19.8838C9.03045 19.7155 8.55369 19.4351 8.16106 19.0425C7.57212 18.4535 7.17949 17.6122 7.17949 16.6867H8.77804C8.58173 16.3782 8.44151 16.0697 8.44151 15.5929C8.44151 15.004 8.66587 14.4992 9.03045 14.1066C9.42308 13.742 9.95593 13.4896 10.5168 13.4896C11.1058 13.4896 11.6106 13.742 12.0032 14.1066C12.3678 14.4992 12.5921 15.004 12.5921 15.5929C12.5921 16.0417 12.4519 16.3782 12.2556 16.6867H13.8542C13.8542 17.6122 13.4615 18.4535 12.8726 19.0425C12.3958 19.5192 11.8069 19.8558 11.1338 19.968ZM16.1258 23.2212C16.5184 22.6603 16.7428 21.7067 16.7428 20.1643V18.0329C15.7612 18.8462 15.0321 19.7716 15.3686 21.3421C15.4527 21.8189 15.7332 22.4639 16.1258 23.2212ZM16.7428 14.9199V9.28285C16.2941 10.3766 15.9575 11.1619 15.9575 11.2179C15.4808 12.9567 15.9575 14.0505 16.7428 14.9199ZM18.2292 9.25481V14.9199C19.0425 14.0785 19.5192 12.9567 19.0425 11.2179C19.0144 11.1619 18.7059 10.3766 18.2292 9.25481ZM18.2292 18.0329V20.1643C18.2292 21.7067 18.4816 22.6322 18.8462 23.1931C19.2388 22.4639 19.5192 21.7909 19.6034 21.3421C19.9119 19.7716 19.2107 18.8462 18.2292 18.0329ZM18.762 29.9239C18.4255 29.9519 18.0889 29.9519 17.7524 29.9519C17.2476 29.9519 16.7428 29.9239 16.238 29.8958C16.1538 30.0641 16.0978 30.2604 16.0978 30.4567C16.0978 30.8213 16.238 31.1579 16.4904 31.4103C16.7428 31.6627 17.1074 31.8029 17.5 31.8029C17.8926 31.8029 18.2292 31.6627 18.4816 31.4103C18.734 31.1579 18.8742 30.8213 18.8742 30.4567C18.8742 30.2604 18.8462 30.0921 18.762 29.9239ZM15.5929 28.3253C15.8734 28.0168 16.238 27.512 16.6026 26.9511C16.266 26.4183 15.9014 25.8293 15.5649 25.2684C14.976 25.4087 14.387 25.4647 13.8822 25.4647C12.5361 25.4647 11.5825 25.0721 10.9655 24.4551C10.8253 25.4928 10.5449 26.278 10.1522 26.8389C12.0032 27.5962 13.8261 28.101 15.5929 28.3253ZM19.4071 25.2684C19.0705 25.8293 18.7059 26.3902 18.3694 26.9231C18.7901 27.5401 19.1546 28.0449 19.4351 28.3814C21.2861 28.1851 23.0809 27.6803 24.8478 26.867C24.4551 26.3061 24.1747 25.5208 24.0345 24.4551C23.3894 25.0721 22.4639 25.4647 21.0897 25.4647C20.613 25.4647 19.996 25.4087 19.4071 25.2684ZM17.6963 28.4655C17.6402 28.3814 17.5561 28.2692 17.5 28.1851C17.4159 28.2692 17.3317 28.3814 17.2756 28.4655C17.4159 28.4655 17.5561 28.4655 17.6963 28.4655ZM17.5 25.5769C17.6963 25.2404 17.8926 24.9038 18.0889 24.5954C18.0048 24.5112 17.9487 24.4551 17.8926 24.399C17.7524 24.2308 17.6122 24.0345 17.5 23.8101C17.3598 24.0345 17.2196 24.2308 17.0793 24.399C17.0232 24.4551 16.9671 24.5393 16.883 24.5954C17.0793 24.9038 17.2756 25.2404 17.5 25.5769ZM30.3165 19.4631H31.3822L31.3542 19.2949C31.27 18.9022 31.1018 18.4255 31.0737 18.2292C31.0457 18.0329 31.0457 18.0889 31.1579 18.2011C31.27 18.2853 31.4944 18.6218 31.6627 18.6218C31.8309 18.6218 32.0272 18.3133 32.1394 18.2011C32.2516 18.0889 32.2516 18.0048 32.2516 18.2292C32.2236 18.4535 32.0272 18.9022 31.9712 19.2949L31.9431 19.4631H32.9808C33.2051 19.1546 33.4014 18.8462 33.4014 18.3413C33.4014 17.8646 33.2051 17.4439 32.8966 17.1074C32.5601 16.7989 32.1394 16.6026 31.6627 16.6026C31.1859 16.6026 30.7372 16.7989 30.4287 17.1074C30.1202 17.4439 29.9239 17.8646 29.9239 18.3413C29.9239 18.8181 30.1202 19.1266 30.3165 19.4631ZM23.137 16.6867H24.1747L24.1466 16.5184C24.0905 16.1258 23.9223 15.649 23.8942 15.4527C23.8381 15.2564 23.8381 15.3125 23.9784 15.4247C24.0905 15.5369 24.3149 15.8454 24.4551 15.8454C24.6514 15.8454 24.8478 15.5369 24.9599 15.4247C25.0441 15.3125 25.0721 15.2284 25.0441 15.4527C25.016 15.6771 24.8478 16.1258 24.7636 16.5184L24.7356 16.6867H25.8013C25.9976 16.3782 26.1939 16.0697 26.1939 15.5649C26.1939 15.0881 25.9976 14.6675 25.6891 14.359C25.3806 14.0224 24.9319 13.8261 24.4551 13.8261C23.9784 13.8261 23.5577 14.0224 23.2212 14.359C22.9127 14.6675 22.7163 15.0881 22.7163 15.5649C22.7163 16.0417 22.9127 16.3502 23.137 16.6867ZM1.99119 19.4631H3.05689L3.02885 19.2949C2.97276 18.9022 2.77644 18.4535 2.7484 18.2292C2.72035 18.0048 2.7484 18.0889 2.86058 18.2011C2.94471 18.3133 3.14103 18.6218 3.33734 18.6218C3.47756 18.6218 3.70192 18.2853 3.84215 18.2011C3.95433 18.0889 3.95433 18.0329 3.92628 18.2292C3.87019 18.4255 3.70192 18.9022 3.64583 19.2949L3.61779 19.4631H4.65545C4.87981 19.1266 5.07612 18.8181 5.07612 18.3413C5.07612 17.8646 4.87981 17.4439 4.57131 17.1074C4.26282 16.7989 3.8141 16.6026 3.33734 16.6026C2.86058 16.6026 2.4399 16.7989 2.10337 17.1074C1.79487 17.4439 1.59856 17.8646 1.59856 18.3413C1.59856 18.8462 1.79487 19.1546 1.99119 19.4631ZM9.19872 16.6867H10.2364L10.2083 16.5184C10.1522 16.1258 9.95593 15.6771 9.92788 15.4527C9.92788 15.2284 9.92788 15.3125 10.0401 15.4247C10.1522 15.5369 10.3486 15.8454 10.5168 15.8454C10.6851 15.8454 10.9095 15.5369 11.0216 15.4247C11.1338 15.3125 11.1338 15.2564 11.1058 15.4527C11.0777 15.649 10.9095 16.1258 10.8253 16.5184L10.7973 16.6867H11.863C12.0593 16.3502 12.2556 16.0417 12.2556 15.5649C12.2556 15.0881 12.0593 14.6675 11.7508 14.359C11.4423 14.0224 10.9936 13.8261 10.5168 13.8261C10.0401 13.8261 9.61939 14.0224 9.3109 14.359C8.97436 14.6675 8.77804 15.0881 8.77804 15.5649C8.77804 16.0697 8.97436 16.3782 9.19872 16.6867Z" fill="#5B5B5F"/>
</svg>
