<svg width="48" height="35" viewBox="0 0 48 35" fill="none" xmlns="http://www.w3.org/2000/svg">
<g filter="url(#filter0_i)">
<path d="M24 32.5952C23.6678 32.5952 23.4187 32.4291 23.2526 32.1384C22.9619 31.7232 23.1696 31.2249 23.5848 31.0173C24.3322 30.6021 24.872 30.1038 24.872 29.6471C24.872 29.2318 24.4567 28.7336 23.5848 28.2768C22.2145 27.4464 21.4256 26.4083 21.4256 25.2872C21.4256 24.1661 22.2145 23.1695 23.5848 22.3806C24 22.1315 24.5398 22.2976 24.7059 22.7128C24.872 23.1695 24.7889 23.6678 24.3322 23.8339C23.6678 24.3322 23.1696 24.872 23.1696 25.2872C23.1696 25.7024 23.5848 26.2422 24.4567 26.6574C25.827 27.3633 26.5744 28.4844 26.5744 29.564C26.5744 30.6851 25.827 31.7232 24.4567 32.5121C24.2491 32.5952 24.1661 32.5952 24 32.5952ZM1.70242 12.872C1.70242 12.3322 2.07612 12 2.57439 12H45.4256C45.9654 12 46.2976 12.3322 46.2976 12.872C46.2976 13.3702 45.9654 13.7024 45.4256 13.7024H2.57439C2.07612 13.7024 1.70242 13.3702 1.70242 12.872ZM2.57439 8.55363C2.07612 8.55363 1.70242 8.92733 1.70242 9.4256C1.70242 9.92387 2.07612 10.2976 2.57439 10.2976H45.4256C45.9654 10.2976 46.2976 9.92387 46.2976 9.4256C46.2976 8.92733 45.9654 8.55363 45.4256 8.55363H2.57439ZM2.57439 15.4464H45.4256C45.9654 15.4464 46.2976 15.7785 46.2976 16.2768C46.2976 16.8166 45.9654 17.1488 45.4256 17.1488H2.57439C2.07612 17.1488 1.70242 16.8166 1.70242 16.2768C1.70242 15.7785 2.07612 15.4464 2.57439 15.4464ZM0.871972 18.8512H47.1696C47.6678 18.8512 48 18.519 48 18.0208V0.871972C48 0.33218 47.6678 0 47.1696 0H0.871972C0.415225 0 0 0.33218 0 0.871972V18.0208C0 18.519 0.33218 18.8512 0.871972 18.8512ZM27.4464 6.02076H20.5952C20.0554 6.02076 19.7232 5.64706 19.7232 5.14879C19.7232 4.609 20.0554 4.27682 20.5952 4.27682H27.4464C27.9446 4.27682 28.2768 4.609 28.2768 5.14879C28.2768 5.64706 27.9446 6.02076 27.4464 6.02076ZM33.4256 34.2976C33.0934 34.2976 32.8443 34.1315 32.6782 33.8823C32.4291 33.4256 32.5952 32.9273 33.0104 32.7612C33.7993 32.3045 34.2976 31.8062 34.2976 31.391C34.2976 30.9343 33.8824 30.436 33.0104 30.0208C31.6401 29.1488 30.8512 28.1107 30.8512 26.9896C30.8512 25.91 31.6401 24.872 33.0104 24.083C33.4256 23.8339 33.9654 24 34.1315 24.4152C34.2976 24.872 34.2145 25.3702 33.7993 25.5363C33.0934 26.0761 32.5952 26.5744 32.5952 26.9896C32.5952 27.4464 33.0104 27.9446 33.8824 28.3599C35.2526 29.0657 36 30.1868 36 31.308C36 32.4291 35.2526 33.4256 33.8824 34.2145C33.7163 34.2976 33.5917 34.2976 33.4256 34.2976ZM14.5744 34.2976C14.2422 34.2976 13.9931 34.1315 13.7855 33.8823C13.5363 33.4256 13.7024 32.9273 14.1592 32.7612C14.9066 32.3045 15.4464 31.8062 15.4464 31.391C15.4464 30.9343 14.9896 30.436 14.1592 30.0208C12.7889 29.1488 12 28.1107 12 26.9896C12 25.91 12.7889 24.872 14.1592 24.083C14.5744 23.8339 15.0727 24 15.2803 24.4152C15.5294 24.872 15.3633 25.3702 14.9066 25.5363C14.2422 26.0761 13.7024 26.5744 13.7024 26.9896C13.7024 27.4464 14.1592 27.9446 14.9896 28.3599C16.3599 29.0657 17.1488 30.1868 17.1488 31.308C17.1488 32.4291 16.3599 33.4256 14.9896 34.2145C14.8235 34.2976 14.7405 34.2976 14.5744 34.2976Z" fill="#5B5B5F"/>
</g>
<defs>
<filter id="filter0_i" x="0" y="0" width="48" height="38.2976" filterUnits="userSpaceOnUse" color-interpolation-filters="sRGB">
<feFlood flood-opacity="0" result="BackgroundImageFix"/>
<feBlend mode="normal" in="SourceGraphic" in2="BackgroundImageFix" result="shape"/>
<feColorMatrix in="SourceAlpha" type="matrix" values="0 0 0 0 0 0 0 0 0 0 0 0 0 0 0 0 0 0 127 0" result="hardAlpha"/>
<feOffset dy="4"/>
<feGaussianBlur stdDeviation="2"/>
<feComposite in2="hardAlpha" operator="arithmetic" k2="-1" k3="1"/>
<feColorMatrix type="matrix" values="0 0 0 0 0 0 0 0 0 0 0 0 0 0 0 0 0 0 0.25 0"/>
<feBlend mode="normal" in2="shape" result="effect1_innerShadow"/>
</filter>
</defs>
</svg>
