<svg width="35" height="35" viewBox="0 0 35 35" fill="none" xmlns="http://www.w3.org/2000/svg">
<g filter="url(#filter0_i)">
<path fill-rule="evenodd" clip-rule="evenodd" d="M12.5398 12.1713C12.1159 14.2907 11.1168 15.8953 10.1479 17.4394C8.9974 19.2863 7.87716 21.1029 7.87716 23.6462C7.87716 26.25 8.93685 28.6419 10.6626 30.3676C12.3581 32.0631 14.75 33.1531 17.3841 33.1531C19.9879 33.1531 22.3798 32.0631 24.1055 30.3676C25.801 28.6419 26.891 26.25 26.891 23.6462C26.891 20.8607 25.7405 19.1349 24.59 17.3486C23.6211 15.8348 22.622 14.3209 22.1981 12.1713C20.8054 12.0804 19.5943 12.0199 18.4438 11.9896C18.5043 14.2907 18.7163 16.4403 19.0796 18.4991C19.4429 20.5277 20.442 23.0709 20.5631 24.2517C20.6843 25.4628 20.5934 25.0692 20.0182 24.4637C19.4732 23.8581 18.4135 22.1021 17.3538 22.1021C16.5363 22.1021 15.3253 23.8884 14.6894 24.4939C14.0234 25.0995 13.9931 25.3417 14.205 24.282C14.417 23.192 15.3253 20.5277 15.6886 18.4991C16.0216 16.4403 16.2336 14.2907 16.2941 11.9896C15.1436 12.0199 13.9325 12.0804 12.5398 12.1713ZM12.9637 1.33218H13.1453C13.1453 1.02941 13.66 0.787197 14.5381 0.66609C14.9922 0.605536 15.5978 0.544983 16.2638 0.514706V0.484429C16.2638 0.211938 16.7785 0 17.4144 0C18.0502 0 18.5649 0.211938 18.5649 0.484429V0.514706C19.231 0.544983 19.8365 0.605536 20.2907 0.66609C21.1687 0.787197 21.6834 1.02941 21.6834 1.33218H21.8651C23.167 1.33218 23.2578 3.48183 22.1678 3.81488C23.1972 4.14792 23.1972 5.96453 22.1678 6.2673C23.167 6.57007 23.167 8.26557 22.2889 8.65917H22.7431C23.6817 8.65917 23.9844 9.80969 23.6514 10.5666C24.045 12.8979 25.1047 14.5631 26.1644 16.1678C27.5268 18.2266 28.8287 20.2552 28.8287 23.5856C28.8287 26.7344 27.5571 29.6107 25.4983 31.6695C23.4092 33.7284 20.5631 35 17.4144 35C14.2656 35 11.4196 33.7284 9.33045 31.6695C7.27163 29.6107 6 26.7344 6 23.5856C6 20.5277 7.3019 18.4386 8.63408 16.2889C9.69377 14.5934 10.7837 12.8676 11.1773 10.5666C10.8443 9.80969 11.1471 8.65917 12.1159 8.65917H12.5398C11.6618 8.26557 11.6618 6.57007 12.6609 6.2673C11.6315 5.96453 11.6315 4.14792 12.6609 3.81488C11.5407 3.48183 11.6618 1.33218 12.9637 1.33218ZM12.2067 11.2024C11.7223 13.4732 10.6324 15.199 9.60294 16.8945C8.33131 18.8927 7.12024 20.8304 7.12024 23.5856C7.12024 26.4317 8.27076 29.0052 10.1479 30.8521C11.9948 32.7292 14.5683 33.8798 17.4144 33.8798C20.2604 33.8798 22.8339 32.7292 24.6808 30.8521C26.558 29.0052 27.7085 26.4317 27.7085 23.5856C27.7085 20.5882 26.4671 18.7111 25.2258 16.7734C24.1661 15.1687 23.1064 13.5035 22.622 11.2024C21.1384 11.0813 13.6903 11.0813 12.2067 11.2024ZM16.8391 11.9896C16.7483 14.3209 16.5666 16.5009 16.2033 18.5597C15.9308 20.1341 15.5978 21.6176 15.1739 23.0407C15.8702 22.1929 16.5969 21.5571 17.3538 21.5571C18.2621 21.5571 19.0796 22.4351 19.6246 23.1012C19.1704 21.6782 18.8374 20.1644 18.5649 18.59C18.2016 16.5009 17.9896 14.3209 17.8988 11.9896C18.4135 11.9896 16.4758 11.9896 16.8391 11.9896Z" fill="#5B5B5F"/>
</g>
<defs>
<filter id="filter0_i" x="6" y="0" width="22.8287" height="39" filterUnits="userSpaceOnUse" color-interpolation-filters="sRGB">
<feFlood flood-opacity="0" result="BackgroundImageFix"/>
<feBlend mode="normal" in="SourceGraphic" in2="BackgroundImageFix" result="shape"/>
<feColorMatrix in="SourceAlpha" type="matrix" values="0 0 0 0 0 0 0 0 0 0 0 0 0 0 0 0 0 0 127 0" result="hardAlpha"/>
<feOffset dy="4"/>
<feGaussianBlur stdDeviation="2"/>
<feComposite in2="hardAlpha" operator="arithmetic" k2="-1" k3="1"/>
<feColorMatrix type="matrix" values="0 0 0 0 0 0 0 0 0 0 0 0 0 0 0 0 0 0 0.25 0"/>
<feBlend mode="normal" in2="shape" result="effect1_innerShadow"/>
</filter>
</defs>
</svg>
