<svg width="35" height="35" viewBox="0 0 35 35" fill="none" xmlns="http://www.w3.org/2000/svg">
<path fill-rule="evenodd" clip-rule="evenodd" d="M12.6609 6.2673C11.692 6.57007 11.692 8.26557 12.5701 8.65917H12.1159C11.1773 8.65917 10.8443 9.80969 11.1773 10.5666C10.7837 12.8676 9.72405 14.5934 8.63408 16.2889C7.3019 18.4386 6 20.5277 6 23.5856C6 26.7344 7.3019 29.6107 9.36073 31.6695C11.4196 33.7284 14.2656 35 17.4144 35C20.5934 35 23.4394 33.7284 25.4983 31.6695C27.5571 29.6107 28.859 26.7344 28.859 23.5856C28.859 20.2552 27.5268 18.2266 26.1644 16.1678C25.1349 14.5631 24.045 12.8979 23.6817 10.5666C24.0147 9.80969 23.6817 8.65917 22.7431 8.65917H22.2889C23.167 8.26557 23.167 6.57007 22.1981 6.2673C23.1972 5.96453 23.1972 4.14792 22.1981 3.81488C23.2881 3.48183 23.1972 1.33218 21.8953 1.33218H21.7137C21.7137 1.02941 21.1687 0.787197 20.3209 0.66609C19.8365 0.605536 19.2612 0.544983 18.5952 0.514706V0.484429C18.5952 0.211938 18.0805 0 17.4144 0C16.7785 0 16.2638 0.211938 16.2638 0.484429V0.514706C15.5978 0.544983 15.0225 0.605536 14.5381 0.66609C13.6903 0.787197 13.1453 1.02941 13.1453 1.33218H12.9637C11.6618 1.33218 11.5709 3.48183 12.6609 3.81488C11.6618 4.14792 11.6618 5.96453 12.6609 6.2673ZM18.474 11.9896C19.6246 12.0199 20.8054 12.0804 22.1981 12.1713C22.622 14.3209 23.6211 15.8348 24.59 17.3486C25.7708 19.1349 26.891 20.8607 26.891 23.6462C26.891 26.25 25.8313 28.6419 24.1055 30.3676C22.3798 32.0631 20.0182 33.1531 17.3841 33.1531C14.75 33.1531 12.3884 32.0631 10.6626 30.3676C8.93685 28.6419 7.87716 26.25 7.87716 23.6462C7.87716 21.1029 8.99741 19.2863 10.1479 17.4394C11.1471 15.8953 12.1159 14.2907 12.5701 12.1713C13.9628 12.0804 15.1436 12.0199 16.2941 11.9896C16.2336 14.2907 16.0519 16.4403 15.6886 18.4991C15.3555 20.5277 14.417 23.192 14.2353 24.282C14.0234 25.3417 14.0234 25.0995 14.6894 24.4939C15.3555 23.8884 16.5666 22.1021 17.3841 22.1021C18.4135 22.1021 19.4732 23.8581 20.0484 24.4637C20.5934 25.0692 20.7145 25.4628 20.5934 24.2517C20.4723 23.0709 19.4429 20.5277 19.0796 18.4991C18.7465 16.4403 18.5346 14.2907 18.474 11.9896Z" fill="#5B5B5F"/>
</svg>
