<svg width="71" height="76" viewBox="0 0 71 76" fill="none" xmlns="http://www.w3.org/2000/svg">
<g filter="url(#filter0_d)">
<path d="M35.4818 0C18.1335 0 4 14.0728 4 31.4818C4 39.6252 7.11213 46.9765 12.1341 52.5519C12.4763 52.9318 12.6742 53.4219 12.6742 53.9332V65.8111C12.6742 67.4929 14.6238 68.4237 15.9316 67.3663L23.1694 61.5145C23.7307 61.0606 24.4913 60.9497 25.1725 61.1883C28.3944 62.3168 31.8893 62.9029 35.4818 62.9029C52.8302 62.9029 66.9636 48.8302 66.9636 31.4211C66.9636 14.0728 52.8908 0 35.4818 0Z" fill="#202124"/>
<path fill-rule="evenodd" clip-rule="evenodd" d="M22 19C22 16.7909 23.7909 15 26 15H45.6482C47.8573 15 49.6482 16.7909 49.6482 19V44.3196C49.6482 46.5287 47.8573 48.3196 45.6482 48.3196H26C23.7909 48.3196 22 46.5287 22 44.3196V19ZM25.5449 20.5449C25.5449 19.4404 26.4404 18.5449 27.5449 18.5449H44.1038C45.2084 18.5449 46.1038 19.4404 46.1038 20.5449V28.5967C46.1038 29.7013 45.2084 30.5967 44.1038 30.5967H27.5449C26.4404 30.5967 25.5449 29.7013 25.5449 28.5967V20.5449ZM44.3309 34.8493C45.3097 34.8493 46.1032 34.0558 46.1032 33.077C46.1032 32.0982 45.3097 31.3047 44.3309 31.3047C43.3521 31.3047 42.5586 32.0982 42.5586 33.077C42.5586 34.0558 43.3521 34.8493 44.3309 34.8493ZM25.5449 32.7226C25.5449 32.3311 25.8623 32.0137 26.2538 32.0137H28.3806C28.7722 32.0137 29.0896 32.3311 29.0896 32.7226C29.0896 33.1141 28.7722 33.4315 28.3806 33.4315H26.2538C25.8623 33.4315 25.5449 33.1141 25.5449 32.7226ZM31.9247 32.0137C31.5332 32.0137 31.2158 32.3311 31.2158 32.7226C31.2158 33.1141 31.5332 33.4315 31.9247 33.4315H34.0515C34.4431 33.4315 34.7605 33.1141 34.7605 32.7226C34.7605 32.3311 34.4431 32.0137 34.0515 32.0137H31.9247ZM40.2231 35.5586H24.127V34.5586H40.4323V35.2047L40.687 34.7736C42.1509 35.6387 43.1858 36.0638 44.1312 36.0855C45.0532 36.1067 45.9784 35.744 47.2204 34.8052L47.8234 35.603C46.497 36.6055 45.3517 37.1139 44.1082 37.0853C42.8881 37.0572 41.6625 36.5116 40.1782 35.6346L40.2231 35.5586Z" fill="white"/>
</g>
<defs>
<filter id="filter0_d" x="0" y="0" width="70.9636" height="75.8148" filterUnits="userSpaceOnUse" color-interpolation-filters="sRGB">
<feFlood flood-opacity="0" result="BackgroundImageFix"/>
<feColorMatrix in="SourceAlpha" type="matrix" values="0 0 0 0 0 0 0 0 0 0 0 0 0 0 0 0 0 0 127 0"/>
<feOffset dy="4"/>
<feGaussianBlur stdDeviation="2"/>
<feColorMatrix type="matrix" values="0 0 0 0 0 0 0 0 0 0 0 0 0 0 0 0 0 0 0.79 0"/>
<feBlend mode="normal" in2="BackgroundImageFix" result="effect1_dropShadow"/>
<feBlend mode="normal" in="SourceGraphic" in2="effect1_dropShadow" result="shape"/>
</filter>
</defs>
</svg>
