<svg width="49" height="49" viewBox="0 0 49 49" fill="none" xmlns="http://www.w3.org/2000/svg">
<g filter="url(#filter0_d)">
<path fill-rule="evenodd" clip-rule="evenodd" d="M26.0601 10.7382C25.9913 10.7286 25.9225 10.7194 25.8537 10.7108L25.6931 8.80786C25.6433 8.21874 25.487 8.20892 25.3432 8.77725L24.8764 10.6221C24.6531 10.6096 24.4306 10.6025 24.2089 10.6007L23.817 8.72898C23.6959 8.15031 23.5396 8.15962 23.4661 8.74124L23.2278 10.6271C22.9979 10.6415 22.7691 10.6614 22.5417 10.6869L21.9587 8.87377C21.7777 8.31093 21.6232 8.33653 21.6109 8.92264L21.5709 10.8306C21.3514 10.8711 21.1335 10.9167 20.9172 10.9675L20.1166 9.23683C19.8684 8.70025 19.7181 8.74449 19.7774 9.32772L19.9701 11.2252C19.7572 11.2912 19.5463 11.3623 19.3375 11.4382L18.3304 9.8156C18.0186 9.31326 17.8749 9.37548 18.0048 9.94715L18.4271 11.806C18.2238 11.8965 18.0228 11.9919 17.8243 12.0918L16.6253 10.6019C16.2546 10.1413 16.1196 10.2206 16.3181 10.7722L16.9632 12.564C16.772 12.6777 16.5835 12.7959 16.398 12.9185L15.0252 11.5848C14.6012 11.1728 14.4768 11.2679 14.7411 11.7912L15.5982 13.488C15.4159 13.6276 15.237 13.7717 15.0617 13.9202L13.5647 12.7433C13.0999 12.3778 12.9862 12.4855 13.3037 12.9782L14.3357 14.5796C14.1758 14.7353 14.0196 14.8949 13.8671 15.0583L12.2397 14.0737C11.7338 13.7676 11.634 13.8883 12.0093 14.3387L13.2244 15.7971C13.0835 15.971 12.9466 16.1485 12.8139 16.3294L11.0815 15.5517C10.5421 15.3096 10.4577 15.4416 10.8851 15.8429L12.2636 17.1374C12.1439 17.3272 12.0285 17.5203 11.9177 17.7165L10.1064 17.1567C9.54158 16.9821 9.47393 17.1233 9.947 17.4696L11.4677 18.5825C11.3711 18.7856 11.2791 18.9916 11.192 19.2003L9.32831 18.8659C8.74639 18.7614 8.69646 18.9099 9.2082 19.1959L10.8484 20.1125C10.7743 20.3323 10.7053 20.5548 10.6418 20.7798L8.76404 20.6428C8.17439 20.5997 8.14025 20.7526 8.67908 20.9835L10.4099 21.7253C10.3638 21.946 10.3227 22.1689 10.2869 22.3938L8.40817 22.4865C7.81767 22.5157 7.80241 22.6715 8.36537 22.8351L10.1667 23.3584C10.1462 23.5861 10.1313 23.8132 10.122 24.0394L8.27316 24.3596C7.69062 24.4605 7.69447 24.617 8.27316 24.7107L10.1154 25.0091C10.1218 25.2385 10.1338 25.4669 10.1514 25.694L8.36095 26.2355C7.79504 26.4066 7.81794 26.5615 8.40375 26.584L10.2594 26.6553C10.294 26.8898 10.3346 27.1227 10.3809 27.3538L8.66993 28.0739C8.12501 28.3033 8.16397 28.455 8.74892 28.4161L10.6033 28.2929C10.6643 28.5157 10.7307 28.7365 10.8024 28.9552L9.19482 29.8768C8.68191 30.1708 8.73907 30.3166 9.31493 30.2068L11.134 29.8598C11.2211 30.0742 11.3134 30.2863 11.4108 30.4957L9.92957 31.6048C9.45632 31.9592 9.53082 32.0969 10.089 31.9177L11.8463 31.3535C11.9583 31.5566 12.0753 31.7569 12.1971 31.954L10.8638 33.2337C10.4373 33.6431 10.528 33.7707 11.0602 33.5248L12.7295 32.7535C12.865 32.9426 13.0051 33.1283 13.1497 33.3104L11.9845 34.7404C11.611 35.1987 11.7167 35.3144 12.2149 35.0055L13.7712 34.0405C13.9328 34.2177 14.099 34.3909 14.2697 34.5599L13.2677 36.0926C12.9442 36.5874 13.0613 36.6914 13.5245 36.3321L14.972 35.2093C15.1493 35.3623 15.3306 35.5111 15.5158 35.6553L14.7101 37.2945C14.4493 37.8251 14.5783 37.914 14.9942 37.5009L16.2882 36.2159C16.483 36.3473 16.6814 36.474 16.8833 36.5958L16.2848 38.3171C16.0906 38.8755 16.2294 38.948 16.5919 38.4873L17.7154 37.0597C17.9248 37.1672 18.1375 37.2697 18.3534 37.3669L17.9696 39.146C17.8449 39.7239 17.9915 39.779 18.2952 39.2775L19.2337 37.7278C19.4545 37.8097 19.6783 37.8862 19.9048 37.9573L19.7407 39.7694C19.6874 40.3582 19.8396 40.395 20.0799 39.8603L20.8212 38.2108C21.0563 38.2674 21.294 38.3182 21.5342 38.363L21.5603 40.1738C21.5688 40.765 21.7241 40.7857 21.9072 40.2287L22.4736 38.5059C22.7103 38.5339 22.9463 38.5558 23.1816 38.5717L23.428 40.3647C23.5085 40.9504 23.6651 40.952 23.779 40.3769L24.1301 38.6037C24.3688 38.6037 24.6064 38.5976 24.8428 38.5855L25.3053 40.3329C25.4566 40.9045 25.6122 40.887 25.6552 40.3023L25.7871 38.5049C26.0243 38.4764 26.26 38.442 26.494 38.4016L27.1657 40.079C27.3855 40.6278 27.5378 40.5915 27.5092 40.006L27.4213 38.209C27.6533 38.1525 27.8833 38.0902 28.1111 38.0221L28.983 39.6064C29.268 40.1243 29.4148 40.0697 29.315 39.492L29.009 37.7204C29.2382 37.6345 29.4649 37.5428 29.6887 37.4454L30.7181 38.925C31.0557 39.4104 31.196 39.3407 31.0364 38.7766L30.5443 37.0379C30.7557 36.9284 30.964 36.8136 31.1692 36.6936L32.3738 38.0397C32.7681 38.4803 32.8988 38.394 32.6716 37.8536L31.9714 36.1877C32.1679 36.0543 32.3611 35.9159 32.5506 35.7727L33.9131 36.9644C34.3582 37.3536 34.4774 37.2521 34.1861 36.7434L33.2881 35.1755C33.4674 35.0201 33.6427 34.8601 33.814 34.6956L35.3143 35.7143C35.8035 36.0464 35.9094 35.9311 35.5583 35.4616L34.4763 34.0154C34.6358 33.8402 34.7909 33.6607 34.9416 33.4772L36.5576 34.3069C37.0836 34.5769 37.1747 34.4495 36.769 34.0264L35.5191 32.7231C35.6601 32.5253 35.7962 32.3236 35.9272 32.118L37.6162 32.7723C38.1675 32.9858 38.2448 32.8496 37.797 32.4712L36.4102 31.2993C36.523 31.0922 36.6308 30.8817 36.7335 30.6679L38.495 31.1128C39.0682 31.2576 39.1283 31.113 38.6378 30.792L37.116 29.7962C37.2029 29.578 37.2846 29.3569 37.3609 29.133L39.171 29.3609C39.7576 29.4347 39.7997 29.2839 39.2737 29.025L37.6376 28.22C37.6976 27.9943 37.7523 27.7661 37.8015 27.5355L39.6349 27.5411C40.2261 27.5429 40.2495 27.3881 39.6959 27.1953L37.9692 26.594L37.9754 26.5504C38.007 26.3259 38.033 26.1019 38.0537 25.8785L39.8763 25.6925C40.4644 25.6325 40.4715 25.4761 39.9008 25.3422L38.1094 24.922C38.115 24.688 38.1148 24.4549 38.1088 24.2229L39.9007 23.8149C40.4772 23.6837 40.4652 23.5275 39.8824 23.4642L38.0509 23.2653C38.0289 23.0332 38.001 22.8024 37.9676 22.5731L39.7027 21.9476C40.2589 21.7471 40.2279 21.5936 39.6417 21.6018L37.796 21.6275C37.7466 21.4008 37.6918 21.1759 37.6315 20.9529L39.2848 20.1168C39.8124 19.85 39.763 19.7014 39.1821 19.781L37.348 20.0323C37.2726 19.8143 37.1918 19.5985 37.1059 19.3851L38.6531 18.3484C39.1442 18.0193 39.077 17.8778 38.5102 18.0276L36.7145 18.502C36.6115 18.2897 36.5032 18.0801 36.3898 17.8736L37.8207 16.6804C38.2747 16.3017 38.1931 16.1681 37.6451 16.3762L35.8947 17.0411C35.7715 16.8492 35.6436 16.6604 35.5112 16.4748L36.7922 15.1095C37.1967 14.6783 37.0994 14.5556 36.5808 14.829L34.9207 15.7043C34.7764 15.529 34.6279 15.3571 34.4753 15.1889L35.5848 13.6715C35.9338 13.1942 35.8223 13.0843 35.3409 13.4188L33.7973 14.4917C33.6341 14.3351 33.467 14.1823 33.2961 14.0335L34.2156 12.3866C34.5038 11.8703 34.3797 11.7748 33.9427 12.1656L32.5398 13.4199C32.3599 13.2841 32.1765 13.1524 31.9896 13.0251L32.7038 11.2729C32.9269 10.7254 32.7921 10.6457 32.406 11.0868L31.165 12.5043C30.9651 12.3877 30.7619 12.2758 30.5554 12.1688L31.0816 10.3546C31.2463 9.78677 31.1039 9.7216 30.766 10.2006L29.673 11.7501C29.4676 11.6614 29.2595 11.5774 29.0488 11.4982L29.3511 9.62644C29.4454 9.04278 29.2961 8.99545 29.0191 9.51211L28.1213 11.1864C27.9079 11.123 27.6922 11.0643 27.4742 11.0107L27.5464 9.10843C27.5689 8.51763 27.4149 8.48885 27.2029 9.03541L26.5148 10.8096C26.3642 10.7835 26.2126 10.7597 26.0601 10.7382ZM35.4777 26.1629C34.5937 32.4524 28.7786 36.8344 22.4891 35.9505C16.1996 35.0666 11.8176 29.2514 12.7015 22.9619C13.5854 16.6725 19.4006 12.2904 25.6901 13.1743C31.9795 14.0582 36.3616 19.8734 35.4777 26.1629Z" fill="white"/>
</g>
<path fill-rule="evenodd" clip-rule="evenodd" d="M23.7394 3.56565C23.8559 3.56375 23.9725 3.56279 24.0894 3.56279C24.3538 3.56279 24.617 3.56768 24.879 3.57736L25.4477 1.15315C25.646 0.307483 25.8779 0.317979 25.9668 1.18945L26.2199 3.66953V3.66953C26.6002 3.70784 26.9774 3.7563 27.3514 3.81462V3.81462L28.2111 1.47807C28.5111 0.662888 28.7399 0.701561 28.722 1.57737L28.6711 4.06406C29.0441 4.14707 29.4134 4.24 29.7786 4.34255L30.9168 2.12809C31.3138 1.35553 31.5363 1.42181 31.4117 2.28891L31.0587 4.74691C31.4268 4.87635 31.7901 5.01576 32.1485 5.16481V5.16481L33.5062 3.09012C33.9818 2.36331 34.1961 2.45247 33.9816 3.3018L33.3709 5.72001C33.7129 5.88876 34.0496 6.06654 34.3807 6.25305L35.9838 4.35604C36.5445 3.69261 36.7463 3.80721 36.4299 4.62407L35.5293 6.94935V6.94935C35.8483 7.15702 36.1614 7.37313 36.4682 7.59735V7.59735L38.2942 5.9066C38.9315 5.31644 39.1178 5.45478 38.7043 6.227L37.5273 8.42447C37.8194 8.66794 38.1048 8.91919 38.3831 9.1779L40.4046 7.71998C41.1091 7.21189 41.2772 7.37192 40.7726 8.08797L39.3379 10.1238V10.1238C39.5993 10.3997 39.8532 10.6827 40.0994 10.9724V10.9724L42.2855 9.77068C43.0467 9.35224 43.194 9.53156 42.6059 10.1808L40.9365 12.0236C41.1686 12.335 41.3922 12.6529 41.6071 12.9772L43.8957 12.0152C44.6965 11.6786 44.8242 11.8724 44.1715 12.4566L42.3129 14.1199V14.1199C42.5022 14.4495 42.6828 14.7848 42.8544 15.1253V15.1253L45.2434 14.4494C46.0792 14.2129 46.1824 14.4207 45.4633 14.921L43.4197 16.3428C43.5686 16.6925 43.7082 17.047 43.8384 17.4061L46.2933 17.0261C47.1517 16.8933 47.2288 17.1121 46.4541 17.5211L44.2549 18.6819V18.6819C44.361 19.0464 44.4575 19.4149 44.544 19.7873V19.7873L47.0306 19.7092C47.8988 19.6819 47.9487 19.9086 47.1299 20.2201L44.806 21.1041C44.8679 21.4778 44.9199 21.8548 44.9618 22.2348L47.4449 22.4609C48.31 22.5396 48.3318 22.7707 47.4812 22.98L45.0666 23.5743V23.5743C45.0817 23.9019 45.0894 24.2315 45.0894 24.5628C45.0894 24.6217 45.0892 24.6805 45.0887 24.7393V24.7393L47.5264 25.222C48.3785 25.3908 48.3761 25.6228 47.5083 25.7421L45.0353 26.0821C45.008 26.4635 44.9706 26.842 44.9232 27.2175L47.2843 27.9938C48.1095 28.2651 48.0788 28.4952 47.2029 28.5078L44.7126 28.5438V28.5438C44.6405 28.9193 44.5585 29.2912 44.4667 29.6593L44.4667 29.6593L46.7155 30.7175C47.5014 31.0874 47.443 31.312 46.5721 31.2178L44.1003 30.9504C43.9842 31.3145 43.8584 31.6742 43.7233 32.0293L45.828 33.3548C46.5631 33.8177 46.4776 34.0335 45.6247 33.8338L43.2059 33.2677V33.2677C43.0441 33.6224 42.8728 33.9718 42.6921 34.3156V34.3156L44.6401 35.8486C45.3227 36.3858 45.2152 36.5915 44.3878 36.3038L42.0298 35.4839C41.8314 35.809 41.6245 36.1284 41.4092 36.4416L43.1594 38.2041C43.7714 38.8205 43.6397 39.0115 42.8535 38.6251L40.6134 37.5242V37.5242C40.3784 37.8233 40.1355 38.1159 39.885 38.4016L41.41 40.3677C41.9424 41.0541 41.7883 41.2276 41.0551 40.7483L38.9672 39.3835C38.699 39.6527 38.4235 39.9147 38.1411 40.1692L39.4166 42.309C39.8613 43.0551 39.6873 43.2086 39.0179 42.6435L37.1145 41.0365V41.0365C36.8166 41.2724 36.5121 41.5003 36.2014 41.7201V41.7201L37.2072 44.0005C37.5577 44.7952 37.3662 44.9264 36.7707 44.2839L35.0804 42.4603C34.7498 42.6638 34.413 42.8584 34.0705 43.0438L34.8286 45.4052C35.0942 46.2322 34.89 46.3426 34.3649 45.6414L32.8697 43.6447V43.6447C32.5247 43.8037 32.1746 43.9537 31.8197 44.0943V44.0943L32.2846 46.5316C32.4473 47.3848 32.2313 47.4695 31.7956 46.7096L30.5564 44.5482C30.1952 44.665 29.8298 44.7722 29.4603 44.8697L29.6249 47.3487C29.6825 48.2154 29.4577 48.2732 29.1178 47.4658L28.1516 45.1702H28.1516C27.7798 45.2431 27.4046 45.3061 27.0261 45.3591V45.3591L26.887 47.8451C26.8385 48.7124 26.6084 48.7423 26.3695 47.8995L25.69 45.5027C25.3132 45.5311 24.9336 45.5496 24.5515 45.5578L24.1095 48.0137C23.9557 48.8686 23.7236 48.8702 23.5892 48.0046L23.2072 45.5446V45.5446C22.817 45.5285 22.4295 45.5017 22.0451 45.4646V45.4646L21.3521 47.8499C21.1097 48.684 20.8787 48.6614 20.8355 47.7864L20.7124 45.2927C20.3352 45.2317 19.9614 45.1607 19.5912 45.0799L18.6127 47.3628C18.2705 48.1612 18.044 48.1106 18.1078 47.2369L18.2891 44.7515V44.7515C17.922 44.6462 17.559 44.5312 17.2005 44.4067V44.4067L15.9503 46.5546C15.5133 47.3054 15.2947 47.2275 15.4644 46.3681L15.9468 43.9258C15.5953 43.7778 15.2486 43.6205 14.9071 43.4542L13.4022 45.4367C12.877 46.1286 12.6695 46.0247 12.9427 45.1924L13.719 42.8277V42.8277C13.388 42.6394 13.0626 42.4423 12.7432 42.2368L12.7432 42.2368L11.0044 44.0248C10.3988 44.6475 10.2055 44.5191 10.5781 43.7263L11.6367 41.4739C11.324 41.2433 11.018 41.0043 10.719 40.7571L8.80885 42.3484C8.1415 42.9044 7.96265 42.7565 8.41609 42.007L9.71027 39.8678V39.8678C9.43354 39.6077 9.16387 39.3402 8.90156 39.0656V39.0656L6.80899 40.4141C6.07885 40.8846 5.91937 40.716 6.46076 40.0273L8.00417 38.0641C7.75993 37.7734 7.52343 37.476 7.29498 37.1722L5.05227 38.2563C4.27023 38.6344 4.13248 38.4476 4.75377 37.83L6.52177 36.0727V36.0727C6.31337 35.7552 6.11335 35.4318 5.92201 35.1027V35.1027L3.56346 35.9056C2.74117 36.1855 2.62722 35.9833 3.31913 35.4461L5.28431 33.9203C5.11488 33.5804 4.95439 33.2353 4.80315 32.8853L2.36353 33.395C1.51326 33.5726 1.4248 33.358 2.17703 32.9091L4.31039 31.636V31.636C4.17983 31.271 4.0591 30.9013 3.9485 30.5272V30.5272L1.47912 30.778C0.614947 30.8657 0.549391 30.6431 1.34443 30.2753L3.60934 29.2275C3.52556 28.8581 3.45151 28.485 3.38749 28.1085L0.901141 28.0563C0.0327137 28.0381 -0.0052219 27.8092 0.828713 27.541L3.20475 26.7769H3.20475C3.16537 26.4011 3.1359 26.0223 3.11661 25.6408V25.6408L0.649612 25.2853C-0.210123 25.1614 -0.219873 24.9295 0.640529 24.7649L3.09108 24.2963C3.09583 23.9143 3.11078 23.5348 3.13566 23.158L0.728104 22.5038C-0.110122 22.2761 -0.0915406 22.0447 0.782502 21.9863L3.26691 21.8201V21.8201C3.31739 21.4331 3.3784 21.0494 3.44966 20.6693L3.44966 20.6693L1.1359 19.7718C0.326077 19.4577 0.368738 19.2295 1.2441 19.2628L3.73957 19.3574C3.83392 18.9875 3.93809 18.6215 4.05179 18.2597L1.86405 17.0865C1.09854 16.6761 1.16869 16.4548 2.03348 16.5945L4.49551 16.992V16.992C4.63307 16.6363 4.78005 16.2852 4.93612 15.9391V15.9391L2.9052 14.5063C2.19542 14.0056 2.292 13.7946 3.13333 14.0386L5.52739 14.7329C5.70593 14.3965 5.89334 14.0654 6.08933 13.7402L4.24471 12.0675C3.60125 11.484 3.72283 11.2863 4.52815 11.6311L6.8194 12.6118V12.6118C7.03607 12.2993 7.26101 11.9929 7.49389 11.6931L7.49389 11.6931L5.86375 9.80445C5.29619 9.14689 5.44096 8.9655 6.19827 9.40578L8.35203 10.6579C8.60915 10.3672 8.8742 10.0836 9.14684 9.80747L7.72829 7.76634C7.23257 7.05307 7.39551 6.8878 8.10265 7.40483L10.1218 8.88114V8.88114C10.4052 8.62852 10.6955 8.38346 10.9924 8.14629V8.14629L9.83241 5.946C9.42731 5.17763 9.60917 5.03345 10.248 5.63281L12.069 7.34115C12.3802 7.12353 12.6975 6.91412 13.0208 6.71325L12.1374 4.38766C11.829 3.57565 12.0271 3.4547 12.5881 4.12745L14.184 6.04103L14.184 6.04103C14.5188 5.86161 14.859 5.691 15.2044 5.52951V5.52951L14.6109 3.11328C14.4038 2.26973 14.6151 2.17383 15.09 2.90994L16.4384 5.00011C16.792 4.86172 17.1502 4.73264 17.5128 4.61317L17.2181 2.14083C17.1153 1.27832 17.3367 1.20889 17.7183 1.99738L18.801 4.23431C19.176 4.13704 19.555 4.04988 19.9377 3.97312V3.97312L19.9032 1.49211C19.8911 0.623572 20.1185 0.577669 20.4157 1.40174L21.2629 3.75139C21.6377 3.70095 22.0158 3.66041 22.3967 3.63003L22.6653 1.15786C22.7591 0.29432 22.9905 0.276484 23.185 1.13062L23.7394 3.56565V3.56565V3.56565ZM26.6391 23.3578C25.5363 23.3209 24.181 22.3431 23.635 21.3888L17.2734 10.3703C16.5874 9.17147 17.3724 7.82854 18.4277 7.21929C19.1347 6.81109 21.4793 6.0668 24.5851 6.0693C33.3186 6.29901 40.5444 12.5813 42.2219 20.8756C42.3729 22.2634 41.1937 23.3742 39.9472 23.3556L26.6391 23.3578ZM15.2216 11.48L21.8 22.7902C22.3371 23.7535 22.3087 25.4925 21.7553 26.4426L15.3937 37.4611C14.6985 38.6546 12.9731 38.7893 11.9179 38.18C11.2158 37.7747 9.41967 36.137 7.87624 33.4796C6.41874 30.8351 5.58942 27.7958 5.58942 24.5628C5.58942 19.1093 7.93787 14.2332 11.692 10.8473C12.9049 10.1696 14.5896 10.3466 15.2216 11.48ZM42.022 28.1073C42.022 26.8888 41.0873 25.7014 39.7061 25.696H26.983C25.8835 25.6918 24.5254 26.4558 23.9598 27.4026L17.4541 38.7548C16.7435 39.9442 17.3088 41.4507 18.6878 42.1075C20.7649 43.2309 26.161 43.1878 30.3096 41.9911C33.4936 40.8546 36.2749 38.8704 38.3816 36.3102C41.1577 32.795 42.022 29.1522 42.022 28.1073ZM24.0894 25.5628C24.6417 25.5628 25.0894 25.1151 25.0894 24.5628C25.0894 24.0105 24.6417 23.5628 24.0894 23.5628C23.5371 23.5628 23.0894 24.0105 23.0894 24.5628C23.0894 25.1151 23.5371 25.5628 24.0894 25.5628V25.5628Z" fill="white"/>
<defs>
<filter id="filter0_d" x="4.73633" y="5.20898" width="38.7069" height="38.7068" filterUnits="userSpaceOnUse" color-interpolation-filters="sRGB">
<feFlood flood-opacity="0" result="BackgroundImageFix"/>
<feColorMatrix in="SourceAlpha" type="matrix" values="0 0 0 0 0 0 0 0 0 0 0 0 0 0 0 0 0 0 127 0"/>
<feOffset/>
<feGaussianBlur stdDeviation="0.5"/>
<feColorMatrix type="matrix" values="0 0 0 0 0 0 0 0 0 0 0 0 0 0 0 0 0 0 0.2 0"/>
<feBlend mode="normal" in2="BackgroundImageFix" result="effect1_dropShadow"/>
<feBlend mode="normal" in="SourceGraphic" in2="effect1_dropShadow" result="shape"/>
</filter>
</defs>
</svg>
