<svg width="32" height="35" viewBox="0 0 32 35" fill="none" xmlns="http://www.w3.org/2000/svg">
<path fill-rule="evenodd" clip-rule="evenodd" d="M20.9156 26.0792L29 34.9999L31.223 32.9853L20.9156 21.6117V3.84847C20.9156 3.39664 20.6375 3.1881 20.4985 3.11858C20.3942 3.04907 20.0814 2.91004 19.7339 3.08383C19.4752 3.32354 18.9876 3.7556 18.3626 4.30935C16.3989 6.04935 13.0791 8.99088 11.2462 10.9421L2.22296 0.985352L0 2.99991L9.93247 13.9599V24.2854C9.93247 25.0915 15.7263 30.2608 18.4867 32.7236C19.0591 33.2343 19.5011 33.6286 19.7339 33.8435C20.0814 34.0173 20.3942 33.8783 20.4985 33.8088C20.6375 33.7392 20.9156 33.5307 20.9156 33.0789V26.0792ZM7.60377 12.8157H2.18173C1.52135 12.8157 1 13.3371 1 13.9974V22.9299C1 23.5903 1.52135 24.1116 2.18173 24.1116H7.60377C8.26415 24.1116 8.7855 23.5903 8.7855 22.9299V13.9974C8.7855 13.3371 8.26415 12.8157 7.60377 12.8157Z" fill="#5B5B5F"/>
</svg>
