<svg width="35" height="31" viewBox="0 0 35 31" fill="none" xmlns="http://www.w3.org/2000/svg">
<g filter="url(#filter0_i)">
<path d="M27.2493 6.27061C26.9712 5.9578 26.4846 5.9578 26.2066 6.27061C25.8937 6.54867 25.8937 7.03526 26.2066 7.31331C30.8987 12.0402 30.8987 19.6867 26.2066 24.3789C25.8937 24.6917 25.8937 25.1435 26.2066 25.4563C26.3456 25.5953 26.5541 25.6648 26.7279 25.6648C26.9364 25.6648 27.1102 25.5953 27.2493 25.4563C32.567 20.1733 32.567 11.5536 27.2493 6.27061ZM1.18173 9.8158H6.60377C7.26415 9.8158 7.7855 10.3371 7.7855 10.9975V19.93C7.7855 20.5904 7.26415 21.1117 6.60377 21.1117H1.18173C0.521351 21.1117 0 20.5904 0 19.93V10.9975C0 10.3371 0.521351 9.8158 1.18173 9.8158ZM19.9156 30.079V0.848566C19.9156 0.396729 19.6375 0.188189 19.4985 0.118675C19.3942 0.0491618 19.0814 -0.089865 18.7339 0.0839185C17.3088 1.40467 8.93247 8.56455 8.93247 9.74628C8.93247 13.5695 8.93247 17.4275 8.93247 21.2855C8.93247 22.2587 17.3784 29.5924 18.7339 30.8436C19.0814 31.0174 19.3942 30.8784 19.4985 30.8088C19.6375 30.7393 19.9156 30.5308 19.9156 30.079ZM29.4737 2.48213C29.1956 2.20408 28.709 2.20408 28.3962 2.48213C28.1182 2.79494 28.1182 3.24678 28.3962 3.55959C31.6981 6.82672 33.5055 11.2061 33.5055 15.8287C33.5055 20.4861 31.6981 24.8307 28.3962 28.1326C28.1182 28.4106 28.1182 28.8972 28.3962 29.1753C28.57 29.3491 28.7438 29.4186 28.9523 29.4186C29.1261 29.4186 29.3347 29.3491 29.4737 29.1753C33.0536 25.6301 35 20.8684 35 15.8287C35 10.789 33.0536 6.06207 29.4737 2.48213ZM24.6077 8.5298C24.2949 8.21699 23.8083 8.21699 23.5303 8.5298C23.2175 8.80785 23.2175 9.29444 23.5303 9.5725C26.7627 12.8396 26.7627 18.0879 23.5303 21.355C23.2175 21.6331 23.2175 22.1197 23.5303 22.3977C23.6693 22.5367 23.8779 22.6063 24.0516 22.6063C24.2602 22.6063 24.434 22.5367 24.6077 22.3977C28.431 18.5745 28.431 12.353 24.6077 8.5298Z" fill="#5B5B5F"/>
</g>
<defs>
<filter id="filter0_i" x="0" y="0" width="35" height="34.9275" filterUnits="userSpaceOnUse" color-interpolation-filters="sRGB">
<feFlood flood-opacity="0" result="BackgroundImageFix"/>
<feBlend mode="normal" in="SourceGraphic" in2="BackgroundImageFix" result="shape"/>
<feColorMatrix in="SourceAlpha" type="matrix" values="0 0 0 0 0 0 0 0 0 0 0 0 0 0 0 0 0 0 127 0" result="hardAlpha"/>
<feOffset dy="4"/>
<feGaussianBlur stdDeviation="2"/>
<feComposite in2="hardAlpha" operator="arithmetic" k2="-1" k3="1"/>
<feColorMatrix type="matrix" values="0 0 0 0 0 0 0 0 0 0 0 0 0 0 0 0 0 0 0.25 0"/>
<feBlend mode="normal" in2="shape" result="effect1_innerShadow"/>
</filter>
</defs>
</svg>
