<svg width="47" height="49" viewBox="0 0 47 49" fill="none" xmlns="http://www.w3.org/2000/svg">
<g filter="url(#filter0_i)">
<path fill-rule="evenodd" clip-rule="evenodd" d="M23.0552 27.1011C23.286 27.1934 23.5167 27.2395 23.7475 27.2395C23.9783 27.2395 24.209 27.1934 24.4398 27.1011C24.6244 27.0549 24.809 26.9164 24.9937 26.778L25.0398 26.7318C25.1783 26.5472 25.3167 26.3626 25.409 26.1318C25.5013 25.9011 25.5475 25.6703 25.5475 25.4395V1.99336C25.5475 1.76259 25.5013 1.53182 25.409 1.30105C25.3167 1.07028 25.1783 0.885667 25.0398 0.701052L24.9475 0.654898C24.809 0.516436 24.6244 0.377975 24.4398 0.331821C24.2552 0.239513 23.9783 0.193359 23.7475 0.193359C23.5167 0.193359 23.2398 0.239513 23.0552 0.331821C22.8244 0.424129 22.6398 0.56259 22.4552 0.701052C22.3167 0.885667 22.1783 1.07028 22.086 1.30105C21.9937 1.53182 21.9475 1.76259 21.9475 1.99336V25.4395C21.9475 25.6703 21.9937 25.9011 22.086 26.1318C22.1321 26.3164 22.2706 26.5011 22.409 26.6395L22.4552 26.7318C22.6398 26.8703 22.8244 27.0087 23.0552 27.1011ZM15.0706 46.4857C17.7475 47.5934 20.6552 48.1934 23.7475 48.1934C26.8398 48.1934 29.7475 47.5934 32.4244 46.4857C35.2398 45.3318 37.7321 43.6241 39.8552 41.5472C41.9321 39.4241 43.6398 36.9318 44.7936 34.1164C45.9013 31.4395 46.5013 28.5318 46.5013 25.4395C46.5013 23.4549 46.2706 21.4703 45.7629 19.6241C45.2552 17.6857 44.4706 15.8395 43.5013 14.1318C42.5321 12.4241 41.3321 10.8087 39.9013 9.42413C38.5629 8.03951 36.9937 6.79336 35.286 5.77797H35.2398L35.1475 5.73182C34.9629 5.63951 34.7783 5.59336 34.5475 5.54721C34.3167 5.54721 34.1321 5.54721 33.9013 5.59336C33.6706 5.68567 33.4398 5.77797 33.2552 5.91644C33.0706 6.0549 32.9321 6.23951 32.7937 6.42413L32.7475 6.56259C32.6552 6.74721 32.5629 6.97797 32.5629 7.16259C32.5167 7.39336 32.5629 7.62413 32.609 7.80874C32.6552 8.03951 32.7475 8.27028 32.9321 8.4549C33.0706 8.63951 33.209 8.77797 33.4398 8.91644L33.5783 9.00874C35.009 9.83951 36.2552 10.8549 37.409 12.0087C38.5629 13.2087 39.5321 14.5011 40.3629 15.9318C41.1936 17.3626 41.8398 18.9318 42.2552 20.5472C42.6706 22.1164 42.9013 23.778 42.9013 25.4395C42.9013 28.0241 42.3936 30.5164 41.4244 32.7318C40.4552 35.0857 39.0244 37.2087 37.2706 38.9626C35.5167 40.7164 33.3937 42.1472 31.086 43.1164C28.8244 44.0857 26.3321 44.5934 23.7475 44.5934C21.1629 44.5934 18.6706 44.0857 16.409 43.1164C14.1013 42.1472 11.9783 40.7164 10.2244 38.9626C8.47057 37.2087 7.03981 35.0857 6.07058 32.7318C5.10134 30.5164 4.59365 28.0241 4.59365 25.4395C4.59365 23.778 4.82442 22.1164 5.23981 20.5472C5.65519 18.9318 6.30134 17.3626 7.13211 15.9318C7.96288 14.5011 8.97827 13.1626 10.1321 11.9626C11.286 10.8087 12.6244 9.79336 14.0552 8.91644C14.2398 8.77797 14.4244 8.63951 14.5629 8.4549C14.7475 8.27028 14.8398 8.03951 14.886 7.80874C14.9321 7.62413 14.9783 7.39336 14.9321 7.16259C14.9321 6.97797 14.8398 6.74721 14.7475 6.56259L14.7013 6.47028V6.42413C14.5629 6.23951 14.4244 6.0549 14.2398 5.91644C14.0552 5.77797 13.8244 5.68567 13.5937 5.59336C13.3629 5.54721 13.1783 5.54721 12.9475 5.54721C12.7167 5.59336 12.5321 5.63951 12.3475 5.73182L12.2552 5.77797H12.209C10.5013 6.79336 8.93211 8.03951 7.5475 9.42413C6.16288 10.8087 4.96288 12.4241 3.99365 14.1318C3.02442 15.8395 2.23981 17.6857 1.73211 19.6241C1.22442 21.4703 0.993652 23.4549 0.993652 25.4395C0.993652 28.5318 1.59365 31.4395 2.70134 34.1164C3.85519 36.9318 5.56288 39.4241 7.63981 41.5472C9.76288 43.6241 12.2552 45.3318 15.0706 46.4857Z" fill="white"/>
</g>
<defs>
<filter id="filter0_i" x="0.993652" y="0.193359" width="45.5077" height="52" filterUnits="userSpaceOnUse" color-interpolation-filters="sRGB">
<feFlood flood-opacity="0" result="BackgroundImageFix"/>
<feBlend mode="normal" in="SourceGraphic" in2="BackgroundImageFix" result="shape"/>
<feColorMatrix in="SourceAlpha" type="matrix" values="0 0 0 0 0 0 0 0 0 0 0 0 0 0 0 0 0 0 127 0" result="hardAlpha"/>
<feOffset dy="4"/>
<feGaussianBlur stdDeviation="2"/>
<feComposite in2="hardAlpha" operator="arithmetic" k2="-1" k3="1"/>
<feColorMatrix type="matrix" values="0 0 0 0 0 0 0 0 0 0 0 0 0 0 0 0 0 0 0.25 0"/>
<feBlend mode="normal" in2="shape" result="effect1_innerShadow"/>
</filter>
</defs>
</svg>
