<svg width="22" height="18" viewBox="0 0 22 18" fill="none" xmlns="http://www.w3.org/2000/svg">
<path d="M17.8188 3.21586V3.71586H18.3188V3.21586H17.8188ZM3.03445 13.4248V13.9248H3.53445V13.4248H3.03445ZM18.3188 2.25021C18.3188 1.46571 17.6803 0.833496 16.8982 0.833496V1.8335C17.1323 1.8335 17.3188 2.0222 17.3188 2.25021H18.3188ZM18.3188 3.21586V2.25021H17.3188V3.21586H18.3188ZM3.95505 3.71586H17.8188V2.71586H3.95505V3.71586ZM3.53445 4.13118C3.53445 3.90436 3.71979 3.71586 3.95505 3.71586V2.71586C3.17272 2.71586 2.53445 3.34688 2.53445 4.13118H3.53445ZM3.53445 13.4248V4.13118H2.53445V13.4248H3.53445ZM1.9206 13.9248H3.03445V12.9248H1.9206V13.9248ZM0.5 12.5088C0.5 13.2945 1.13827 13.9248 1.9206 13.9248V12.9248C1.68535 12.9248 1.5 12.737 1.5 12.5088H0.5ZM0.5 2.25021V12.5088H1.5V2.25021H0.5ZM1.9206 0.833496C1.13753 0.833496 0.5 1.46596 0.5 2.25021H1.5C1.5 2.02195 1.68609 1.8335 1.9206 1.8335V0.833496ZM16.8982 0.833496H1.9206V1.8335H16.8982V0.833496ZM20.0788 3.74221H5.10186V4.74221H20.0788V3.74221ZM21.5001 5.15822C21.5001 4.37298 20.8608 3.74221 20.0788 3.74221V4.74221C20.3143 4.74221 20.5001 4.93096 20.5001 5.15822H21.5001ZM21.5001 15.4168V5.15822H20.5001V15.4168H21.5001ZM20.0788 16.8336C20.8613 16.8336 21.5001 16.2016 21.5001 15.4168H20.5001C20.5001 15.6446 20.3138 15.8336 20.0788 15.8336V16.8336ZM5.10186 16.8336H20.0788V15.8336H5.10186V16.8336ZM3.68056 15.4168C3.68056 16.2016 4.31929 16.8336 5.10186 16.8336V15.8336C4.86686 15.8336 4.68056 15.6446 4.68056 15.4168H3.68056ZM3.68056 5.15822V15.4168H4.68056V5.15822H3.68056ZM5.10186 3.74221C4.31978 3.74221 3.68056 4.37298 3.68056 5.15822H4.68056C4.68056 4.93095 4.86636 4.74221 5.10186 4.74221V3.74221Z" fill="#C8C8C8"/>
</svg>
