<svg width="42" height="31" viewBox="0 0 42 31" fill="none" xmlns="http://www.w3.org/2000/svg">
<path fill-rule="evenodd" clip-rule="evenodd" d="M25.2 0H16.8C7.5222 0 0 6.40627 0 14.3077V16.6923C0 24.5949 7.5222 31 16.8 31H25.2C34.4778 31 42 24.5949 42 16.6923V14.3077C42 6.40627 34.4778 0 25.2 0ZM28.4626 21.6471C28.454 21.5783 28.4369 21.5096 28.4154 21.4494C28.252 20.826 27.8823 19.691 27.7146 19.1837C27.6974 19.0934 27.6673 19.0117 27.6286 18.9301V18.9257C27.5254 18.7065 27.3577 18.5217 27.1514 18.3969C27.1385 18.3883 27.1127 18.3754 27.0783 18.3582C27.0718 18.354 27.0643 18.3508 27.0568 18.3475C27.0493 18.3443 27.0418 18.3411 27.0353 18.3368C26.6268 18.1433 25.3758 17.6446 25.3758 17.6446C24.7481 17.3737 24.1032 17.1416 23.4411 16.9094C23.3251 17.3995 22.203 20.6626 22.0224 21.114L21.8805 18.0831C21.9227 18.0179 21.9546 17.9458 21.9855 17.8761L21.9966 17.8509L22.4652 16.9266C22.1342 17.2018 21.644 17.3737 21.0894 17.3737C20.552 17.3737 20.0662 17.2061 19.7395 16.9438L20.1953 17.8509C20.2081 17.8767 20.2201 17.9029 20.232 17.9292L20.232 17.9293C20.2559 17.9818 20.2798 18.0344 20.3113 18.0831L20.1695 21.114C19.9932 20.6626 18.8711 17.3995 18.7507 16.9094C18.0887 17.1459 17.4395 17.378 16.8161 17.6446C16.8161 17.6446 15.565 18.1433 15.1566 18.3368C15.1501 18.3411 15.1426 18.3443 15.135 18.3476C15.1275 18.3508 15.12 18.354 15.1136 18.3582C15.0792 18.3754 15.0534 18.3883 15.0405 18.3969C14.8342 18.5216 14.6665 18.7065 14.5633 18.9257V18.9301C14.5246 19.0117 14.4988 19.0977 14.4773 19.1837C14.3097 19.691 13.9399 20.826 13.7766 21.4494C13.7551 21.5139 13.7379 21.5783 13.7293 21.6471C13.7207 21.7073 13.7164 21.7676 13.7164 21.832C13.7164 22.4984 14.2581 23.0401 14.9245 23.0401H27.2631C27.9295 23.0401 28.4712 22.4984 28.4712 21.832C28.4798 21.7676 28.4712 21.7073 28.4626 21.6471ZM24.2765 10.6576C24.2653 10.9111 24.2534 11.1778 24.2534 11.2906C24.2617 11.2911 24.2769 11.2896 24.2975 11.2875C24.4704 11.2706 25.0195 11.2169 24.9542 11.9699C24.8045 13.6401 24.1984 13.4348 24.1091 13.4046C24.1035 13.4027 24.0999 13.4015 24.0986 13.4015C23.7633 14.4763 23.2431 15.1642 22.7315 15.5984C21.9448 16.2691 21.1795 16.3421 21.1666 16.3421H21.1021H21.0376C21.0247 16.3421 20.2552 16.2691 19.4641 15.5898C18.9568 15.1513 18.4409 14.4677 18.1056 13.3972C18.1046 13.3972 18.1017 13.3982 18.097 13.3999C18.0157 13.4289 17.4004 13.6482 17.25 11.9656C17.1847 11.2168 17.7334 11.2706 17.9065 11.2875C17.9272 11.2895 17.9425 11.2911 17.9508 11.2906C17.9508 11.1778 17.9389 10.9111 17.9277 10.6576C17.9175 10.428 17.9078 10.2093 17.9078 10.1255C17.9078 8.40154 19.305 7 21.0333 7H21.0376H21.042H21.1021H21.1623H21.1666H21.1709C22.8949 7 24.2964 8.39724 24.2964 10.1255C24.2964 10.2093 24.2867 10.428 24.2765 10.6576Z" fill="#8A8A8F"/>
</svg>
