<svg width="25" height="25" viewBox="0 0 25 25" version="1.1" xmlns="http://www.w3.org/2000/svg" xmlns:xlink="http://www.w3.org/1999/xlink">
<title>Automatic-icon</title>
<desc>Created using Figma</desc>
<g id="Canvas" transform="translate(1127 10193)">
<g id="Automatic-icon">
<g id="Layer x0020 1">
<g id="Vector">
<use xlink:href="#path0_fill" transform="translate(-1127 -10193)" fill="#8C8C8C"/>
</g>
</g>
</g>
</g>
<defs>
<path id="path0_fill" d="M 1.6129 0L 23.3871 0C 23.8306 0 24.2339 0.201613 24.5161 0.483871C 24.7984 0.766129 25 1.16935 25 1.6129L 25 23.3871C 25 23.8306 24.7984 24.2339 24.5161 24.5161C 24.2339 24.7984 23.8306 25 23.3871 25L 1.6129 25C 1.16935 25 0.766129 24.7984 0.483871 24.5161C 0.201613 24.2339 0 23.8306 0 23.3871L 0 1.6129C 0 1.16935 0.201613 0.766129 0.483871 0.483871C 0.766129 0.201613 1.16935 0 1.6129 0ZM 15.4032 8.10484L 9.79839 8.10484C 9.59677 8.10484 9.43548 8.02419 9.31452 7.90323C 9.15323 7.78226 9.07258 7.58065 9.07258 7.37903C 9.07258 7.17742 9.15323 7.01613 9.31452 6.85484C 9.43548 6.73387 9.59677 6.65323 9.79839 6.65323L 15.4032 6.65323C 15.5645 6.65323 15.7661 6.73387 15.8871 6.85484C 16.0081 7.01613 16.0887 7.17742 16.0887 7.37903C 16.0887 7.58065 16.0081 7.74194 15.8871 7.90323C 15.7661 8.02419 15.5645 8.10484 15.4032 8.10484ZM 16.4113 9.91935L 8.79032 9.91935C 8.30645 9.91935 7.90323 9.71774 7.62097 9.43548C 7.29839 9.1129 7.1371 8.70968 7.1371 8.26613L 7.1371 6.49194C 7.1371 6.04839 7.29839 5.64516 7.62097 5.32258C 7.90323 5.04032 8.30645 4.83871 8.79032 4.83871L 16.4113 4.83871C 16.8548 4.83871 17.2984 5.04032 17.5806 5.32258C 17.9032 5.64516 18.0645 6.04839 18.0645 6.49194L 18.0645 8.26613C 18.0645 8.70968 17.9032 9.1129 17.5806 9.43548C 17.2984 9.71774 16.8548 9.91935 16.4113 9.91935ZM 8.79032 8.66935L 16.4113 8.66935C 16.5323 8.66935 16.6532 8.62903 16.6935 8.54839C 16.7742 8.46774 16.8145 8.3871 16.8145 8.26613L 16.8145 6.49194C 16.8145 6.41129 16.7742 6.29032 16.6935 6.20968C 16.6532 6.12903 16.5323 6.08871 16.4113 6.08871L 8.79032 6.08871C 8.66935 6.08871 8.54839 6.12903 8.46774 6.20968C 8.42742 6.29032 8.34677 6.41129 8.34677 6.49194L 8.34677 8.26613C 8.34677 8.3871 8.42742 8.46774 8.46774 8.54839C 8.54839 8.62903 8.66935 8.66935 8.79032 8.66935ZM 17.3387 17.9032L 7.62097 17.9032C 7.45968 17.9032 7.25806 17.8226 7.1371 17.7016C 7.01613 17.5806 6.93548 17.379 6.93548 17.1774C 6.93548 16.9758 7.01613 16.8145 7.1371 16.6935C 7.25806 16.5726 7.45968 16.4516 7.62097 16.4516L 17.3387 16.4516C 17.5403 16.4516 17.7419 16.5726 17.8629 16.6935C 17.9839 16.8145 18.0645 16.9758 18.0645 17.1774C 18.0645 17.379 17.9839 17.5806 17.8629 17.7016C 17.7419 17.8226 17.5403 17.9032 17.3387 17.9032ZM 15.2823 20.0403L 9.71774 20.0403C 9.51613 20.0403 9.31452 19.9597 9.19355 19.7984C 9.07258 19.6774 8.99194 19.5161 8.99194 19.3145C 8.99194 19.1129 9.07258 18.9113 9.19355 18.7903C 9.31452 18.6694 9.51613 18.5887 9.71774 18.5887L 15.2823 18.5887C 15.4839 18.5887 15.6452 18.6694 15.8065 18.7903C 15.9274 18.9113 16.0081 19.1129 16.0081 19.3145C 16.0081 19.5161 15.9274 19.6774 15.8065 19.7984C 15.6452 19.9597 15.4839 20.0403 15.2823 20.0403ZM 11.4919 14.0323L 10.5242 14.0323C 10.3629 14.0323 10.2419 13.9516 10.1613 13.871C 10.0403 13.7903 10 13.629 10 13.5081L 10 11.4919C 10 11.371 10.0403 11.2097 10.1613 11.129C 10.2419 11.0081 10.3629 10.9677 10.5242 10.9677L 11.4919 10.9677C 11.6129 10.9677 11.7742 11.0484 11.8548 11.129C 11.9355 11.2097 12.0161 11.3306 12.0161 11.4919L 12.0161 13.5081C 12.0161 13.629 11.9355 13.7903 11.8548 13.871C 11.7742 13.9919 11.6129 14.0323 11.4919 14.0323ZM 8.46774 14.0323L 7.5 14.0323C 7.37903 14.0323 7.21774 13.9516 7.1371 13.871C 7.05645 13.7903 6.97581 13.629 6.97581 13.5081L 6.97581 11.4919C 6.97581 11.371 7.05645 11.2097 7.1371 11.129C 7.21774 11.0081 7.37903 10.9677 7.5 10.9677L 8.46774 10.9677C 8.62903 10.9677 8.75 11.0484 8.83065 11.129C 8.95161 11.2097 8.99194 11.3306 8.99194 11.4919L 8.99194 13.5081C 8.99194 13.629 8.95161 13.7903 8.83065 13.871C 8.75 13.9919 8.58871 14.0323 8.46774 14.0323ZM 5.44355 14.0323L 4.47581 14.0323C 4.35484 14.0323 4.19355 13.9516 4.1129 13.871C 4.03226 13.7903 3.95161 13.629 3.95161 13.5081L 3.95161 11.4919C 3.95161 11.371 4.03226 11.2097 4.1129 11.129C 4.19355 11.0081 4.35484 10.9677 4.47581 10.9677L 5.44355 10.9677C 5.60484 10.9677 5.72581 11.0484 5.80645 11.129C 5.92742 11.2097 5.96774 11.3306 5.96774 11.4919L 5.96774 13.5081C 5.96774 13.629 5.92742 13.7903 5.80645 13.871C 5.72581 13.9919 5.56452 14.0323 5.44355 14.0323ZM 20.5242 14.0323L 19.5968 14.0323C 19.4355 14.0323 19.3145 13.9516 19.1935 13.871C 19.1129 13.7903 19.0726 13.629 19.0726 13.5081L 19.0726 11.4919C 19.0726 11.371 19.1129 11.2097 19.1935 11.129L 19.2339 11.129C 19.3145 11.0081 19.4355 10.9677 19.5968 10.9677L 20.5242 10.9677C 20.6855 10.9677 20.8065 11.0484 20.9274 11.129C 21.0081 11.2097 21.0887 11.3306 21.0887 11.4919L 21.0887 13.5081C 21.0887 13.629 21.0081 13.7903 20.9274 13.871C 20.8065 13.9919 20.6855 14.0323 20.5242 14.0323ZM 17.5403 14.0323L 16.5726 14.0323C 16.4113 14.0323 16.2903 13.9516 16.2097 13.871C 16.0887 13.7903 16.0484 13.629 16.0484 13.5081L 16.0484 11.4919C 16.0484 11.371 16.0887 11.2097 16.1694 11.129L 16.2097 11.129C 16.2903 11.0081 16.4113 10.9677 16.5726 10.9677L 17.5403 10.9677C 17.6613 10.9677 17.8226 11.0484 17.9032 11.129C 17.9839 11.2097 18.0645 11.3306 18.0645 11.4919L 18.0645 13.5081C 18.0645 13.629 17.9839 13.7903 17.9032 13.871C 17.7823 13.9919 17.6613 14.0323 17.5403 14.0323ZM 14.5161 14.0323L 13.5484 14.0323C 13.3871 14.0323 13.2661 13.9516 13.1855 13.871C 13.0645 13.7903 13.0242 13.629 13.0242 13.5081L 13.0242 11.4919C 13.0242 11.371 13.0645 11.2097 13.1855 11.129C 13.2661 11.0081 13.3871 10.9677 13.5484 10.9677L 14.5161 10.9677C 14.6371 10.9677 14.7984 11.0484 14.879 11.129C 14.9597 11.2097 15.0403 11.3306 15.0403 11.4919L 15.0403 13.5081C 15.0403 13.629 14.9597 13.7903 14.879 13.871C 14.7581 13.9919 14.6371 14.0323 14.5161 14.0323ZM 12.5 23.1452C 9.55645 23.1452 6.89516 21.9355 4.95968 20C 3.06452 18.1048 1.85484 15.4435 1.85484 12.5C 1.85484 9.55645 3.06452 6.89516 4.95968 4.95968C 6.89516 3.06452 9.55645 1.85484 12.5 1.85484C 15.4435 1.85484 18.1048 3.06452 20 4.95968C 21.9355 6.89516 23.1452 9.55645 23.1452 12.5C 23.1452 15.4435 21.9355 18.1048 20 20C 18.1048 21.9355 15.4435 23.1452 12.5 23.1452ZM 5.84677 19.1532C 7.54032 20.8468 9.87903 21.8952 12.5 21.8952C 15.0806 21.8952 17.4194 20.8468 19.1532 19.1532C 20.8468 17.4194 21.8952 15.0806 21.8952 12.5C 21.8952 9.87903 20.8468 7.54032 19.1532 5.84677C 17.4194 4.15323 15.0806 3.10484 12.5 3.10484C 9.87903 3.10484 7.54032 4.15323 5.84677 5.84677C 4.15323 7.54032 3.10484 9.87903 3.10484 12.5C 3.10484 15.0806 4.15323 17.4194 5.84677 19.1532ZM 23.3871 1.25L 1.6129 1.25C 1.53226 1.25 1.41129 1.29032 1.33065 1.33065C 1.29032 1.41129 1.25 1.53226 1.25 1.6129L 1.25 23.3871C 1.25 23.4677 1.29032 23.5484 1.33065 23.629C 1.41129 23.7097 1.53226 23.75 1.6129 23.75L 23.3871 23.75C 23.4677 23.75 23.5484 23.7097 23.629 23.629C 23.7097 23.5484 23.75 23.4677 23.75 23.3871L 23.75 1.6129C 23.75 1.53226 23.7097 1.41129 23.629 1.33065C 23.5484 1.29032 23.4677 1.25 23.3871 1.25Z"/>
</defs>
</svg>
