<svg width="25" height="25" viewBox="0 0 25 25" fill="none" xmlns="http://www.w3.org/2000/svg">
<mask id="path-1-inside-1" fill="white">
<path fill-rule="evenodd" clip-rule="evenodd" d="M14.9009 0.148632L15.2657 3.18106C15.5063 3.25329 15.7429 3.3347 15.9751 3.42488L18.1066 1.25045C18.3952 1.39644 18.6773 1.55334 18.9525 1.72063L18.2645 4.69736C18.4645 4.84736 18.6587 5.00497 18.8463 5.16977L21.5881 3.8604C21.8095 4.09634 22.022 4.3409 22.2248 4.59352L20.5683 7.15222C20.7056 7.36155 20.8346 7.57654 20.9559 7.79676L23.9788 7.51021C24.1061 7.80669 24.2224 8.10909 24.3272 8.41687L21.8997 10.252C21.9568 10.4951 22.0051 10.7418 22.0437 10.9917L24.9789 11.7624C24.9931 12.0065 25 12.2524 25 12.5C25 12.5789 24.9992 12.6576 24.9978 12.7362L22.0953 13.6242C22.0664 13.8754 22.0284 14.1238 21.981 14.3688L24.4795 16.1051C24.3872 16.417 24.2828 16.7239 24.1674 17.0251L21.1359 16.8601C21.0236 17.0852 20.9026 17.3053 20.7739 17.52L22.5306 20.0101C22.3378 20.2707 22.1352 20.5235 21.9233 20.7679L19.1317 19.5696C18.9506 19.7417 18.763 19.9069 18.5691 20.0647L19.3742 23.0113C19.1057 23.1896 18.8299 23.3578 18.5475 23.5153L16.3316 21.4283C16.103 21.5279 15.87 21.6188 15.6328 21.7006L15.3881 24.7457C15.0762 24.8199 14.76 24.8824 14.4398 24.9327L13.066 22.207C12.8787 22.2179 12.69 22.2234 12.5 22.2234C12.4395 22.2234 12.379 22.2229 12.3188 22.2218L11.054 25C10.7316 24.9626 10.4134 24.9129 10.0991 24.8514L9.73428 21.8189C9.49374 21.7467 9.25709 21.6653 9.02488 21.5751L6.89337 23.7496C6.60484 23.6036 6.32269 23.4467 6.04747 23.2794L6.73551 20.3026C6.53548 20.1526 6.34128 19.995 6.15373 19.8302L3.41187 21.1396C3.19047 20.9037 2.97796 20.6591 2.77516 20.4065L4.43171 17.8478C4.29438 17.6384 4.16537 17.4235 4.04413 17.2032L1.02123 17.4898C0.893888 17.1933 0.777643 16.8909 0.672774 16.5831L3.10031 14.748C3.04316 14.5049 2.99488 14.2582 2.95632 14.0083L0.0210849 13.2376C0.00693581 12.9935 0 12.7476 0 12.5C0 12.4211 0.000832298 12.3424 0.00221946 12.2638L2.90472 11.3758C2.93357 11.1246 2.97158 10.8762 3.01902 10.6312L0.520463 8.89486C0.612848 8.58296 0.717163 8.27613 0.832575 7.9749L3.86408 8.13989C3.97644 7.91479 4.0974 7.69468 4.22613 7.48L2.46943 4.9899C2.66224 4.72934 2.86477 4.47655 3.07673 4.23207L5.86825 5.43042C6.04942 5.25826 6.23696 5.09308 6.43089 4.93529L5.62578 1.98869C5.89433 1.81037 6.1701 1.64219 6.45253 1.48471L8.66838 3.57167C8.89698 3.47213 9.13003 3.38122 9.36723 3.29936L9.61193 0.254287C9.92376 0.18006 10.24 0.117586 10.5602 0.0673503L11.934 2.79298C12.1213 2.78209 12.31 2.77656 12.5 2.77656C12.5605 2.77656 12.621 2.77712 12.6812 2.77824L13.946 0C14.2684 0.0373669 14.5866 0.0870701 14.9009 0.148632ZM7.73482 19.6143L7.73093 19.6115C7.50566 19.4581 7.28788 19.2942 7.07869 19.1204C7.28926 19.2952 7.50816 19.4601 7.73482 19.6143ZM7.36639 7.15373C7.84246 6.69021 8.59985 6.86444 8.93194 7.44146L11.1814 11.3498C11.5903 12.0606 11.5895 12.9376 11.1791 13.6476L8.92195 17.5514C8.58876 18.1278 7.83109 18.3005 7.35585 17.836C5.97201 16.4839 5.11364 14.5925 5.11364 12.5C5.11364 10.4022 5.97617 8.50654 7.36639 7.15373ZM12.1693 14.209C12.5763 13.505 13.3245 13.072 14.1335 13.072H18.6387C19.3004 13.072 19.8298 13.6431 19.6711 14.2897C18.8751 17.5317 15.9665 19.9356 12.5 19.9356C11.7462 19.9416 11.0579 19.8456 10.4068 19.651C9.77811 19.463 9.56171 18.7188 9.89186 18.148L12.1693 14.209ZM19.6711 10.7103C19.8298 11.3569 19.3004 11.928 18.6387 11.928H14.1374C13.3265 11.928 12.5771 11.4933 12.1707 10.7871L9.90295 6.84685C9.5742 6.27538 9.7917 5.53158 10.4212 5.34492C11.0679 5.15304 11.7515 5.0585 12.5 5.06443C15.9665 5.06443 18.8751 7.46826 19.6711 10.7103Z"/>
</mask>
<path fill-rule="evenodd" clip-rule="evenodd" d="M14.9009 0.148632L15.2657 3.18106C15.5063 3.25329 15.7429 3.3347 15.9751 3.42488L18.1066 1.25045C18.3952 1.39644 18.6773 1.55334 18.9525 1.72063L18.2645 4.69736C18.4645 4.84736 18.6587 5.00497 18.8463 5.16977L21.5881 3.8604C21.8095 4.09634 22.022 4.3409 22.2248 4.59352L20.5683 7.15222C20.7056 7.36155 20.8346 7.57654 20.9559 7.79676L23.9788 7.51021C24.1061 7.80669 24.2224 8.10909 24.3272 8.41687L21.8997 10.252C21.9568 10.4951 22.0051 10.7418 22.0437 10.9917L24.9789 11.7624C24.9931 12.0065 25 12.2524 25 12.5C25 12.5789 24.9992 12.6576 24.9978 12.7362L22.0953 13.6242C22.0664 13.8754 22.0284 14.1238 21.981 14.3688L24.4795 16.1051C24.3872 16.417 24.2828 16.7239 24.1674 17.0251L21.1359 16.8601C21.0236 17.0852 20.9026 17.3053 20.7739 17.52L22.5306 20.0101C22.3378 20.2707 22.1352 20.5235 21.9233 20.7679L19.1317 19.5696C18.9506 19.7417 18.763 19.9069 18.5691 20.0647L19.3742 23.0113C19.1057 23.1896 18.8299 23.3578 18.5475 23.5153L16.3316 21.4283C16.103 21.5279 15.87 21.6188 15.6328 21.7006L15.3881 24.7457C15.0762 24.8199 14.76 24.8824 14.4398 24.9327L13.066 22.207C12.8787 22.2179 12.69 22.2234 12.5 22.2234C12.4395 22.2234 12.379 22.2229 12.3188 22.2218L11.054 25C10.7316 24.9626 10.4134 24.9129 10.0991 24.8514L9.73428 21.8189C9.49374 21.7467 9.25709 21.6653 9.02488 21.5751L6.89337 23.7496C6.60484 23.6036 6.32269 23.4467 6.04747 23.2794L6.73551 20.3026C6.53548 20.1526 6.34128 19.995 6.15373 19.8302L3.41187 21.1396C3.19047 20.9037 2.97796 20.6591 2.77516 20.4065L4.43171 17.8478C4.29438 17.6384 4.16537 17.4235 4.04413 17.2032L1.02123 17.4898C0.893888 17.1933 0.777643 16.8909 0.672774 16.5831L3.10031 14.748C3.04316 14.5049 2.99488 14.2582 2.95632 14.0083L0.0210849 13.2376C0.00693581 12.9935 0 12.7476 0 12.5C0 12.4211 0.000832298 12.3424 0.00221946 12.2638L2.90472 11.3758C2.93357 11.1246 2.97158 10.8762 3.01902 10.6312L0.520463 8.89486C0.612848 8.58296 0.717163 8.27613 0.832575 7.9749L3.86408 8.13989C3.97644 7.91479 4.0974 7.69468 4.22613 7.48L2.46943 4.9899C2.66224 4.72934 2.86477 4.47655 3.07673 4.23207L5.86825 5.43042C6.04942 5.25826 6.23696 5.09308 6.43089 4.93529L5.62578 1.98869C5.89433 1.81037 6.1701 1.64219 6.45253 1.48471L8.66838 3.57167C8.89698 3.47213 9.13003 3.38122 9.36723 3.29936L9.61193 0.254287C9.92376 0.18006 10.24 0.117586 10.5602 0.0673503L11.934 2.79298C12.1213 2.78209 12.31 2.77656 12.5 2.77656C12.5605 2.77656 12.621 2.77712 12.6812 2.77824L13.946 0C14.2684 0.0373669 14.5866 0.0870701 14.9009 0.148632ZM7.73482 19.6143L7.73093 19.6115C7.50566 19.4581 7.28788 19.2942 7.07869 19.1204C7.28926 19.2952 7.50816 19.4601 7.73482 19.6143ZM7.36639 7.15373C7.84246 6.69021 8.59985 6.86444 8.93194 7.44146L11.1814 11.3498C11.5903 12.0606 11.5895 12.9376 11.1791 13.6476L8.92195 17.5514C8.58876 18.1278 7.83109 18.3005 7.35585 17.836C5.97201 16.4839 5.11364 14.5925 5.11364 12.5C5.11364 10.4022 5.97617 8.50654 7.36639 7.15373ZM12.1693 14.209C12.5763 13.505 13.3245 13.072 14.1335 13.072H18.6387C19.3004 13.072 19.8298 13.6431 19.6711 14.2897C18.8751 17.5317 15.9665 19.9356 12.5 19.9356C11.7462 19.9416 11.0579 19.8456 10.4068 19.651C9.77811 19.463 9.56171 18.7188 9.89186 18.148L12.1693 14.209ZM19.6711 10.7103C19.8298 11.3569 19.3004 11.928 18.6387 11.928H14.1374C13.3265 11.928 12.5771 11.4933 12.1707 10.7871L9.90295 6.84685C9.5742 6.27538 9.7917 5.53158 10.4212 5.34492C11.0679 5.15304 11.7515 5.0585 12.5 5.06443C15.9665 5.06443 18.8751 7.46826 19.6711 10.7103Z" stroke="#007AFF" stroke-width="2" mask="url(#path-1-inside-1)"/>
</svg>
